<svg fill="none" height="33" viewBox="0 0 174 33" width="174" xmlns="http://www.w3.org/2000/svg" xmlns:xlink="http://www.w3.org/1999/xlink"><linearGradient id="a" gradientUnits="userSpaceOnUse" x1="15.085" x2="28.4617" y1=".86963" y2="9.03855"><stop offset="0" stop-color="#4285eb"/><stop offset="1" stop-color="#2ec7ff"/></linearGradient><linearGradient id="b" gradientUnits="userSpaceOnUse" x1="16.8792" x2="10.2724" y1=".869629" y2="35.0156"><stop offset="0" stop-color="#29cdff"/><stop offset=".378601" stop-color="#148eff"/><stop offset="1" stop-color="#0a60ff"/></linearGradient><linearGradient id="c" gradientUnits="userSpaceOnUse" x1="29.929" x2="21.3324" y1="9.0644" y2="22.5087"><stop offset="0" stop-color="#fa816e"/><stop offset=".414726" stop-color="#f74a5c"/><stop offset="1" stop-color="#f51d2c"/></linearGradient><linearGradient id="d" gradientUnits="userSpaceOnUse" x1="17.771" x2="14.9107" y1="10.433" y2="21.8747"><stop offset="0" stop-color="#fa8e7d"/><stop offset=".512635" stop-color="#f74a5c"/><stop offset="1" stop-color="#f51d2c"/></linearGradient><path d="m14.9548 1.43928-14.076431 14.06482c-.756771.7561-.756771 1.9775 0 2.7336l14.076431 14.0648c.7567.7562 1.979.7562 2.7358 0l5.902-5.8972c.6778-.6771.6778-1.7751 0-2.4523-.6777-.6772-1.7765-.6772-2.4543 0l-4.4743 4.4706c-.1883.1882-.4742.1882-.6626 0l-11.24096-11.2317c-.18836-.1882-.18836-.4739 0-.6621l11.24096-11.23173c.1884-.1882.4743-.1882.6626 0l4.4743 4.4706c.6778.67723 1.7766.67723 2.4543 0 .6778-.67718.6778-1.77512 0-2.4523l-5.9013-5.89654c-.7599-.739784-1.9827-.733795-2.7365.01945z" fill="url(#a)"/><path d="m14.9548 1.43928-14.076431 14.06482c-.756771.7561-.756771 1.9775 0 2.7336l14.076431 14.0648c.7567.7562 1.979.7562 2.7358 0l5.902-5.8972c.6778-.6771.6778-1.7751 0-2.4523-.6777-.6772-1.7765-.6772-2.4543 0l-4.4743 4.4706c-.1883.1882-.4742.1882-.6626 0l-11.24096-11.2317c-.18836-.1882-.18836-.4739 0-.6621l11.24096-11.23173c.4691-.40433 1.2343-1.22329 2.358-1.41483.8352-.14234 1.7482.17096 2.7392.93993-.6625-.66197-1.7983-1.79641-3.4073-3.40334-.7599-.739784-1.9827-.733795-2.7365.01945z" fill="url(#b)"/><path d="m24.9551 22.645c.6778.6772 1.7766.6772 2.4544 0l4.3536-4.3501c.7568-.7561.7568-1.9774.0001-2.7335l-4.3916-4.3724c-.6793-.6764-1.7785-.6754-2.4567.0022-.6777.6772-.6777 1.7751 0 2.4523l2.9661 2.9637c.1884.1882.1884.4738 0 .662l-2.9259 2.9235c-.6777.6772-.6777 1.7751 0 2.4523z" fill="url(#c)"/><path d="m16.393 20.7387c2.0991 0 3.8007-1.7002 3.8007-3.7975s-1.7016-3.7975-3.8007-3.7975c-2.099 0-3.8006 1.7002-3.8006 3.7975s1.7016 3.7975 3.8006 3.7975z" fill="url(#d)"/><path d="m55.0415 26.8696h3.2402l-7.123-19.72849h-3.3086l-7.123 19.72849h3.1855l1.8047-5.332h7.5195zm-5.6055-16.4472h.0821l2.9394 8.6543h-5.9609zm10.6641 16.4472h2.9531v-8.3808c0-2.2285 1.3399-3.7051 3.418-3.7051 2.0508 0 3.0625 1.1894 3.0625 3.3496v8.7363h2.9668v-9.3105c0-3.2949-1.8184-5.3184-4.9902-5.3184-2.2149 0-3.7461 1.0117-4.5254 2.6524h-.0684v-2.4063h-2.8164zm16.1191-17.78708v3.40428h-2.0918v2.3379h2.0918v8.2578c0 2.7754 1.1348 3.8828 4.0469 3.8828.6563 0 1.3125-.0547 1.6406-.1367v-2.3379c-.1914.041-.6699.0684-.9707.0684-1.2031 0-1.75-.5606-1.75-1.8047v-7.9297h2.7344v-2.3379h-2.7344v-3.40428zm14.1778-1.94141v19.72849h6.959c5.879 0 9.338-3.664 9.338-9.8984 0-6.2207-3.473-9.83009-9.338-9.83009zm3.0625 2.63868h3.6093c4.1702 0 6.4942 2.57031 6.4942 7.21871 0 4.6621-2.311 7.2188-6.4942 7.2188h-3.6093zm21.8205 4.82621c2.064 0 3.459 1.5449 3.527 3.7461h-7.191c.15-2.1739 1.599-3.7461 3.664-3.7461zm3.513 8.039c-.396 1.2578-1.64 2.1055-3.322 2.1055-2.365 0-3.869-1.6543-3.869-4.1563v-.1777h10.158v-1.0117c0-4.3613-2.488-7.1777-6.48-7.1777-4.061 0-6.658 3.0078-6.658 7.5195 0 4.539 2.556 7.3965 6.781 7.3965 3.295 0 5.783-1.8731 6.193-4.4981zm5.004-6.084c0 2.0098 1.313 3.3633 3.911 3.9922l2.57.6289c1.504.3828 2.051.8887 2.051 1.8047 0 1.1621-1.094 1.9004-2.871 1.9004-1.805 0-2.872-.7656-3.104-2.1465h-2.926c.233 2.6387 2.489 4.4024 5.893 4.4024 3.527 0 5.974-1.8047 5.974-4.4297 0-2.1192-1.093-3.2129-3.992-3.9102l-2.42-.5605c-1.49-.3692-2.201-.9707-2.201-1.8594 0-1.1348 1.067-1.9141 2.666-1.9141 1.654 0 2.707.8067 2.844 2.1055h2.775c-.095-2.5566-2.338-4.3476-5.537-4.3476-3.363 0-5.633 1.7636-5.633 4.3339zm13.891 10.3086h2.953v-14.3828h-2.953zm1.477-16.4883c.957 0 1.722-.75191 1.722-1.68159 0-.94336-.765-1.69532-1.722-1.69532-.944 0-1.709.75196-1.709 1.69532 0 .92968.765 1.68159 1.709 1.68159zm10.623 14.0958c-2.27 0-3.746-1.8321-3.746-4.8399 0-2.9941 1.476-4.8945 3.746-4.8945 2.31 0 3.828 1.9414 3.828 4.8945 0 2.9668-1.518 4.8399-3.828 4.8399zm.027 7.8066c4.102 0 6.754-2.2422 6.754-5.6738v-14.1231h-2.871v2.461h-.055c-.875-1.668-2.543-2.6934-4.58-2.6934-3.691 0-6.043 2.8437-6.043 7.3691 0 4.4844 2.365 7.3008 5.975 7.3008 2.05 0 3.746-1.0254 4.552-2.584h.055v2.3653c0 1.9687-1.367 3.2812-3.678 3.2812-1.681 0-2.994-.793-3.418-1.9961h-2.966c.369 2.4883 2.884 4.293 6.275 4.293zm9.68-5.4141h2.953v-8.3808c0-2.2285 1.34-3.7051 3.418-3.7051 2.051 0 3.062 1.1894 3.062 3.3496v8.7363h2.967v-9.3105c0-3.2949-1.818-5.3184-4.99-5.3184-2.215 0-3.746 1.0117-4.526 2.6524h-.068v-2.4063h-2.816z" fill="#000"/></svg>