<svg fill="none" height="33" viewBox="0 0 107 33" width="107" xmlns="http://www.w3.org/2000/svg" xmlns:xlink="http://www.w3.org/1999/xlink"><clipPath id="a"><path d="m.330566.869629h106.667v32h-106.667z"/></clipPath><g clip-path="url(#a)" fill="#4097e1"><path d="m54.7959 22.2977c-.667 1.0598-2.6424-3.231-4.2329-.9046-.2822.4135-1.4623 4.084 1.0261 5.1696 2.8733 1.2407 4.7716-1.8094 5.9004-8.1939.0513-.3102.0256 3.4637.1796 3.3603.1539-.1034.3335-.1293.513-.0517.1796.0775.3079.2326.4105.4394s.1283.517.1026.8788c-.0769.4136-.2052.9047-.3848 1.4734-.1796.5686-2.1806 4.2132-6.003 4.1874-3.8993-.0259-5.8747-4.2391-6.0543-4.9112-.2052-.6462-.2822-1.2924-.2822-1.9127 0-.6204.1027-1.189.2822-1.706.1796-.517.3848-.8788.6157-1.0856s1.3084-2.1713 5.336-1.1373c3.8481 1.0339 2.8476 3.9547 2.5911 4.3941z"/><path d="m64.3392 10.7436s-3.2067 13.4669-3.2837 14.0097c-.1539 1.2924-.1796 1.9903.8722 2.3264 1.4879.5169 2.8219-1.9387 2.8219-1.9387 1.7958-3.7738.9749-4.084 3.9251-3.9547.4104.0258-.8723 1.6026-.9236 1.9644-.0256.181-.1282.5945-.3335 1.189-.1795.5946-.4617 1.2408-.8209 1.8611-.3591.6462-.8209 1.2149-1.334 1.706s-1.1031.7496-1.7188.7496c-1.257 0-2.3345-.3619-3.1811-1.0598-.8465-.6979-1.5392-1.5767-2.0523-2.6106-.5387-1.034-1.0518-2.223-1.0774-3.3603-.1796-4.1099 2.2575-12.97578 2.4884-13.26011.2565-.28433.5644-.41356.9748-.41356.3592 0 .8466.23263 1.488.43941 2.7706.90469 2.1549 2.35216 2.1549 2.35216zm29.2197 11.916c.2565-.5686.59-.7237 1.0518-.5169.4617.2067.6413.672.5387 1.3441-.0513.4652-.1796.9563-.3592 1.4733-.1795.517-1.1031 3.4895-3.848 3.4895-2.4884 0-4.0533-3.2827-4.3612-3.8255-.2822-.517-.5387-1.1115-.7183-1.7577-.2052-.6462-.3078-1.2149-.3591-1.7577-.0513-.5169-.0257-.9564.0513-1.3182.0769-.3361.2565-.4911.513-.4653.2566.0517.5388.1551.8723.2585.3078.1034.6157.2326.9235.3619.3079.1292.5644.3101.8209.4911.2566.1809.4361.4135.5644.6462.1283.2585.2309.6203.3079 1.0856l.2308 1.4733c.077.4912.1796.9564.2566 1.3442.0769.4135.2309.6462.4105.7495.1282.0517.3334.0259.59-.1292.2565-.1292.5387-.3619.8209-.6203.2822-.2844.59-.6204.8979-1.034.3078-.336.59-.7754.7953-1.2924z"/><path d="m55.1294 14.0262c1.7958-.1292 3.5659-.2843 5.2847-.4911 1.7188-.1809.4361-.1034 1.8214-.2843s2.5397-.336 3.4376-.4653c.9235-.1292 1.4879-.2067 1.6932-.2067.4104-.0259.8722.0516 1.4109.2067s1.0262.3361 1.4623.5428c.4617.2068.8209.4653 1.1031.6979.2822.2585.3848.4912.2822.7238-.077.1292-.5131.2068-1.3597.2585-.8465.0517-1.9497.1034-3.3093.1292-1.3853.0517-2.9758.0776-4.7973.1293-1.8214.0517 3.0272-.4395-2.9245-.1293-5.926.336-4.1046-1.1115-4.1046-1.1115zm-16.1619 4.1616c.4618 0 .9235.1292 1.3597.3619.4361.2326.7183.5686.8465.9822.9236.2068 1.6162.6462 2.1036 1.2924.4875.6462.744 1.3958.821 2.1971.8722.1034 2.514-.853 2.514-2.7658 0-.4135.4618 1.2149.3079 2.4039-.0513.3102-.8722 2.6107-3.2837 2.8692-.4361.0517-.6157.4652-.8209.9305-.1539.336-1.3084 2.1454-4.2072 2.1454-1.7702 0-3.0272-1.6284-3.489-2.1971-.4617-.5945-.7183-1.2407-.7183-1.9386-.0513-.6979.0257-1.3958.2309-2.1196.2052-.7237.4874-1.4216.8979-2.0161.3848-.6204.8722-1.1115 1.4623-1.525.5644-.4136 1.2057-.6204 1.9753-.6204zm-1.1288 8.6333c.3079.4135.8466.4135 1.5649 0 .7183-.4136 1.3853-1.0339 2.001-1.8869-.6157-.3878-1.1801-.9306-1.6931-1.6285-.5131-.672-.9236-1.4733-1.2058-2.378-.667 1.1632-1.0774 2.3005-1.2313 3.412-.154 1.1631.0513 1.9903.5643 2.4814zm32.6573-8.6333c.4618 0 .9236.1292 1.3597.3619.4361.2326.7183.5686.8465.9822.9236.2068 1.6162.6462 2.1037 1.2924.4874.6462.7439 1.3958.8209 2.1971.8722.1034 2.5141-.853 2.5141-2.7658 0-.4135.4617 1.2149.3078 2.4039-.0513.3102-.8722 2.6107-3.2837 2.8692-.4361.0517-.6157.4652-.8209.9305-.1539.336-1.3084 2.1454-4.2072 2.1454-1.7701 0-3.0272-1.6284-3.489-2.1971-.4617-.5945-.7183-1.2407-.7183-1.9386-.0513-.6979.0257-1.3958.2309-2.1196.2053-.7237.4874-1.4216.8979-2.0161.3848-.6204.8722-1.1115 1.4623-1.525.5644-.4136 1.2314-.6204 1.9753-.6204zm-1.1031 8.6333c.3079.4135.8466.4135 1.5649 0 .7183-.4136 1.3853-1.0339 2.001-1.8869-.6157-.3878-1.1801-.9306-1.6932-1.6285-.513-.672-.9235-1.4733-1.2057-2.378-.667 1.1632-1.0775 2.3005-1.2314 3.412-.1539 1.1631.0257 1.9903.5644 2.4814z"/><path d="m87.0171 22.1943c-.2822-.1809-1.5392-3.0501-1.4366-2.378.1539 1.1115-2.5397 7.2116-4.5664 6.1777-2.1036-1.0856-1.3083-4.4976-1.18-4.6785.5387-.8789 4.1302-5.2472 5.6181-13.93217.154-.85299.4875-4.1874-2.9501-4.78191-3.6942-.62035-4.5151 1.26656-4.8743 2.06785-1.4366 3.28272-.9492 14.96603.2822 19.87723.2822 1.1115 1.7445 3.9031 3.6942 3.9031 3.1297 0 4.7203-3.2052 4.9512-3.7222.2565-.5169.4617-1.008.667-1.525.1282-.4653.0769-.8271-.2053-1.0081zm-6.7469-10.6753c.0513-.9047.1026-1.80934.1539-2.68818.0513-.87883.1539-1.65428.2822-2.35218s.3078-1.24071.5387-1.65428.5131-.5945.8466-.56866c.5131.0517.8466.38773 1.0261 1.03393.1796.6462.2309 1.44749.1796 2.42972-.0513.95638-.2052 2.01616-.4617 3.17935-.2566 1.1631-.5131 2.2746-.7953 3.3602-.4105 1.6026-1.3597 3.5671-1.5649 3.929-.1283-3.3086-.2565-4.937-.2052-6.6689z"/><path d="m106.924 22.246c-.128-.0259-.256 0-.384.0775-.129.0776-.257.181-.36.3102-.23.4394-.538.6979-.923.8272-.385.1034-.872.0775-1.488-.0776 0-.3619-.077-.7496-.205-1.1115-.128-.3618-.334-.6979-.616-.9822-.282-.336-.693-.5945-1.206-.7496s-.949-.2326-1.282-.2326c-.359.0258-.6417.1292-.8726.336-.2308.1809-.3848.4136-.4361.6979s-.0256.5945.077.9305c.1026.3361.3078.6979.59 1.034-.0256.2843-.0769.6203-.1539 1.0339s-.1796.7754-.3078 1.1115c-.1283.336-.3079.6203-.4875.853-.1795.2067-.3848.2584-.667.1033-.2565-.155-.4617-.4394-.59-.8271s-.2309-.8013-.3078-1.2407c-.077-.4911-.1283-1.0339-.1283-1.5767.59-.853 1.1544-1.8094 1.7188-2.895.5644-1.0857 1.0775-2.223 1.5392-3.4378.462-1.1891.872-2.4039 1.231-3.5929.36-1.189.616-2.3264.796-3.38613.179-1.05978.256-2.01616.205-2.86915-.051-.85298-.231-1.52504-.564-2.042-.283-.43942-.744-.82714-1.334-1.13732-.591-.33602-1.2319-.56866-1.8476-.74959-.6413-.18094-1.2313-.28433-1.7957-.31018s-.9749.02585-1.2057.12924c-.7953.33603-1.411 1.05977-1.8984 2.17124-.4875 1.11147-.8209 2.40388-1.0262 3.87723-.2052 1.47334-.3335 3.05006-.3591 4.73016-.0257 1.6802.0256 3.2828.1795 4.7561.1283 1.4992.3079 2.7916.5388 3.9289.2309 1.1115.4617 1.8869.7439 2.3005.3592.517 2.668 4.2391 5.8748 4.2391 3.0017 0 3.9247-3.6446 3.2067-3.748 2.565.3619 3.874-2.4556 3.745-2.4814zm-10.1841-10.5719c.0513-.9047.1026-1.80936.1539-2.6882.0513-.87883.1796-1.65428.3079-2.35218.1539-.6979.3591-1.24071.6156-1.65428.2566-.41357.5644-.59451.9236-.56866.5644.0517.9492.38772 1.1287 1.03393.1794.6462.2564 1.44749.1794 2.42972-.0511.95638-.2307 2.01616-.5129 3.17937-.2821 1.1631-.5644 2.2746-.8722 3.3602s-.6413 2.042-1.0005 2.895c-.3591.853-.667 1.4733-.8979 1.8352-.0769-2.8174-.1026-5.2988-.0256-7.4701zm4.7971 10.8045c-.102-.0775-.205-.1809-.282-.2585-.103-.0775-.18-.1809-.231-.2584-.077-.0776-.103-.1551-.128-.2068-.026-.0776-.026-.1293.025-.1551.052-.0517.129-.0775.231-.0259.103.0517.206.1034.308.2068.103.1034.205.2068.308.3361.103.1292.205.2843.308.4135.102.1293.179.2585.231.3619.051.1292.102.2068.128.2585-.359-.2327-.641-.4653-.898-.6721zm-12.1598-8.0646c0 1.0339-.7952 1.8869-1.7957 1.8869s-1.7958-.853-1.7958-1.8869.7953-1.8869 1.7958-1.8869 1.7957.8271 1.7957 1.8869zm-84.81141 2.5848s-.02565.0776-.10261.2327c-.07696.155-.15393.3618-.25654.6203-.20523.5428-.48742 1.3441-.61569 2.3005-.05131.4911-.10262 1.0081-.07696 1.5509 0 .2843.02565.5686.07696.853.02565.1551.02565.2843.05131.336.02565.1034.05131.2068.10261.336.30785.9047 1.25704 1.9903 2.56538 2.9467 1.30835.9564 2.95019 1.8611 4.74595 2.7399 1.7958.853 3.8481 1.6801 6.08 2.0162 1.1287.1551 2.2831.1809 3.4376.0258.5643-.0775 1.1544-.2068 1.7188-.3619.5643-.1809 1.1031-.3877 1.6418-.6462 1.0518-.5169 2.001-1.2407 2.7963-2.0937.7696-.8529 1.3853-1.861 1.847-2.9208.2309-.517.4105-1.0598.5901-1.6026.1539-.5428.2822-1.0856.4361-1.7318.0256-.1551.077-.3102.1026-.4653l.1026-.4394c.0513-.2843.1283-.5686.1796-.853.0513-.2843.1283-.5945.1796-.8788l.1539-.853c.3848-2.3005.4618-4.5493.1026-6.462-.1796-.9564-.4874-1.80941-.8722-2.53316-.2052-.36187-.4361-.6979-.667-1.03392-.2565-.31018-.5131-.62036-.8209-.87884-1.2058-1.08562-2.8219-1.83522-4.4381-2.30048-1.6419-.46527-3.2581-.72375-4.7203-.87884-1.4623-.15509-2.7706-.20679-3.8738-.23264-1.0774-.02584-1.9496-.02584-2.5397-.02584h-1.1288l-.0769-.31018.2052-.10339s.2822-.15509.8466-.38773c.5644-.23263 1.3853-.56865 2.4884-.87883 1.0775-.33603 2.4371-.64621 4.0277-.87884 1.5905-.206785 3.4376-.336026 5.5155-.07754 1.0262.12924 2.1293.33602 3.2581.74959.2821.10339.5643.20679.8465.33603s.5644.25848.8466.41357c.5644.28433 1.1288.6462 1.6418 1.05977.5388.41357 1.0262.90469 1.5136 1.42165.4618.54281.8722 1.13732 1.2057 1.75767.3335.64621.6414 1.29241.821 1.99031.1282.33603.1795.6979.2822 1.03393.0769.33601.1282.69791.1795 1.03391.1796 1.3958.154 2.7658 0 4.1099-.1539 1.3441-.4361 2.6623-.7696 3.9289-.1026.3102-.1795.6462-.2822.9564l-.3078.9305c-.1026.3102-.2309.6204-.3592.9305l-.1795.4653c-.0513.1551-.1283.2843-.1796.4394l-.3848.9047-.4618.9305c-.3335.6204-.6926 1.2149-1.1288 1.7577-.8209 1.1115-1.8214 2.1196-2.8988 2.9208-1.0775.8272-2.2576 1.4734-3.4633 1.9645-.3078.1292-.6157.2326-.8979.336-.3078.1034-.6157.2068-.9235.2844-.6157.1809-1.2314.336-1.8471.4394-1.2314.2585-2.4884.4135-3.7198.4911-2.4628.1551-4.9255.0258-7.18306-.5428-2.25753-.5687-4.30983-1.6026-5.95168-2.9984-.84657-.6721-1.56488-1.4475-2.18057-2.3005-.59004-.853-1.077458-1.8352-1.282689-2.895-.051307-.2585-.07696-.5169-.102613-.8013-.025654-.3101-.025657-.5428.025651-.7496.025654-.2067.05131-.4135.102618-.6203.025653-.2068.076961-.3877.128269-.5945.20523-.7755.487424-1.4217.820924-1.9903.66699-1.1115 1.41096-1.7577 1.94969-2.1196.12827-.1034.25653-.1809.35915-.2326.10261-.0776.20523-.1034.25654-.1551.15392-.0775.23088-.1034.23088-.1034l.20523-.1034.20523.1809z"/><path d="m19.2654 8.90836c-.9492 4.83364-1.8727 9.64134-2.8219 14.47494-.3079 1.5768 2.9502-.2585 3.181-1.3182.9492-4.8336 1.8728-9.6414 2.822-14.475.2821-1.60258-2.9759.23264-3.1811 1.31826z"/></g></svg>