<svg width="388" height="43" viewBox="0 0 388 43" fill="none" xmlns="http://www.w3.org/2000/svg">
<path fill-rule="evenodd" clip-rule="evenodd" d="M4.70531 34.2947C2.96482 34.2947 1.44853 33.3473 0.634511 31.942C0.233383 32.6346 0 33.4367 0 34.2947C0 36.8934 2.10657 39 4.70531 39H9.41062V34.2947H4.70531Z" fill="#000000"/>
<path fill-rule="evenodd" clip-rule="evenodd" d="M25.8745 9.445L42.3478 8.41548V6.06282C42.3478 3.46408 40.241 1.35751 37.6425 1.35751H16.4686L15.8804 0.338815C15.8206 0.235764 15.7348 0.150225 15.6316 0.0907617C15.5284 0.0312988 15.4114 0 15.2922 0C15.1731 0 15.0561 0.0312988 14.9528 0.0907617C14.8496 0.150225 14.7638 0.235764 14.7041 0.338815L14.1159 1.35751L13.5277 0.338815C13.468 0.235764 13.3822 0.150225 13.279 0.0907617C13.1757 0.0312988 13.0587 0 12.9396 0C12.8204 0 12.7034 0.0312988 12.6002 0.0907617C12.497 0.150225 12.4112 0.235764 12.3514 0.338815L11.7632 1.35751L11.1751 0.338815C11.1153 0.235764 11.0295 0.150225 10.9263 0.0907617C10.8231 0.0312988 10.706 0 10.5869 0C10.4678 0 10.3508 0.0312988 10.2475 0.0907617C10.1443 0.150225 10.0585 0.235764 9.99875 0.338815L9.41059 1.35751C9.40541 1.35751 9.40047 1.35822 9.39529 1.35822L8.42082 0.384221C8.33642 0.300187 8.23143 0.239798 8.11635 0.209098C8.00128 0.178398 7.88015 0.178466 7.76511 0.209293C7.65007 0.24012 7.54514 0.300626 7.46084 0.384753C7.37653 0.468881 7.3158 0.573678 7.28473 0.688655L6.96288 1.88945L5.74115 1.56196C5.62602 1.53137 5.50487 1.53157 5.38984 1.56253C5.27481 1.59349 5.16993 1.65413 5.08571 1.73837C5.00149 1.82262 4.94088 1.92751 4.90995 2.04255C4.87902 2.15759 4.87886 2.27874 4.90949 2.39386L5.23886 3.61559L4.0383 3.9372C3.92326 3.96822 3.81839 4.02893 3.7342 4.11324C3.65 4.19755 3.58945 4.30251 3.55859 4.41759C3.52773 4.53268 3.52766 4.65385 3.55838 4.76897C3.5891 4.88409 3.64954 4.98912 3.73363 5.07353L4.70528 6.048C4.70528 6.05271 4.7048 6.05788 4.7048 6.06306L3.6861 6.65122C3.58305 6.71099 3.49751 6.79678 3.43805 6.9C3.37859 7.00323 3.34729 7.12026 3.34729 7.23939C3.34729 7.35851 3.37859 7.47555 3.43805 7.57877C3.49751 7.682 3.58305 7.76779 3.6861 7.82755L4.70528 8.41548L3.68658 9.00364C3.58353 9.06341 3.49799 9.1492 3.43852 9.25242C3.37906 9.35565 3.34776 9.47268 3.34776 9.59181C3.34776 9.71093 3.37906 9.82797 3.43852 9.93119C3.49799 10.0344 3.58353 10.1202 3.68658 10.18L4.70528 10.7681L3.68658 11.3563C3.58353 11.4161 3.49799 11.5019 3.43852 11.6051C3.37906 11.7083 3.34776 11.8253 3.34776 11.9445C3.34776 12.0636 3.37906 12.1806 3.43852 12.2838C3.49799 12.3871 3.58353 12.4729 3.68658 12.5326L4.70528 13.1208L3.68658 13.709C3.58353 13.7687 3.49799 13.8545 3.43852 13.9577C3.37906 14.061 3.34776 14.178 3.34776 14.2971C3.34776 14.4162 3.37906 14.5333 3.43852 14.6365C3.49799 14.7397 3.58353 14.8255 3.68658 14.8853L4.70528 15.4734L3.68658 16.0616C3.58353 16.1214 3.49799 16.2072 3.43852 16.3104C3.37906 16.4136 3.34776 16.5306 3.34776 16.6498C3.34776 16.7689 3.37906 16.8859 3.43852 16.9892C3.49799 17.0924 3.58353 17.1782 3.68658 17.2379L4.70528 17.8261L3.68658 18.4143C3.58353 18.474 3.49799 18.5598 3.43852 18.663C3.37906 18.7663 3.34776 18.8833 3.34776 19.0024C3.34776 19.1216 3.37906 19.2386 3.43852 19.3418C3.49799 19.445 3.58353 19.5308 3.68658 19.5906L4.70528 20.1788L3.68658 20.7669C3.58353 20.8267 3.49799 20.9125 3.43852 21.0157C3.37906 21.1189 3.34776 21.236 3.34776 21.3551C3.34776 21.4742 3.37906 21.5912 3.43852 21.6945C3.49799 21.7977 3.58353 21.8835 3.68658 21.9432L4.70528 22.5314L3.68658 23.1196C3.58353 23.1793 3.49799 23.2651 3.43852 23.3684C3.37906 23.4716 3.34776 23.5886 3.34776 23.7077C3.34776 23.8269 3.37906 23.9439 3.43852 24.0471C3.49799 24.1504 3.58353 24.2361 3.68658 24.2959L4.70528 24.8841L3.68658 25.4722C3.58353 25.532 3.49799 25.6178 3.43852 25.721C3.37906 25.8242 3.34776 25.9413 3.34776 26.0604C3.34776 26.1795 3.37906 26.2966 3.43852 26.3998C3.49799 26.503 3.58353 26.5888 3.68658 26.6486L4.70528 27.2367L3.68658 27.8249C3.58353 27.8847 3.49799 27.9704 3.43852 28.0737C3.37906 28.1769 3.34776 28.2939 3.34776 28.4131C3.34776 28.5322 3.37906 28.6492 3.43852 28.7524C3.49799 28.8557 3.58353 28.9415 3.68658 29.0012L4.70528 29.5894L3.68658 30.1775C3.58353 30.2373 3.49799 30.3231 3.43852 30.4263C3.37906 30.5295 3.34776 30.6466 3.34776 30.7657C3.34776 30.8848 3.37906 31.0019 3.43852 31.1051C3.49799 31.2083 3.58353 31.2941 3.68658 31.3539L4.70528 31.942L3.68658 32.5302C3.58353 32.59 3.49799 32.6758 3.43852 32.779C3.37906 32.8822 3.34776 32.9992 3.34776 33.1184C3.34776 33.2375 3.37906 33.3545 3.43852 33.4577C3.49799 33.561 3.58353 33.6468 3.68658 33.7065L4.70528 34.2947C4.70528 36.8934 6.81184 39 9.41059 39H37.6425C40.241 39 42.3478 36.8934 42.3478 34.2947V15.4734L25.8745 14.4439C24.5546 14.3613 23.5265 13.2667 23.5265 11.9445C23.5265 10.6223 24.5546 9.52758 25.8745 9.445Z" fill="#000000"/>
<path fill-rule="evenodd" clip-rule="evenodd" d="M32.9371 29.5894V39H39.9951V29.5894H32.9371Z" fill="#000000"/>
<path fill-rule="evenodd" clip-rule="evenodd" d="M44.7004 33.1184C44.6486 33.1184 44.5997 33.1271 44.5498 33.1335L44.5225 33.0276C44.9474 32.8502 45.246 32.4315 45.246 31.9423C45.246 31.6304 45.122 31.3312 44.9014 31.1105C44.6808 30.8899 44.3816 30.766 44.0696 30.766C43.8127 30.7669 43.5633 30.8526 43.3601 31.0097L43.2813 30.9307C43.4288 30.734 43.5165 30.4926 43.5165 30.228C43.5164 29.9569 43.4226 29.6943 43.2512 29.4844C43.0797 29.2745 42.841 29.1303 42.5754 29.0761C42.3099 29.0219 42.0338 29.061 41.7937 29.187C41.5537 29.3129 41.3646 29.5178 41.2582 29.7671L41.1535 29.74C41.1599 29.693 41.1686 29.6412 41.1686 29.5894C41.1686 29.2775 41.0447 28.9783 40.824 28.7577C40.6034 28.537 40.3042 28.4131 39.9923 28.4131C39.6803 28.4131 39.3811 28.537 39.1605 28.7577C38.9399 28.9783 38.8159 29.2775 38.8159 29.5894C38.8159 29.6412 38.8246 29.6901 38.831 29.74L38.7263 29.7671C38.6199 29.5178 38.4308 29.3129 38.1908 29.187C37.9508 29.061 37.6746 29.0219 37.4091 29.0761C37.1435 29.1303 36.9048 29.2745 36.7334 29.4844C36.5619 29.6943 36.4681 29.9569 36.468 30.228C36.468 30.4926 36.5583 30.7338 36.7032 30.9307C36.2548 31.3685 35.8986 31.8918 35.6558 32.4696C35.4131 33.0474 35.2886 33.668 35.2898 34.2948C35.2898 36.8935 37.3963 39.0001 39.9951 39.0001C42.1925 39.0001 44.0322 37.4944 44.5498 35.456C44.5969 35.4624 44.6486 35.4711 44.7004 35.4711C45.0124 35.4711 45.3116 35.3471 45.5322 35.1265C45.7528 34.9059 45.8767 34.6067 45.8767 34.2948C45.8767 33.9828 45.7528 33.6836 45.5322 33.463C45.3116 33.2424 45.0124 33.1184 44.7004 33.1184Z" fill="#000000"/>
<path fill-rule="evenodd" clip-rule="evenodd" d="M35.2899 20.1788V24.8841H42.3478V20.1788H35.2899Z" fill="#000000"/>
<path d="M44.7005 23.1195C44.8565 23.1195 45.0061 23.0576 45.1164 22.9473C45.2267 22.837 45.2886 22.6874 45.2886 22.5314C45.2886 22.3754 45.2267 22.2258 45.1164 22.1155C45.0061 22.0052 44.8565 21.9432 44.7005 21.9432C44.677 21.9432 44.6501 21.9479 44.6252 21.9507L44.6116 21.8978C44.737 21.8454 44.8404 21.7512 44.9042 21.6312C44.9681 21.5112 44.9884 21.3728 44.9616 21.2395C44.9349 21.1062 44.8629 20.9863 44.7578 20.9001C44.6527 20.814 44.5209 20.7669 44.385 20.7669C44.2565 20.7672 44.1317 20.81 44.0302 20.8887L43.9907 20.8492C44.0677 20.7482 44.1095 20.6248 44.1097 20.4977C44.1097 20.3622 44.0628 20.2308 43.9771 20.1258C43.8913 20.0208 43.7719 19.9487 43.6391 19.9216C43.5063 19.8945 43.3682 19.9142 43.2482 19.9772C43.1282 20.0402 43.0336 20.1427 42.9805 20.2674C42.7788 20.2109 42.5673 20.1787 42.3452 20.1787C41.0461 20.1787 39.9926 21.2322 39.9926 22.5314C39.9926 23.8305 41.0461 24.884 42.3452 24.884C42.565 24.884 42.7765 24.8516 42.9805 24.7953C43.0336 24.92 43.1282 25.0226 43.2482 25.0856C43.3682 25.1486 43.5063 25.1682 43.6391 25.1411C43.7719 25.114 43.8913 25.0419 43.9771 24.9369C44.0628 24.8319 44.1097 24.7006 44.1097 24.565C44.1097 24.4326 44.0646 24.3116 43.9907 24.2135C44.0041 24.2006 44.0173 24.19 44.0302 24.174C44.1318 24.2526 44.2565 24.2954 44.385 24.2959C44.5209 24.2959 44.6527 24.2488 44.7578 24.1626C44.8629 24.0764 44.9349 23.9565 44.9616 23.8232C44.9884 23.69 44.9681 23.5515 44.9042 23.4315C44.8404 23.3115 44.737 23.2173 44.6116 23.1649L44.6252 23.112C44.6499 23.1151 44.6723 23.1195 44.7005 23.1195Z" fill="#000000"/>
<path fill-rule="evenodd" clip-rule="evenodd" d="M14.1159 9.00368C13.9599 9.00368 13.8103 8.94172 13.7 8.83142C13.5897 8.72111 13.5278 8.57151 13.5278 8.41552C13.5271 7.94774 13.341 7.4993 13.0103 7.16852C12.6795 6.83775 12.231 6.65165 11.7633 6.65103C11.2955 6.65165 10.847 6.83775 10.5163 7.16852C10.1855 7.4993 9.9994 7.94774 9.99878 8.41552C9.99878 8.57151 9.93681 8.72111 9.82651 8.83142C9.71621 8.94172 9.5666 9.00368 9.41061 9.00368C9.25462 9.00368 9.10502 8.94172 8.99472 8.83142C8.88442 8.72111 8.82245 8.57151 8.82245 8.41552C8.82245 6.79383 10.1416 5.4747 11.7633 5.4747C13.385 5.4747 14.7041 6.79383 14.7041 8.41552C14.7041 8.57151 14.6421 8.72111 14.5318 8.83142C14.4215 8.94172 14.2719 9.00368 14.1159 9.00368Z" fill="#FFFFFF"/>
<path fill-rule="evenodd" clip-rule="evenodd" d="M23.5266 39H37.6425C40.2413 39 42.3478 36.8934 42.3478 34.2947V17.8261H28.2319C25.6331 17.8261 23.5266 19.9326 23.5266 22.5314V39Z" fill="#FFFFFF"/>
<path d="M38.8236 25.1194H27.0509C26.9885 25.1194 26.9286 25.0946 26.8845 25.0505C26.8404 25.0064 26.8156 24.9465 26.8156 24.8841C26.8156 24.8217 26.8404 24.7619 26.8845 24.7178C26.9286 24.6737 26.9885 24.6489 27.0509 24.6489H38.8236C38.886 24.6489 38.9458 24.6737 38.9899 24.7178C39.034 24.7619 39.0588 24.8217 39.0588 24.8841C39.0588 24.9465 39.034 25.0064 38.9899 25.0505C38.9458 25.0946 38.886 25.1194 38.8236 25.1194Z" fill="#000000"/>
<path d="M38.8236 29.8246H27.0509C26.9885 29.8246 26.9286 29.7998 26.8845 29.7557C26.8404 29.7115 26.8156 29.6517 26.8156 29.5893C26.8156 29.5269 26.8404 29.4671 26.8845 29.4229C26.9286 29.3788 26.9885 29.354 27.0509 29.354H38.8236C38.886 29.354 38.9458 29.3788 38.9899 29.4229C39.034 29.4671 39.0588 29.5269 39.0588 29.5893C39.0588 29.6517 39.034 29.7115 38.9899 29.7557C38.9458 29.7998 38.886 29.8246 38.8236 29.8246Z" fill="#000000"/>
<path d="M38.8236 34.5299H27.0509C26.9885 34.5299 26.9286 34.5051 26.8845 34.461C26.8404 34.4169 26.8156 34.357 26.8156 34.2947C26.8156 34.2323 26.8404 34.1724 26.8845 34.1283C26.9286 34.0842 26.9885 34.0594 27.0509 34.0594H38.8236C38.886 34.0594 38.9458 34.0842 38.9899 34.1283C39.034 34.1724 39.0588 34.2323 39.0588 34.2947C39.0588 34.357 39.034 34.4169 38.9899 34.461C38.9458 34.5051 38.886 34.5299 38.8236 34.5299Z" fill="#000000"/>
<path d="M38.8236 22.8105H27.0509C26.9885 22.8105 26.9286 22.7857 26.8845 22.7416C26.8404 22.6974 26.8156 22.6376 26.8156 22.5752C26.8156 22.5128 26.8404 22.453 26.8845 22.4088C26.9286 22.3647 26.9885 22.3399 27.0509 22.3399H38.8236C38.886 22.3399 38.9458 22.3647 38.9899 22.4088C39.034 22.453 39.0588 22.5128 39.0588 22.5752C39.0588 22.6376 39.034 22.6974 38.9899 22.7416C38.9458 22.7857 38.886 22.8105 38.8236 22.8105Z" fill="#000000"/>
<path d="M38.8236 27.472H27.0509C26.9885 27.472 26.9286 27.4472 26.8845 27.4031C26.8404 27.3589 26.8156 27.2991 26.8156 27.2367C26.8156 27.1743 26.8404 27.1145 26.8845 27.0703C26.9286 27.0262 26.9885 27.0014 27.0509 27.0014H38.8236C38.886 27.0014 38.9458 27.0262 38.9899 27.0703C39.034 27.1145 39.0588 27.1743 39.0588 27.2367C39.0588 27.2991 39.034 27.3589 38.9899 27.4031C38.9458 27.4472 38.886 27.472 38.8236 27.472Z" fill="#000000"/>
<path d="M38.8236 32.1773H27.0509C26.9885 32.1773 26.9286 32.1526 26.8845 32.1084C26.8404 32.0643 26.8156 32.0045 26.8156 31.9421C26.8156 31.8797 26.8404 31.8198 26.8845 31.7757C26.9286 31.7316 26.9885 31.7068 27.0509 31.7068H38.8236C38.886 31.7068 38.9458 31.7316 38.9899 31.7757C39.034 31.8198 39.0588 31.8797 39.0588 31.9421C39.0588 32.0045 39.034 32.0643 38.9899 32.1084C38.9458 32.1526 38.886 32.1773 38.8236 32.1773Z" fill="#000000"/>
<path fill-rule="evenodd" clip-rule="evenodd" d="M42.3478 10.4388C42.345 10.4388 42.3426 10.4374 42.3398 10.4376C41.6105 10.4623 41.2689 11.1895 40.9654 11.8311C40.6487 12.5016 40.4038 12.9375 40.0025 12.9243C39.5554 12.9083 39.3037 12.4063 39.0348 11.8751C38.7257 11.265 38.3728 10.5729 37.6319 10.5987C36.9153 10.6232 36.5702 11.2561 36.2657 11.8144C35.9418 12.4091 35.7213 12.7707 35.2964 12.754C34.8431 12.7375 34.6024 12.3294 34.3234 11.8569C34.0128 11.3309 33.6533 10.7394 32.9268 10.7597C32.2225 10.7839 31.8764 11.3208 31.571 11.7948C31.248 12.2959 31.0217 12.6013 30.5911 12.583C30.1269 12.5665 29.8872 12.2301 29.6101 11.8355C29.2986 11.3949 28.9476 10.8961 28.2232 10.918C27.5343 10.9415 27.188 11.3815 26.8831 11.7692C26.5933 12.1371 26.3669 12.4284 25.8879 12.4101C25.8255 12.4078 25.7648 12.4304 25.7191 12.473C25.6734 12.5155 25.6464 12.5745 25.6442 12.6368C25.6419 12.6992 25.6646 12.76 25.7071 12.8057C25.7496 12.8514 25.8086 12.8783 25.871 12.8806C26.5808 12.9041 26.9403 12.4571 27.2525 12.0602C27.5294 11.7083 27.7684 11.4045 28.2389 11.3885C28.6921 11.3692 28.9047 11.6509 29.2259 12.1049C29.531 12.5364 29.8776 13.0257 30.574 13.0507C31.304 13.0751 31.6552 12.5296 31.9663 12.0468C32.2443 11.6153 32.4843 11.2429 32.9426 11.2271C33.3644 11.2114 33.5943 11.5447 33.9178 12.0929C34.2229 12.6098 34.5685 13.1954 35.2793 13.2212C36.0145 13.2467 36.3695 12.6049 36.6791 12.0367C36.9473 11.5455 37.2 11.0815 37.6484 11.066C38.0702 11.0561 38.2902 11.4412 38.613 12.0847C38.9169 12.6853 39.2616 13.3657 39.9834 13.3918L40.0234 13.3925C40.7442 13.3925 41.0863 12.6691 41.3891 12.0294C41.6573 11.4648 41.9107 10.9284 42.3459 10.9065L42.3478 10.4388Z" fill="#000000"/>
<path fill-rule="evenodd" clip-rule="evenodd" d="M18.8212 29.5894V39H28.2318V29.5894H18.8212Z" fill="#000000"/>
<path fill-rule="evenodd" clip-rule="evenodd" d="M32.9372 33.1184C32.8855 33.1184 32.8365 33.1271 32.7866 33.1335L32.7594 33.0276C33.1842 32.8502 33.4828 32.4315 33.4828 31.9423C33.4828 31.6304 33.3589 31.3312 33.1383 31.1105C32.9177 30.8899 32.6184 30.766 32.3065 30.766C32.0496 30.7669 31.8001 30.8526 31.5969 31.0097L31.5181 30.9307C31.6656 30.734 31.7534 30.4926 31.7534 30.228C31.7532 29.9569 31.6595 29.6943 31.488 29.4844C31.3165 29.2745 31.0778 29.1303 30.8122 29.0761C30.5467 29.0219 30.2706 29.061 30.0306 29.187C29.7906 29.3129 29.6014 29.5178 29.495 29.7671L29.3903 29.74C29.3967 29.693 29.4054 29.6412 29.4054 29.5894C29.4054 29.2775 29.2815 28.9783 29.0609 28.7577C28.8403 28.537 28.5411 28.4131 28.2291 28.4131C27.9171 28.4131 27.6179 28.537 27.3973 28.7577C27.1767 28.9783 27.0527 29.2775 27.0527 29.5894C27.0527 29.6412 27.0615 29.6901 27.0678 29.74L26.9631 29.7671C26.8568 29.5178 26.6676 29.3129 26.4276 29.187C26.1876 29.061 25.9115 29.0219 25.6459 29.0761C25.3804 29.1303 25.1417 29.2745 24.9702 29.4844C24.7987 29.6943 24.705 29.9569 24.7048 30.228C24.7048 30.4926 24.7951 30.7338 24.9401 30.9307C24.4916 31.3685 24.1354 31.8918 23.8927 32.4696C23.6499 33.0474 23.5254 33.668 23.5266 34.2948C23.5266 36.8935 25.6332 39.0001 28.2319 39.0001C30.4293 39.0001 32.2691 37.4944 32.7866 35.456C32.8337 35.4624 32.8855 35.4711 32.9372 35.4711C33.2492 35.4711 33.5484 35.3471 33.769 35.1265C33.9896 34.9059 34.1135 34.6067 34.1135 34.2948C34.1135 33.9828 33.9896 33.6836 33.769 33.463C33.5484 33.2424 33.2492 33.1184 32.9372 33.1184Z" fill="#000000"/>
<path fill-rule="evenodd" clip-rule="evenodd" d="M18.8212 20.1788V24.8841H28.2318V20.1788H18.8212Z" fill="#000000"/>
<path d="M30.5845 23.1195C30.7405 23.1195 30.8901 23.0576 31.0004 22.9473C31.1107 22.837 31.1726 22.6874 31.1726 22.5314C31.1726 22.3754 31.1107 22.2258 31.0004 22.1155C30.8901 22.0052 30.7405 21.9432 30.5845 21.9432C30.561 21.9432 30.5341 21.9479 30.5092 21.9507L30.4956 21.8978C30.621 21.8454 30.7244 21.7512 30.7882 21.6312C30.8521 21.5112 30.8724 21.3728 30.8457 21.2395C30.819 21.1062 30.7469 20.9863 30.6418 20.9001C30.5367 20.814 30.4049 20.7669 30.269 20.7669C30.1405 20.7672 30.0158 20.81 29.9142 20.8887L29.8747 20.8492C29.9517 20.7482 29.9935 20.6248 29.9937 20.4977C29.9937 20.3622 29.9468 20.2308 29.8611 20.1258C29.7753 20.0208 29.6559 19.9487 29.5231 19.9216C29.3903 19.8945 29.2522 19.9142 29.1322 19.9772C29.0122 20.0402 28.9176 20.1427 28.8645 20.2674C28.6628 20.2109 28.4513 20.1787 28.2292 20.1787C26.9301 20.1787 25.8766 21.2322 25.8766 22.5314C25.8766 23.8305 26.9301 24.884 28.2292 24.884C28.449 24.884 28.6605 24.8516 28.8645 24.7953C28.9176 24.92 29.0122 25.0226 29.1322 25.0856C29.2522 25.1486 29.3903 25.1682 29.5231 25.1411C29.6559 25.114 29.7753 25.0419 29.8611 24.9369C29.9468 24.8319 29.9937 24.7006 29.9937 24.565C29.9937 24.4326 29.9486 24.3116 29.8747 24.2135C29.8881 24.2006 29.9013 24.19 29.9142 24.174C30.0158 24.2526 30.1405 24.2954 30.269 24.2959C30.4049 24.2959 30.5367 24.2488 30.6418 24.1626C30.7469 24.0764 30.819 23.9565 30.8457 23.8232C30.8724 23.69 30.8521 23.5515 30.7882 23.4315C30.7244 23.3115 30.621 23.2173 30.4956 23.1649L30.5092 23.112C30.5339 23.1151 30.5563 23.1195 30.5845 23.1195Z" fill="#000000"/>
<path d="M66.5975 8.2833V37.9506H73.3566C79.0656 37.9506 83.2402 36.7597 85.8804 34.3779C88.5377 31.9961 89.8664 28.2365 89.8664 23.0992C89.8664 17.9934 88.5377 14.2589 85.8804 11.8955C83.2402 9.51368 79.0656 8.32277 73.3566 8.32277H66.5975V8.2833ZM61 4.04736H72.4994C80.5171 4.04736 86.4004 5.58699 90.1492 8.66623C93.8981 11.7297 95.7725 16.5275 95.7725 23.0597C95.7725 29.6261 93.8866 34.449 90.1149 37.5282C86.3432 40.6074 80.4857 42.1471 72.5423 42.1471H61.0429V4L61 4.04736ZM116.474 16.8578C113.74 16.8578 111.578 17.8447 109.989 19.8186C108.401 21.7741 107.606 24.4625 107.606 27.8839C107.606 31.3052 108.392 34.0029 109.964 35.9767C111.552 37.9322 113.724 38.9099 116.478 38.9099C119.193 38.9099 121.344 37.923 122.933 35.9491C124.522 33.9752 125.316 31.2868 125.316 27.8839C125.316 24.4993 124.522 21.8201 122.933 19.8462C121.344 17.8566 119.193 16.8618 116.478 16.8618L116.474 16.8578ZM116.474 12.8785C120.903 12.8785 124.385 14.2049 126.919 16.8578C129.451 19.5107 130.716 23.186 130.716 27.8839C130.716 32.5633 129.451 36.2386 126.919 38.9099C124.387 41.5628 120.906 42.8892 116.474 42.8892C112.022 42.8892 108.531 41.5628 105.999 38.9099C103.484 36.2386 102.227 32.5633 102.227 27.8839C102.227 23.1887 103.484 19.5133 105.999 16.8578C108.531 14.2049 112.022 12.8785 116.474 12.8785ZM161.469 14.6668V19.0567C160.029 18.325 158.578 17.7803 157.118 17.4223C155.678 17.0486 154.221 16.8618 152.747 16.8618C149.441 16.8618 146.873 17.8316 145.045 19.7712C143.216 21.6925 142.302 24.398 142.302 27.8878C142.302 31.375 143.216 34.0884 145.045 36.0281C146.873 37.9493 149.441 38.9099 152.747 38.9099C154.224 38.9099 155.681 38.7309 157.118 38.373C158.547 37.9993 159.997 37.4466 161.469 36.715V41.0575C160.046 41.6707 158.568 42.1313 157.037 42.4392C155.523 42.7445 153.908 42.8971 152.194 42.8971C147.519 42.8971 143.805 41.5444 141.05 38.8388C138.298 36.1333 136.923 32.4843 136.923 27.8917C136.923 23.2334 138.308 19.5673 141.08 16.8933C143.869 14.222 147.683 12.8864 152.524 12.8864C154.095 12.8864 155.628 13.039 157.123 13.3443C158.62 13.6075 160.07 14.0496 161.473 14.6708L161.469 14.6668Z" fill="#000000"/>
<path d="M169.865 30.8723V13.5693H175.008V30.6946C175.008 33.4002 175.58 35.4333 176.723 36.7939C177.865 38.1098 179.583 38.7678 181.874 38.7678C184.626 38.7678 186.798 37.9598 188.389 36.3439C189.995 34.7279 190.798 32.5251 190.798 29.7353V13.5298H195.941V42.1115H190.798V37.7216C189.561 39.4586 188.12 40.7522 186.478 41.6023C184.849 42.4366 182.956 42.8537 180.799 42.8537C177.233 42.8537 174.527 41.8325 172.681 39.7902C170.835 37.7479 169.912 34.7608 169.912 30.8289L169.865 30.8723Z" fill="#000000"/>
<path d="M226.192 14.4102V18.8514C224.752 18.1672 223.256 17.6566 221.704 17.3197C220.153 16.9776 218.546 16.8065 216.883 16.8065C214.351 16.8065 212.448 17.1644 211.174 17.8803C209.916 18.5962 209.288 19.6686 209.288 21.0977C209.288 22.1873 209.741 23.0466 210.646 23.6756C211.552 24.2888 213.372 24.8757 216.107 25.4363L217.851 25.8311C221.471 26.5469 224.039 27.5602 225.553 28.8708C227.088 30.1867 227.855 31.9988 227.855 34.3069C227.855 36.9598 226.709 39.0613 224.417 40.6114C222.146 42.1589 219.003 42.9327 214.988 42.9327C213.325 42.9327 211.589 42.7801 209.781 42.4748C207.989 42.2116 206.096 41.7694 204.102 41.1483V36.2531C205.987 37.1558 207.845 37.8362 209.673 38.2941C211.502 38.7363 213.312 38.9573 215.104 38.9573C217.504 38.9573 219.351 38.5836 220.646 37.8362C221.94 37.0466 222.587 35.9741 222.587 34.6187C222.587 33.3423 222.116 32.3646 221.173 31.6856C220.25 31.0013 218.207 30.346 215.044 29.7196L213.269 29.3367C210.112 28.7234 207.83 27.8023 206.425 26.5732C204.996 25.2968 204.282 23.5532 204.282 21.3425C204.282 18.658 205.316 16.5828 207.385 15.1169C209.453 13.6536 212.391 12.9219 216.197 12.9219C218.083 12.9219 219.854 13.0496 221.511 13.3049C223.174 13.5602 224.707 13.9549 226.11 14.4892L226.192 14.4102Z" fill="#000000"/>
<path d="M250.103 27.7813C245.983 27.7813 243.129 28.2155 241.54 29.084C239.951 29.9525 239.157 31.4329 239.157 33.5253C239.157 35.1938 239.748 36.5203 240.931 37.5046C242.131 38.4731 243.757 38.9573 245.809 38.9573C248.666 38.9573 250.929 38.0388 252.598 36.2018C254.312 34.3464 255.169 31.8882 255.169 28.8274V27.7813H250.103ZM260.274 25.8074V42.1116H255.131V37.7691C253.968 39.5061 252.518 40.7904 250.781 41.6221C249.043 42.4116 246.919 42.8064 244.407 42.8064C241.23 42.8064 238.701 41.9905 236.821 40.3588C234.955 38.7086 234.022 36.5058 234.022 33.7503C234.022 30.5342 235.187 28.1103 237.515 26.4785C239.858 24.8468 243.35 24.0309 247.99 24.0309H255.139V23.573C255.139 21.4149 254.364 19.7476 252.812 18.5712C251.278 17.379 249.116 16.7829 246.327 16.7829C244.556 16.7829 242.841 16.9802 241.184 17.375C239.504 17.7698 237.89 18.3567 236.341 19.1357V14.7932C238.207 14.13 240.017 13.6365 241.771 13.3128C243.526 12.9706 245.234 12.7996 246.897 12.7996C251.383 12.7996 254.737 13.8721 256.957 16.017C259.174 18.1619 260.283 21.4123 260.283 25.7679L260.274 25.8074Z" fill="#000000"/>
<path d="M270.321 30.8723V13.5693H275.464V30.6946C275.464 33.4002 276.035 35.4333 277.178 36.7939C278.321 38.1098 280.039 38.7678 282.33 38.7678C285.082 38.7678 287.253 37.9598 288.845 36.3439C290.451 34.7279 291.254 32.5251 291.254 29.7353V13.5298H296.397V42.1115H291.254V37.7216C290.016 39.4586 288.576 40.7522 286.933 41.6023C285.305 42.4366 283.412 42.8537 281.254 42.8537C277.688 42.8537 274.982 41.8325 273.137 39.7902C271.291 37.7479 270.368 34.7608 270.368 30.8289L270.321 30.8723Z" fill="#000000"/>
<path d="M324.805 17.9553C324.233 17.65 323.605 17.4289 322.919 17.2921C322.253 17.1394 321.514 17.0631 320.703 17.0631C317.823 17.0631 315.605 17.9316 314.051 19.6686C312.517 21.3872 311.749 23.8611 311.749 27.0904V42.1471H306.623V13.5654H311.749V18.0066C312.821 16.2696 314.215 14.9853 315.933 14.1536C317.647 13.3035 319.733 12.8785 322.19 12.8785C322.542 12.8785 322.93 12.9048 323.356 12.9574C323.785 12.9916 324.256 13.0509 324.77 13.1351L324.796 17.9592L324.805 17.9553Z" fill="#000000"/>
<path d="M329.682 30.8723V13.5693H334.825V30.6946C334.825 33.4002 335.397 35.4333 336.54 36.7939C337.683 38.1098 339.4 38.7678 341.692 38.7678C344.443 38.7678 346.615 37.9598 348.206 36.3439C349.812 34.7279 350.615 32.5251 350.615 29.7353V13.5298H355.758V42.1115H350.615V37.7216C349.378 39.4586 347.938 40.7522 346.295 41.6023C344.666 42.4366 342.773 42.8537 340.616 42.8537C337.05 42.8537 334.344 41.8325 332.498 39.7902C330.652 37.7479 329.729 34.7608 329.729 30.8289L329.682 30.8723Z" fill="#000000"/>
<path d="M386.009 14.4102V18.8514C384.569 18.1672 383.073 17.6566 381.521 17.3197C379.97 16.9776 378.363 16.8065 376.7 16.8065C374.168 16.8065 372.265 17.1644 370.991 17.8803C369.733 18.5962 369.105 19.6686 369.105 21.0977C369.105 22.1873 369.558 23.0466 370.463 23.6756C371.369 24.2888 373.189 24.8757 375.924 25.4363L377.668 25.8311C381.289 26.5469 383.856 27.5602 385.37 28.8708C386.905 30.1867 387.672 31.9988 387.672 34.3069C387.672 36.9598 386.526 39.0613 384.234 40.6114C381.963 42.1589 378.82 42.9327 374.805 42.9327C373.142 42.9327 371.406 42.7801 369.598 42.4748C367.806 42.2116 365.913 41.7694 363.919 41.1483V36.2531C365.805 37.1558 367.662 37.8362 369.491 38.2941C371.319 38.7363 373.129 38.9573 374.921 38.9573C377.321 38.9573 379.168 38.5836 380.463 37.8362C381.757 37.0466 382.404 35.9741 382.404 34.6187C382.404 33.3423 381.933 32.3646 380.99 31.6856C380.067 31.0013 378.024 30.346 374.861 29.7196L373.086 29.3367C369.929 28.7234 367.648 27.8023 366.242 26.5732C364.813 25.2968 364.099 23.5532 364.099 21.3425C364.099 18.658 365.133 16.5828 367.202 15.1169C369.271 13.6536 372.208 12.9219 376.014 12.9219C377.9 12.9219 379.671 13.0496 381.329 13.3049C382.991 13.5602 384.524 13.9549 385.927 14.4892L386.009 14.4102Z" fill="#000000"/>
</svg>
