<svg fill="none" height="33" viewBox="0 0 158 33" width="158" xmlns="http://www.w3.org/2000/svg"><path d="m20.8926 27.8476c.7847 0 1.2555.6278 1.2555 1.2555 0 .7847-.6277 1.2555-1.2555 1.2555-.7847 0-1.2555-.6277-1.2555-1.2555 0-.6277.4708-1.2555 1.2555-1.2555zm20.5588-8.0038c-.7847 0-1.2555-.6277-1.2555-1.2555 0-.6277.6278-1.2555 1.2555-1.2555.7847 0 1.2555.6278 1.2555 1.2555 0 .6278-.6277 1.2555-1.2555 1.2555zm0-5.3358c-2.1971 0-4.0804 1.8832-4.0804 4.0803 0 .4708 0 .9417.157 1.2555l-13.3397 7.0622c-.7847-1.0985-2.0402-1.7263-3.2957-1.7263-1.5694 0-2.9818.9416-3.6095 2.1971l-11.92728-6.2775c-1.2555-.6277-2.19712-2.8248-2.04018-4.7081 0-.9416.47081-1.7263.94162-2.0402.31387-.1569.78469-.1569 1.09856 0h.15694c3.13874 1.7263 13.65354 7.0622 13.96744 7.3761.6277.3139 1.0985.4708 2.1971-.157l21.5004-11.1425c.3139-.1569.6278-.47081.6278-.94162 0-.62775-.6278-.94163-.6278-.94163-1.2555-.62775-3.1387-1.41243-4.865-2.35406-3.9235-1.88324-8.3177-3.92343-10.3579-4.86505-1.7263-.941627-2.9818-.15694-3.2957 0l-.4708.15693c-8.7885 4.39425-20.55879 10.20093-21.18654 10.51483-1.2555.7847-1.88325 2.1971-2.040183 3.9234-.156937 2.8249 1.255503 5.8067 3.452623 6.9052l12.7119 6.5914c.3139 2.0402 2.0402 3.4526 3.9234 3.4526 2.1972 0 4.0804-1.7263 4.0804-3.9234l13.9674-7.533c.7847.6278 1.5694.7847 2.511.7847 2.1972 0 4.0804-1.8833 4.0804-4.0804-.3139-1.8832-2.0402-3.6095-4.2373-3.6095z" fill="#4285fd"/><path d="m20.8926 27.8476c.7847 0 1.2555.6278 1.2555 1.2555 0 .7847-.6277 1.2555-1.2555 1.2555-.7847 0-1.2555-.6277-1.2555-1.2555 0-.6277.4708-1.2555 1.2555-1.2555zm20.5588-8.0038c-.7847 0-1.2555-.6277-1.2555-1.2555 0-.6277.6278-1.2555 1.2555-1.2555.7847 0 1.2555.6278 1.2555 1.2555 0 .6278-.6277 1.2555-1.2555 1.2555zm0-5.3358c-2.1971 0-4.0804 1.8832-4.0804 4.0803 0 .4708 0 .9417.157 1.2555l-13.3397 7.0622c-.7847-1.0985-2.0402-1.7263-3.2957-1.7263-1.5694 0-2.9818.9416-3.6095 2.1971l-11.92728-6.2775c-1.2555-.6277-2.19712-2.8248-2.04018-4.7081 0-.9416.47081-1.7263.94162-2.0402.31387-.1569.78469-.1569 1.09856 0h.15694c3.13874 1.7263 13.65354 7.0622 13.96744 7.3761.6277.3139 1.0985.4708 2.1971-.157l21.5004-11.1425c.3139-.1569.6278-.47081.6278-.94162 0-.62775-.6278-.94163-.6278-.94163-1.2555-.62775-3.1387-1.41243-4.865-2.35406-3.9235-1.88324-8.3177-3.92343-10.3579-4.86505-1.7263-.941627-2.9818-.15694-3.2957 0l-.4708.15693c-8.7885 4.39425-20.55879 10.20093-21.18654 10.51483-1.2555.7847-1.88325 2.1971-2.040183 3.9234-.156937 2.8249 1.255503 5.8067 3.452623 6.9052l12.7119 6.5914c.3139 2.0402 2.0402 3.4526 3.9234 3.4526 2.1972 0 4.0804-1.7263 4.0804-3.9234l13.9674-7.533c.7847.6278 1.5694.7847 2.511.7847 2.1972 0 4.0804-1.8833 4.0804-4.0804-.3139-1.8832-2.0402-3.6095-4.2373-3.6095z" fill="#545454" fill-opacity=".2"/><path d="m72.054 25.1797c-.7847.7847-1.8833 1.5694-3.2957 2.0402-1.4125.4708-2.9818.7847-4.7081.7847-2.668 0-4.8651-.7847-6.4345-2.511-1.5693-1.5694-2.511-3.9234-2.511-6.7483v-1.7263c0-2.0402.3139-3.7665 1.0986-5.1789.7847-1.5694 1.7263-2.66796 2.9818-3.45265 1.2555-.78468 2.8249-1.25549 4.5512-1.25549 2.511 0 4.5512.62775 5.9636 1.72631s2.1971 2.82483 2.511 5.17893h-4.7081c-.157-1.0986-.4708-1.8833-1.0986-2.3541-.6277-.4708-1.4124-.7846-2.354-.7846-1.2555 0-2.1972.4708-2.8249 1.5693-.6278 1.0986-.9416 2.511-1.0986 4.3943v1.2555c0 2.0402.3139 3.6095 1.0986 4.5511.6277.9417 1.7263 1.5694 3.2957 1.5694 1.2555 0 2.1971-.3139 2.8248-.7847v-3.1387h-3.4526v-3.2957h8.3177v8.1607z" fill="#4285fd"/><path d="m72.054 25.1797c-.7847.7847-1.8833 1.5694-3.2957 2.0402-1.4125.4708-2.9818.7847-4.7081.7847-2.668 0-4.8651-.7847-6.4345-2.511-1.5693-1.5694-2.511-3.9234-2.511-6.7483v-1.7263c0-2.0402.3139-3.7665 1.0986-5.1789.7847-1.5694 1.7263-2.66796 2.9818-3.45265 1.2555-.78468 2.8249-1.25549 4.5512-1.25549 2.511 0 4.5512.62775 5.9636 1.72631s2.1971 2.82483 2.511 5.17893h-4.7081c-.157-1.0986-.4708-1.8833-1.0986-2.3541-.6277-.4708-1.4124-.7846-2.354-.7846-1.2555 0-2.1972.4708-2.8249 1.5693-.6278 1.0986-.9416 2.511-1.0986 4.3943v1.2555c0 2.0402.3139 3.6095 1.0986 4.5511.6277.9417 1.7263 1.5694 3.2957 1.5694 1.2555 0 2.1971-.3139 2.8248-.7847v-3.1387h-3.4526v-3.2957h8.3177v8.1607z" fill="#545454" fill-opacity=".2"/><path d="m74.8791 27.6906h4.7081v-15.0659h-4.7081zm-.1569-18.98937c0-.62775.3138-1.2555.7847-1.72631.4708-.47082 1.0985-.62775 1.8832-.62775s1.4124.15693 1.8833.62775c.4708.47081.7846.94162.7846 1.72631 0 .62775-.3138 1.2555-.7846 1.72627-.4709.4708-1.0986.6278-1.8833.6278s-1.4124-.157-1.8832-.6278c-.6278-.47077-.7847-.94159-.7847-1.72627z" fill="#4285fd"/><path d="m74.8791 27.6906h4.7081v-15.0659h-4.7081zm-.1569-18.98937c0-.62775.3138-1.2555.7847-1.72631.4708-.47082 1.0985-.62775 1.8832-.62775s1.4124.15693 1.8833.62775c.4708.47081.7846.94162.7846 1.72631 0 .62775-.3138 1.2555-.7846 1.72627-.4709.4708-1.0986.6278-1.8833.6278s-1.4124-.157-1.8832-.6278c-.6278-.47077-.7847-.94159-.7847-1.72627z" fill="#545454" fill-opacity=".2"/><path d="m88.0618 8.85828v3.76652h2.511v3.2957h-2.511v6.9052c0 .6277.157.9416.3139 1.2555.1569.1569.6277.3139 1.2555.3139.4708 0 .7847 0 1.0986-.157v3.2957c-.7847.3139-1.7264.4708-2.668.4708-1.5694 0-2.8248-.3138-3.6095-1.0985s-1.0986-1.8833-1.0986-3.4527v-7.5329h-1.8832v-3.2957h1.8832v-3.76652z" fill="#4285fd"/><path d="m88.0618 8.85828v3.76652h2.511v3.2957h-2.511v6.9052c0 .6277.157.9416.3139 1.2555.1569.1569.6277.3139 1.2555.3139.4708 0 .7847 0 1.0986-.157v3.2957c-.7847.3139-1.7264.4708-2.668.4708-1.5694 0-2.8248-.3138-3.6095-1.0985s-1.0986-1.8833-1.0986-3.4527v-7.5329h-1.8832v-3.2957h1.8832v-3.76652z" fill="#545454" fill-opacity=".2"/><path d="m97.4781 19.0592v4.865h3.1389c.941 0 1.569-.1569 2.04-.6277s.785-.9417.785-1.7263c0-1.7264-.785-2.511-2.511-2.511zm0-3.1388h2.511c1.0989 0 1.8829-.1569 2.3539-.6277.471-.3139.628-.9417.628-1.7263 0-.7847-.314-1.4125-.785-1.8833-.471-.3139-1.255-.6277-2.3539-.6277h-2.354zm-4.8651 11.7703v-20.2449h7.3761c2.6679 0 4.5509.47081 5.9639 1.41244 1.412.94162 2.04 2.35406 2.04 4.23726 0 1.0986-.314 1.8833-.785 2.668s-1.255 1.2555-2.197 1.5694c1.099.3138 1.883.7846 2.511 1.5693s.785 1.7263.785 2.8249c0 2.0402-.628 3.4526-1.883 4.5512-1.256.9416-3.139 1.5693-5.65 1.5693z" fill="#4285fd"/><path d="m97.4781 19.0592v4.865h3.1389c.941 0 1.569-.1569 2.04-.6277s.785-.9417.785-1.7263c0-1.7264-.785-2.511-2.511-2.511zm0-3.1388h2.511c1.0989 0 1.8829-.1569 2.3539-.6277.471-.3139.628-.9417.628-1.7263 0-.7847-.314-1.4125-.785-1.8833-.471-.3139-1.255-.6277-2.3539-.6277h-2.354zm-4.8651 11.7703v-20.2449h7.3761c2.6679 0 4.5509.47081 5.9639 1.41244 1.412.94162 2.04 2.35406 2.04 4.23726 0 1.0986-.314 1.8833-.785 2.668s-1.255 1.2555-2.197 1.5694c1.099.3138 1.883.7846 2.511 1.5693s.785 1.7263.785 2.8249c0 2.0402-.628 3.4526-1.883 4.5512-1.256.9416-3.139 1.5693-5.65 1.5693z" fill="#545454" fill-opacity=".2"/><path d="m114.898 20.3146c0 1.4124.157 2.3541.628 3.1387.471.6278 1.098.9417 1.883.9417 1.726 0 2.511-1.2555 2.511-3.9235v-.4708c0-2.6679-.942-4.0803-2.668-4.0803-1.569 0-2.354 1.0985-2.511 3.4526zm-4.708-.3139c0-1.5694.314-2.8249.942-4.0803.627-1.0986 1.412-2.0402 2.511-2.668 1.098-.6277 2.354-.9416 3.923-.9416 2.197 0 4.08.6277 5.336 2.0402 1.255 1.4124 1.883 3.2957 1.883 5.6497v.3139c0 2.3541-.628 4.2373-2.04 5.6497-1.256 1.4125-3.139 2.0402-5.336 2.0402s-3.923-.6277-5.179-1.8832c-1.255-1.2555-2.04-2.9818-2.04-5.179z" fill="#4285fd"/><path d="m114.898 20.3146c0 1.4124.157 2.3541.628 3.1387.471.6278 1.098.9417 1.883.9417 1.726 0 2.511-1.2555 2.511-3.9235v-.4708c0-2.6679-.942-4.0803-2.668-4.0803-1.569 0-2.354 1.0985-2.511 3.4526zm-4.708-.3139c0-1.5694.314-2.8249.942-4.0803.627-1.0986 1.412-2.0402 2.511-2.668 1.098-.6277 2.354-.9416 3.923-.9416 2.197 0 4.08.6277 5.336 2.0402 1.255 1.4124 1.883 3.2957 1.883 5.6497v.3139c0 2.3541-.628 4.2373-2.04 5.6497-1.256 1.4125-3.139 2.0402-5.336 2.0402s-3.923-.6277-5.179-1.8832c-1.255-1.2555-2.04-2.9818-2.04-5.179z" fill="#545454" fill-opacity=".2"/><path d="m131.063 20.3146c0 1.4124.157 2.3541.627 3.1387.471.6278 1.099.9417 1.884.9417 1.726 0 2.511-1.2555 2.511-3.9235v-.4708c0-2.6679-.942-4.0803-2.668-4.0803-1.57 0-2.354 1.0985-2.511 3.4526zm-4.709-.3139c0-1.5694.314-2.8249.942-4.0803.628-1.0986 1.413-2.0402 2.511-2.668 1.099-.6277 2.354-.9416 3.924-.9416 2.197 0 4.08.6277 5.335 2.0402 1.256 1.4124 1.884 3.2957 1.884 5.6497v.3139c0 2.3541-.628 4.2373-2.041 5.6497-1.255 1.4125-3.138 2.0402-5.335 2.0402-2.198 0-3.924-.6277-5.179-1.8832-1.256-1.2555-2.041-2.9818-2.041-5.179z" fill="#4285fd"/><path d="m131.063 20.3146c0 1.4124.157 2.3541.627 3.1387.471.6278 1.099.9417 1.884.9417 1.726 0 2.511-1.2555 2.511-3.9235v-.4708c0-2.6679-.942-4.0803-2.668-4.0803-1.57 0-2.354 1.0985-2.511 3.4526zm-4.709-.3139c0-1.5694.314-2.8249.942-4.0803.628-1.0986 1.413-2.0402 2.511-2.668 1.099-.6277 2.354-.9416 3.924-.9416 2.197 0 4.08.6277 5.335 2.0402 1.256 1.4124 1.884 3.2957 1.884 5.6497v.3139c0 2.3541-.628 4.2373-2.041 5.6497-1.255 1.4125-3.138 2.0402-5.335 2.0402-2.198 0-3.924-.6277-5.179-1.8832-1.256-1.2555-2.041-2.9818-2.041-5.179z" fill="#545454" fill-opacity=".2"/><path d="m149.11 22.1978-1.412 1.2555v4.2373h-4.708v-21.34343h4.708v11.29953l.471-.6278 3.609-4.3942h5.65l-5.336 6.2775 5.65 8.7884h-5.336z" fill="#4285fd"/><path d="m149.11 22.1978-1.412 1.2555v4.2373h-4.708v-21.34343h4.708v11.29953l.471-.6278 3.609-4.3942h5.65l-5.336 6.2775 5.65 8.7884h-5.336z" fill="#545454" fill-opacity=".2"/></svg>