<svg fill="none" height="33" viewBox="0 0 142 33" width="142" xmlns="http://www.w3.org/2000/svg"><g clip-rule="evenodd" fill-rule="evenodd"><path d="m19.6724 7.05263c-.1169-.54576-1.0609-1.79945-2.1187-1.79945-.237 0-.3931.03945-.5492.08021 1.0196.39146 1.804 1.40494 2.041 2.11157l.5873-.352v-.04033zm6.6697 23.75497-3.8111-2.5438c-.4584-.306-.9915-.8842-.9915-1.963v-9.212l-.3815.2323-.1517.0772v9.1708c0 .7715.418 1.5803.9885 1.9656l3.8519 2.5815zm-16.46255-9.2406c.0747-1.5627-.26057-3.4691-.5985-5.2997-.33793-1.8674-.63984-3.7742-.6016-5.4492.03824-1.02838.22588-2.0195.63806-2.93479-.71232 1.10466-1.16141 2.36189-1.20009 3.69669-.11205 3.2403 1.42553 7.4696 1.27435 10.7502-.03096.4451-.06787.8898-.11072 1.3339l.07381-.0771c.30103-.42.48822-1.0665.52469-2.02zm5.34645 9.1854c-.5719-1.1354-1.9423-1.828-3.5439-1.828-.1538.0351-.3063.0351-.4579.0351 1.5633.2573 2.8964 1.0967 3.393 2.1567l.6088-.3643zm13.7839-13.554-1.3339-1.4247.0405.9491.7038.8043zm36.5463-8.00002-3.1979-1.87485.4802-.31693 3.077 1.79419c-.1201.1188-.2402.23759-.3593.39759zm.7603 21.91782-1.3126-.9127c-.8626-.6071-1.3117-1.6328-1.3117-2.7717v-12.6834c0-1.7468.3757-2.9624.9742-3.7966-.337.8342-.4873 1.86-.4873 3.0378l.0369 12.9854c0 1.4054.4135 2.3172 1.3886 3.0006l1.2001.8372-.4877.3034zm-10.6279-.1157s-.1236.0767-.2054.1157h-.329v-21.20154c0-1.02532-.0823-1.02532-.7408-1.48253l-.948-.68383.6194-.30334c.4935.37874 1.2352.91178 1.2352.95035.2881.26521.3686.41644.3686 1.02488v21.61751zm-15.7195-26.18568c-.3282.84603-.2872 1.65436.1236 2.31671.3717.5874 1.0285.99244 1.8119 1.17699-2.4282.18279-3.4962-1.54433-1.9355-3.4937zm5.7159 18.41098c.1578-.6045.2223-1.2844.2223-2.0011v-10.983c0-1.32036-.0645-1.46984-.4455-1.88496h.0645c.5389-.11398.8248 0 .8248 1.13052v11.02074c0 1.2835-.1894 2.1137-.6661 2.7182m.9551 7.8904c-.3179-1.0371-1.2788-1.9143-2.9569-2.1541.2415-.0381.4802-.0381.7212-.0381 2.0756.0377 2.6759 1.3133 2.7964 1.7127l.0396.1183-.6003.3608zm57.0699-.2696-1.145-.6895c-1.033-.6154-1.568-1.5719-1.568-3.0295v-10.3903c0-.6129-.037-.5743-.268-.7667 0 0-.8022-.6523-1.3376-1.074l-.5722.3091 1.1071.8416c.6127.459.5367.4975.5367 1.4185v10.0826c0 1.3804.573 2.3387 1.375 2.8011l1.376.7663zm-10.6712.1903v-15.5678l-.5976-.5725-.7364.345.6892.6496v15.2246h.3713c.0907-.0395.2286-.0789.2286-.0789zm-12.4501-.1907-4.4455-2.6683c-.8902-.5405-1.2361-1.1967-1.2361-2.3566v-8.7329l-.3869.1933-.1565.0767v8.8881c0 1.0438.4633 1.8148 1.2766 2.2808l4.4442 2.5885zm2.2233-4.9907v-8.6597c0-.4559-.1468-.6093-.482-.7978l-1.7413-1.063v.5698l1.0005.5686c.7408.4173.7408.494.7408 1.2931l-.0356 7.7852zm35.127-15.6397v-.1117c0-1.04508-.613-2.12606-1.553-2.68716-.36-.22444-.683-.41074-.683-.41074l-.432.2994.251.14728c1.225.71146 1.914 1.60614 1.914 3.06012zm14.229 20.5914-3.822-2.5438c-.452-.306-.983-.8842-.983-1.963v-9.212l-.379.2323-.152.0772v9.0538c0 1.0029.38 1.6973 1.022 2.1216l3.783 2.5425zm-16.452.437-4.082-2.6332c-.979-.6172-1.17-1.1993-1.17-2.3241v-8.3218l-.302.1561-.227.1148v8.2455c0 1.3186.416 1.8994 1.058 2.3242l4.23 2.7484zm18.675-14.0467-1.334-1.4242.039.9491.705.8043zm-15.563 9.0964v-12.274l-.889.3498v11.5744z" fill="#8f98a9"/><path d="m20.647 27.4738-.4633-.9166-1.1988.7619c-.8897-1.07-2.3242-2.329-5.7315-2.329-3.60249-.0377-8.01915 2.7858-10.03294 5.2296l.34905.4581c2.74834-1.7951 5.57762-2.5942 8.05649-2.5942 2.0143 0 3.679.9539 4.3753 2.3654zm3.7208-20.92138c-.6981-1.06871-2.5567-3.05271-6.2366-3.05271-4.414-.03726-8.28554 3.35912-8.44116 7.48229-.11739 3.2829 1.47136 7.5196 1.31526 10.8024-.076 1.1077-.3104 1.9091-.7732 2.5184l.4628.5361 2.7124-1.9463c1.3179-.9578 2.0529-2.1396 2.0138-4.1995-.0387-2.5582-1.2401-6.4898-1.2401-9.5044 0-2.59682 1.008-4.54356 3.293-4.54356 1.5496 0 2.7888 1.56493 2.9813 2.44295.0792.41863 0 .6102-.3868.87715l-1.0836.72768v1.1818l5.3833-3.32274zm9.9778 10.15498-5.1899-5.6496-8.0961 4.6558v1.0687l1.6661-.9144v10.5741c0 .6093.233.9915.6194 1.2598l4.2997 2.7472 6.0818-3.4749-.5037-1.0687-3.1766 1.6798-2.8653-1.9476c-.349-.2271-.3877-.4568-.3877-.9535v-3.4353zm-4.0672.8399-3.4851 2.137v-5.5737l.3099-.1898zm17.5933 13.0148c-.3895-1.0758-1.5167-2.1866-3.5412-2.2628-1.9084-.0386-4.6323.6913-6.8875 2.3785l-.4295-.5379c1.6354-1.7644 5.4491-4.6005 9.4558-4.6404 2.1031 0 3.5811.6913 4.6318 1.8029l1.7524-.9591.506.9982zm24.0095-23.50688c-1.5203.88109-2.0263 2.07167-2.0263 3.91228v14.6845c0 .9228.1183 1.3423.6234 1.6123l.5065.2696 1.4006-.8083.4678.9232-4.8653 2.8764-1.6719-1.1138c-.7421-.498-1.0543-1.1121-1.0543-2.3014v-13.1139c0-2.453.7808-3.7589 1.8702-4.56236l.623-.46028-4.5919-2.64723-2.0627 1.22608v19.09739c0 1.6106-.2334 1.8411-1.6754 2.5688 0 0-1.1254.5379-2.6794 1.3431h-.3126v-21.166c0-1.03452-.1183-1.26641-.7021-1.72581l-1.6328-1.30323-1.9853 1.11079v10.96855c0 1.9156-.3112 3.2964-1.8675 4.2542l-3.8906 2.4163-.3913-.651c1.2076-.9219 1.4793-2.2268 1.4793-3.7598v-11.19603c0-1.64909-.2312-2.30049-1.9845-1.99364-.6607.11397-1.6727.26783-2.2952.34455-2.5692.34586-3.6594-1.4571-1.9075-3.71902 0 0 .4286-.57556 1.5175-1.95726l.8582.57688-.6247.88153c-.8164 1.15244-.1552 1.7657 1.1694 1.30368.6216-.23058 1.8275-.6891 2.6834-1.03628 3.6955-1.4172 5.0587.92186 5.2535 2.30225l4.5927-2.72219 3.9663 2.98959 4.9022-2.98959 3.7759 2.10981c1.2832.72635 1.9062.41994 2.8017-.04077l.7399-.38269.5829.95956zm17.5465 18.51398-.3486-.8351-1.353.6821v-10.2882c0-.5291-.1921-.9482-.7337-1.2537l-4.9898-2.9225-8.0836 4.6312v1.102l1.6647-.949v10.0607c0 .91.2295 1.2533.8124 1.5943l4.9106 2.8484zm19.1733 2.1642-.386-.8737-1.432.7991-.501-.3051c-.541-.3037-.658-.6851-.658-1.5956v-10.8953c0-.8741-.193-1.252-.736-1.6325l-2.978-2.2027-4.6023 2.5832-2.4353-2.5832-4.8733 2.9247.6581.7575 1.6621-.9846 1.1987 1.3278v15.1119h.3095c1.9342-.8386 2.5527-1.1029 2.5527-1.1029.928-.3805 1.1996-.6838 1.1996-1.7455v-12.6071l1.587-.9101 1.8562 1.4435c.501.4165.578.7584.578 1.4028l.039 10.3285c0 1.1376.349 1.7837 1.12 2.2396l1.626.9512zm-24.9363-.5686-.2308.0381-3.173-1.8235c-.5393-.3038-.658-.6453-.658-1.33l.0409-9.9844.2303-.0767 3.0565 1.7477c.6172.3419.7341.6457.7341 1.2901zm35.6633.4042-.233.0385-2.756-1.7683c-.542-.3441-.736-.6137-.736-1.3023v-9.789l3.453-2.0756.272.1543v14.7419zm5.744-1.5742-.348-.8833-1.398.7277v-16.27396c0-2.37983-1.086-3.91408-2.871-4.9898l-1.747-1.07573-5.474 3.14696 1.087.50016 1.787-.95912 1.162.65184c1.243.69128 2.058 2.07474 2.058 3.49365v.6129l-9.393 5.3738v1.0376l1.591-.8447v9.7507c0 .8426.233 1.1897.776 1.5347l4.658 2.8796zm15.099-9.1362-5.241-5.6811-8.112 4.6817v1.0748l1.669-.9197v10.6337c0 .6128.233.9972.621 1.2668l4.309 2.763 6.093-3.4946-.464-1.0744-3.184 1.6894-2.872-1.9594c-.389-.2674-.427-.459-.427-.9578v-3.4552zm-4.114.8447-3.494 2.1493v-5.6053l.35-.1911z" fill="#1a171b"/></g></svg>