<svg height="39" viewBox="0 0 705 300" fill="none" xmlns="http://www.w3.org/2000/svg"><path fill-rule="evenodd" clip-rule="evenodd" d="M245.62 203.2a7.56 7.56 0 0 0 3.8-6.54l.14-43.76c0-2.7 1.45-5.2 3.8-6.54l23.74-13.63a7.56 7.56 0 0 1 11.33 6.56v79.56c0 2.71-1.45 5.22-3.8 6.56l-89.6 51.43a7.57 7.57 0 0 1-7.51.01l-70.32-40.2a7.57 7.57 0 0 1-3.8-6.56v-40.11c0-.05.05-.08.09-.06.04.03.1 0 .1-.05v-.05c0-.03.01-.06.04-.08l57.9-33.24c.06-.03.03-.11-.03-.11a.06.06 0 0 1-.05-.06l.1-39.34a7.56 7.56 0 0 0-11.33-6.57l-43.05 24.78a7.57 7.57 0 0 1-7.55 0l-43.18-24.86a7.56 7.56 0 0 0-11.34 6.56V188c0 5.8-6.27 9.44-11.31 6.56l-23.97-13.69a7.57 7.57 0 0 1-3.81-6.58l.21-124.25a7.56 7.56 0 0 1 11.33-6.55l82.08 47.11a7.56 7.56 0 0 0 7.53 0l82.06-47.1a7.56 7.56 0 0 1 11.33 6.56v124.29c0 2.7-1.45 5.2-3.8 6.55l-42.96 24.73a7.56 7.56 0 0 0 .03 13.13l23.7 13.48a7.57 7.57 0 0 0 7.5-.01l50.6-29.03Zm4.97-111.5a7.56 7.56 0 0 0 11.46 6.5l22.7-13.62a7.56 7.56 0 0 0 3.68-6.49V50.36a7.56 7.56 0 0 0-11.45-6.5l-22.71 13.62a7.57 7.57 0 0 0-3.68 6.5V91.7Z" fill="#007FFF"/><path d="M395.1 210h23.71v-75.12l34.43 46.05h3.06l34.42-44.37V210h23.72V96.02h-22.95l-36.26 49.41-37.18-49.42H395.1V210Zm184.84 1.84c8.97 0 16.98-1.9 24.02-5.66a42.36 42.36 0 0 0 16.52-15.46c4.08-6.63 6.12-14.13 6.12-22.49V96.02H602.9v70.68c0 4.49-1.02 8.57-3.06 12.24a21.45 21.45 0 0 1-8.11 8.42c-3.37 2.04-7.3 3.06-11.78 3.06a22.8 22.8 0 0 1-11.78-3.06 22.56 22.56 0 0 1-8.26-8.42 25.81 25.81 0 0 1-2.91-12.24V96.02h-23.72v72.21c0 8.37 2 15.86 5.97 22.5a43.5 43.5 0 0 0 16.68 15.45c7.04 3.77 15.04 5.66 24.02 5.66Zm65.43-1.84h23.71V96.02h-23.71V210Z" fill="url(#a)"/><defs><linearGradient id="a" x1="535.5" y1="88" x2="535.5" y2="212" gradientUnits="userSpaceOnUse"><stop stop-color="#0A1929"/><stop offset="1" stop-color="#001E3C"/></linearGradient></defs></svg>