<svg fill="none" height="39" viewBox="0 0 110 39" width="110" xmlns="http://www.w3.org/2000/svg"><path d="m0 21.3242v-17.45457l15.1165 8.72727v5.8182l-10.07766-5.8182v11.6364z" fill="#00b0ff"/><path d="m15.1166 12.5969 15.1165-8.72727v17.45457l-10.0777 5.8182-5.0388-2.9091 10.0777-5.8182v-5.8182l-10.0777 5.8182z" fill="#0081cb"/><path d="m15.1166 24.2333v5.8182l10.0777 5.8181v-5.8181z" fill="#00b0ff"/><path d="m25.1942 35.8696 15.1165-8.7272v-11.6364l-5.0388 2.9091v5.8182l-10.0777 5.8181zm10.0777-23.2727v-5.81818l5.0388-2.90909v5.81818z" fill="#0081cb"/><path d="m50.8804 32.8696v-23.83997h4.16l8.928 12.12797h-1.984l8.736-12.12797h4.16v23.83997h-4.384v-18.88l1.696.416-9.056 12.064h-.512l-8.832-12.064 1.44-.416v18.88zm37.7465.384c-1.8347 0-3.4667-.384-4.896-1.152-1.408-.768-2.5173-1.824-3.328-3.168s-1.216-2.8693-1.216-4.576v-15.32797h4.352v15.10397c0 .9814.2133 1.8667.64 2.656.448.7894 1.056 1.408 1.824 1.856.768.4267 1.6427.64 2.624.64 1.0027 0 1.8773-.2133 2.624-.64.768-.448 1.3654-1.0666 1.792-1.856.448-.7893.672-1.6746.672-2.656v-15.10397h4.352v15.32797c0 1.7067-.4053 3.232-1.216 4.576-.8106 1.344-1.9307 2.4-3.36 3.168-1.408.768-3.0293 1.152-4.864 1.152zm13.7851-.384v-23.83997h4.352v23.83997z" fill="#0f172a"/></svg>