<svg fill="none" height="452" viewBox="0 0 409 452" width="409" xmlns="http://www.w3.org/2000/svg" xmlns:xlink="http://www.w3.org/1999/xlink"><filter id="a" color-interpolation-filters="sRGB" filterUnits="userSpaceOnUse" height="99" width="99" x="26.75" y="352.535"><feFlood flood-opacity="0" result="BackgroundImageFix"/><feColorMatrix in="SourceAlpha" result="hardAlpha" type="matrix" values="0 0 0 0 0 0 0 0 0 0 0 0 0 0 0 0 0 0 127 0"/><feOffset dx="4" dy="4"/><feGaussianBlur stdDeviation="6"/><feColorMatrix type="matrix" values="0 0 0 0 0.2 0 0 0 0 0.254902 0 0 0 0 0.333333 0 0 0 0.122 0"/><feBlend in2="BackgroundImageFix" mode="normal" result="effect1_dropShadow_102_211"/><feBlend in="SourceGraphic" in2="effect1_dropShadow_102_211" mode="normal" result="shape"/></filter><filter id="b" color-interpolation-filters="sRGB" filterUnits="userSpaceOnUse" height="82.9999" width="83" x="262.75" y="237.535"><feFlood flood-opacity="0" result="BackgroundImageFix"/><feColorMatrix in="SourceAlpha" result="hardAlpha" type="matrix" values="0 0 0 0 0 0 0 0 0 0 0 0 0 0 0 0 0 0 127 0"/><feOffset dx="4" dy="4"/><feGaussianBlur stdDeviation="6"/><feColorMatrix type="matrix" values="0 0 0 0 0.2 0 0 0 0 0.254902 0 0 0 0 0.333333 0 0 0 0.122 0"/><feBlend in2="BackgroundImageFix" mode="normal" result="effect1_dropShadow_102_211"/><feBlend in="SourceGraphic" in2="effect1_dropShadow_102_211" mode="normal" result="shape"/></filter><filter id="c" color-interpolation-filters="sRGB" filterUnits="userSpaceOnUse" height="68" width="68" x="96.75" y="270.535"><feFlood flood-opacity="0" result="BackgroundImageFix"/><feColorMatrix in="SourceAlpha" result="hardAlpha" type="matrix" values="0 0 0 0 0 0 0 0 0 0 0 0 0 0 0 0 0 0 127 0"/><feOffset dx="4" dy="4"/><feGaussianBlur stdDeviation="6"/><feColorMatrix type="matrix" values="0 0 0 0 0.2 0 0 0 0 0.254902 0 0 0 0 0.333333 0 0 0 0.122 0"/><feBlend in2="BackgroundImageFix" mode="normal" result="effect1_dropShadow_102_211"/><feBlend in="SourceGraphic" in2="effect1_dropShadow_102_211" mode="normal" result="shape"/></filter><filter id="d" color-interpolation-filters="sRGB" filterUnits="userSpaceOnUse" height="68" width="68" x="159.75" y="116.535"><feFlood flood-opacity="0" result="BackgroundImageFix"/><feColorMatrix in="SourceAlpha" result="hardAlpha" type="matrix" values="0 0 0 0 0 0 0 0 0 0 0 0 0 0 0 0 0 0 127 0"/><feOffset dx="4" dy="4"/><feGaussianBlur stdDeviation="6"/><feColorMatrix type="matrix" values="0 0 0 0 0.2 0 0 0 0 0.254902 0 0 0 0 0.333333 0 0 0 0.122 0"/><feBlend in2="BackgroundImageFix" mode="normal" result="effect1_dropShadow_102_211"/><feBlend in="SourceGraphic" in2="effect1_dropShadow_102_211" mode="normal" result="shape"/></filter><filter id="e" color-interpolation-filters="sRGB" filterUnits="userSpaceOnUse" height="99" width="99" x="187.75" y=".534851"><feFlood flood-opacity="0" result="BackgroundImageFix"/><feColorMatrix in="SourceAlpha" result="hardAlpha" type="matrix" values="0 0 0 0 0 0 0 0 0 0 0 0 0 0 0 0 0 0 127 0"/><feOffset dx="4" dy="4"/><feGaussianBlur stdDeviation="6"/><feColorMatrix type="matrix" values="0 0 0 0 0.2 0 0 0 0 0.254902 0 0 0 0 0.333333 0 0 0 0.122 0"/><feBlend in2="BackgroundImageFix" mode="normal" result="effect1_dropShadow_102_211"/><feBlend in="SourceGraphic" in2="effect1_dropShadow_102_211" mode="normal" result="shape"/></filter><filter id="f" color-interpolation-filters="sRGB" filterUnits="userSpaceOnUse" height="134" width="134" x="143.75" y="182.535"><feFlood flood-opacity="0" result="BackgroundImageFix"/><feColorMatrix in="SourceAlpha" result="hardAlpha" type="matrix" values="0 0 0 0 0 0 0 0 0 0 0 0 0 0 0 0 0 0 127 0"/><feOffset dx="4" dy="4"/><feGaussianBlur stdDeviation="6"/><feColorMatrix type="matrix" values="0 0 0 0 0.2 0 0 0 0 0.254902 0 0 0 0 0.333333 0 0 0 0.122 0"/><feBlend in2="BackgroundImageFix" mode="normal" result="effect1_dropShadow_102_211"/><feBlend in="SourceGraphic" in2="effect1_dropShadow_102_211" mode="normal" result="shape"/></filter><filter id="g" color-interpolation-filters="sRGB" filterUnits="userSpaceOnUse" height="107" width="107" x=".75" y="55.5349"><feFlood flood-opacity="0" result="BackgroundImageFix"/><feColorMatrix in="SourceAlpha" result="hardAlpha" type="matrix" values="0 0 0 0 0 0 0 0 0 0 0 0 0 0 0 0 0 0 127 0"/><feOffset dx="4" dy="4"/><feGaussianBlur stdDeviation="6"/><feColorMatrix type="matrix" values="0 0 0 0 0.2 0 0 0 0 0.254902 0 0 0 0 0.333333 0 0 0 0.122 0"/><feBlend in2="BackgroundImageFix" mode="normal" result="effect1_dropShadow_102_211"/><feBlend in="SourceGraphic" in2="effect1_dropShadow_102_211" mode="normal" result="shape"/></filter><filter id="h" color-interpolation-filters="sRGB" filterUnits="userSpaceOnUse" height="86.9999" width="87" x="289.75" y="111.535"><feFlood flood-opacity="0" result="BackgroundImageFix"/><feColorMatrix in="SourceAlpha" result="hardAlpha" type="matrix" values="0 0 0 0 0 0 0 0 0 0 0 0 0 0 0 0 0 0 127 0"/><feOffset dx="4" dy="4"/><feGaussianBlur stdDeviation="6"/><feColorMatrix type="matrix" values="0 0 0 0 0.2 0 0 0 0 0.254902 0 0 0 0 0.333333 0 0 0 0.122 0"/><feBlend in2="BackgroundImageFix" mode="normal" result="effect1_dropShadow_102_211"/><feBlend in="SourceGraphic" in2="effect1_dropShadow_102_211" mode="normal" result="shape"/></filter><filter id="i" color-interpolation-filters="sRGB" filterUnits="userSpaceOnUse" height="82" width="82" x="168.75" y="353.535"><feFlood flood-opacity="0" result="BackgroundImageFix"/><feColorMatrix in="SourceAlpha" result="hardAlpha" type="matrix" values="0 0 0 0 0 0 0 0 0 0 0 0 0 0 0 0 0 0 127 0"/><feOffset dx="4" dy="4"/><feGaussianBlur stdDeviation="6"/><feColorMatrix type="matrix" values="0 0 0 0 0.2 0 0 0 0 0.254902 0 0 0 0 0.333333 0 0 0 0.122 0"/><feBlend in2="BackgroundImageFix" mode="normal" result="effect1_dropShadow_102_211"/><feBlend in="SourceGraphic" in2="effect1_dropShadow_102_211" mode="normal" result="shape"/></filter><filter id="j" color-interpolation-filters="sRGB" filterUnits="userSpaceOnUse" height="83.9999" width="84" x="21.75" y="184.535"><feFlood flood-opacity="0" result="BackgroundImageFix"/><feColorMatrix in="SourceAlpha" result="hardAlpha" type="matrix" values="0 0 0 0 0 0 0 0 0 0 0 0 0 0 0 0 0 0 127 0"/><feOffset dx="4" dy="4"/><feGaussianBlur stdDeviation="6"/><feColorMatrix type="matrix" values="0 0 0 0 0.2 0 0 0 0 0.254902 0 0 0 0 0.333333 0 0 0 0.122 0"/><feBlend in2="BackgroundImageFix" mode="normal" result="effect1_dropShadow_102_211"/><feBlend in="SourceGraphic" in2="effect1_dropShadow_102_211" mode="normal" result="shape"/></filter><filter id="k" color-interpolation-filters="sRGB" filterUnits="userSpaceOnUse" height="95.9999" width="96" x="289.75" y="353.535"><feFlood flood-opacity="0" result="BackgroundImageFix"/><feColorMatrix in="SourceAlpha" result="hardAlpha" type="matrix" values="0 0 0 0 0 0 0 0 0 0 0 0 0 0 0 0 0 0 127 0"/><feOffset dx="4" dy="4"/><feGaussianBlur stdDeviation="6"/><feColorMatrix type="matrix" values="0 0 0 0 0.2 0 0 0 0 0.254902 0 0 0 0 0.333333 0 0 0 0.122 0"/><feBlend in2="BackgroundImageFix" mode="normal" result="effect1_dropShadow_102_211"/><feBlend in="SourceGraphic" in2="effect1_dropShadow_102_211" mode="normal" result="shape"/></filter><linearGradient id="l" gradientUnits="userSpaceOnUse" x1="225.154" x2="207.578" y1="240.742" y2="259.702"><stop offset="0" stop-color="#804fce"/><stop offset="1" stop-color="#2d3383"/></linearGradient><radialGradient id="m" cx="210.918" cy="245.528" gradientUnits="userSpaceOnUse" r="14.5355"><stop offset="0" stop-color="#311476"/><stop offset="1" stop-color="#2b214f"/></radialGradient><radialGradient id="n" cx="0" cy="0" gradientTransform="matrix(14.75967465 7.54029906 -7.53870676 14.75655782 188.861 263.981)" gradientUnits="userSpaceOnUse" r="1"><stop offset="0" stop-color="#1b357a"/><stop offset="1" stop-color="#512bcd"/></radialGradient><radialGradient id="o" cx="0" cy="0" gradientTransform="matrix(13.50636466 10.45782028 -10.18177026 13.14984369 186.323 265.538)" gradientUnits="userSpaceOnUse" r="1"><stop offset="0" stop-color="#493ca8"/><stop offset="1" stop-color="#512bcc"/></radialGradient><linearGradient id="p"><stop offset="0" stop-color="#fff"/><stop offset="1" stop-color="#fff" stop-opacity="0"/></linearGradient><linearGradient id="q" gradientUnits="userSpaceOnUse" x1="55.0171" x2="62.8607" xlink:href="#p" y1="112.105" y2="121.827"/><linearGradient id="r" gradientUnits="userSpaceOnUse" x1="58.4272" x2="58.3773" xlink:href="#p" y1="96.7348" y2="109.738"/><linearGradient id="s" gradientUnits="userSpaceOnUse" x1="314.611" x2="330.652" y1="160.638" y2="164.921"><stop offset="0" stop-color="#315c55"/><stop offset="1" stop-color="#09293f"/></linearGradient><linearGradient id="t" gradientUnits="userSpaceOnUse" x1="319.191" x2="317.698" y1="141.269" y2="155.804"><stop offset="0" stop-color="#4fb38d"/><stop offset="1" stop-color="#315c55"/></linearGradient><linearGradient id="u" gradientUnits="userSpaceOnUse" x1="326.229" x2="338.068" y1="139.727" y2="141.898"><stop offset="0" stop-color="#4fb38d"/><stop offset="1" stop-color="#97dec0"/></linearGradient><linearGradient id="v" gradientUnits="userSpaceOnUse" x1="341.841" x2="335.385" y1="150.714" y2="162.801"><stop offset="0" stop-color="#97dec0"/><stop offset="1" stop-color="#fffff0" stop-opacity="0"/></linearGradient><clipPath id="w"><path d="m52.75 378.535h40v40h-40z"/></clipPath><clipPath id="x"><path d="m284.91 259.695h31.4667v31.4666h-31.4667z"/></clipPath><clipPath id="y"><path d="m115.31 289.095h23.4667v23.4666h-23.4667z"/></clipPath><clipPath id="z"><path d="m178.31 135.095h23.4667v23.4666h-23.4667z"/></clipPath><clipPath id="A"><path d="m213.75 26.5348h40v40h-40z"/></clipPath><clipPath id="B"><path d="m178.15 216.935h58.6667v58.6666h-58.6667z"/></clipPath><clipPath id="C"><path d="m28.67 83.4548h44.2667v44.2666h-44.2667z"/></clipPath><clipPath id="D"><path d="m312.87 134.655h33.6v33.6h-33.6z"/></clipPath><clipPath id="E"><path d="m190.67 375.455h30.9333v30.9333h-30.9333z"/></clipPath><clipPath id="F"><path d="m44.15 206.935h32v32h-32z"/></clipPath><path d="m208.75 445.035c110.181 0 199.5-89.319 199.5-199.5s-89.319-199.5001-199.5-199.5001c-110.1808 0-199.5 89.3191-199.5 199.5001s89.3192 199.5 199.5 199.5z" stroke="#f5d0fe"/><path d="m208.75 398.035c83.671 0 151.5-68.053 151.5-152s-67.829-152.0001-151.5-152.0001-151.5 68.0531-151.5 152.0001 67.829 152 151.5 152z" stroke="#f0abfc"/><path d="m208.75 350.035c57.714 0 104.5-46.786 104.5-104.5s-46.786-104.5-104.5-104.5-104.5 46.786-104.5 104.5 46.786 104.5 104.5 104.5z" stroke="#e879f9"/><g filter="url(#a)"><path d="m72.25 435.535c20.7107 0 37.5-16.789 37.5-37.5s-16.7893-37.5-37.5-37.5-37.5 16.789-37.5 37.5 16.7893 37.5 37.5 37.5z" fill="#fff"/></g><g clip-path="url(#w)"><path d="m72.75 378.535c-11.0456 0-20 8.954-20 20s8.9544 20 20 20c11.0458 0 20-8.954 20-20s-8.9542-20-20-20zm-15.7025 20.208 15.4939 15.494c-8.5078-.111-15.3831-6.986-15.4939-15.494zm19.2175 15.102-18.825-18.825c1.5966-6.981 7.8448-12.19 15.31-12.19 5.2183 0 9.8414 2.545 12.6973 6.462l-2.1745 1.919c-2.3166-3.322-6.1656-5.497-10.5228-5.497-5.5477 0-10.2719 3.524-12.0577 8.455l16.4233 16.423c3.9883-1.444 7.0556-4.81 8.0828-8.98h-6.8071v-3.077h10.064c0 7.465-5.2087 13.713-12.1901 15.31z" fill="#744c9e"/></g><g filter="url(#b)"><path d="m300.25 304.535c16.292 0 29.5-13.208 29.5-29.5 0-16.293-13.208-29.5-29.5-29.5s-29.5 13.207-29.5 29.5c0 16.292 13.208 29.5 29.5 29.5z" fill="#fff"/></g><g clip-path="url(#x)"><path clip-rule="evenodd" d="m300.676 260.083c-8.692 0-15.733 7.041-15.733 15.733 0 6.962 4.504 12.843 10.758 14.927.786.138 1.081-.334 1.081-.747 0-.374-.019-1.613-.019-2.93-3.953.727-4.976-.964-5.291-1.849-.177-.452-.944-1.849-1.612-2.222-.551-.295-1.338-1.023-.02-1.043 1.239-.019 2.124 1.141 2.419 1.613 1.416 2.38 3.678 1.711 4.582 1.298.138-1.023.551-1.711 1.003-2.104-3.5-.394-7.158-1.751-7.158-7.769 0-1.711.609-3.127 1.612-4.228-.157-.393-.708-2.006.158-4.169 0 0 1.317-.413 4.326 1.612 1.259-.354 2.596-.531 3.934-.531 1.337 0 2.674.177 3.933.531 3.009-2.045 4.327-1.612 4.327-1.612.865 2.163.314 3.776.157 4.169 1.003 1.101 1.613 2.498 1.613 4.228 0 6.038-3.678 7.375-7.179 7.769.571.491 1.062 1.435 1.062 2.91 0 2.105-.019 3.796-.019 4.327 0 .413.295.905 1.081.747 3.124-1.054 5.838-3.062 7.76-5.739 1.923-2.678 2.958-5.891 2.959-9.188 0-8.692-7.041-15.733-15.734-15.733z" fill="#000" fill-rule="evenodd"/></g><g filter="url(#c)"><path d="m126.75 322.535c12.15 0 22-9.85 22-22s-9.85-22-22-22-22 9.85-22 22 9.85 22 22 22z" fill="#fff"/></g><g clip-path="url(#y)"><path d="m137.43 297.23c-.01-.085-.024-.17-.041-.253-.016-.088-.036-.174-.061-.26l-.065-.103c-.268-.21-.557-.369-.85-.51-.243-.114-.489-.214-.738-.306-.693-1.925-1.886-3.633-3.454-4.823-1.621-1.229-3.528-1.88-5.513-1.88-1.986 0-3.893.651-5.513 1.88-1.569 1.19-2.762 2.898-3.455 4.824-.249.091-.495.191-.737.305-.294.141-.583.3-.851.51l-.065.103c-.023.086-.044.172-.061.26-.016.083-.029.168-.041.253-.024.168-.04.338-.049.508-.017.34-.007.681.03 1.02s.1.675.189 1.004c.047.166.102.33.164.49.032.081.066.162.104.242.019.04.04.079.061.12.046.082.055.098.074.127l.088.081c.058.029.105.051.157.076l.151.068c.029.012.055.023.084.034-.689.637-1.436 1.464-2.084 2.485l-.817 1.29 1.147-1.007c.02-.017.982-.851 2.587-1.794l.023.184c-.105.055-.61.32-.76.445-.248.207-.261.527-.194 1.125.034.306.149.901.304 1.446.267.939.463 1.105.634 1.144.078.018.178.027.29.027.308 0 .702-.06.959-.138.301.937.728 1.784 1.248 2.526-.025.007-.05.015-.075.022-.313-.145-1.407-.652-1.775-.817l-.769-.347.455.711c.033.051.818 1.275 1.458 2.1.6.769 1.421 1.556 2.969 1.556.195 0 .389-.012.583-.034.461-.053.808-.095 1.072-.128 1.626.597 3.419.634 5.12-.011.445-.169.874-.381 1.279-.632.656-.157 1.373-.328 1.728-.428.067-.017.134-.034.202-.049.493-.114 1.319-.306 1.759-1.186.443-.888 1.166-2.249 1.174-2.263l.338-.634-.659.286c-.035.016-.87.379-1.304.607.302-.694.479-1.268.541-1.489.243.059.603.051.868.051.13 0 .264-.022.351-.045.172-.043.305-.158.555-1.126.145-.563.25-1.176.278-1.491.056-.613.038-.941-.213-1.149-.124-.103-.49-.3-.676-.397.104-.044.155-.031.159-.03l.169-.641c.059-.025.122-.051.194-.078.102-.041.204-.081.306-.125l.151-.068c.052-.025.099-.047.157-.076l.088-.082c.019-.029.029-.044.041-.067.055-.1.075-.139.094-.179.038-.08.072-.161.104-.242.062-.16.117-.324.164-.49.089-.329.152-.665.189-1.005.038-.338.046-.679.029-1.019-.008-.17-.025-.34-.049-.508z" fill="#0e0f0d"/><path d="m127.772 310.422c-.124.018-.248.034-.371.043-.08.004-.164.012-.241.012l-.029.001c.097-.214.17-.381.224-.507.137.153.276.303.417.451z" fill="#e1c5a2"/><path d="m127.621 300.851c-.194.158-.399.305-.612.434l-.712.429c-.446.055-.834.165-.856.172-.013.003-.025.009-.037.016-.035.021-.061.054-.073.093l-.725 2.388-3.875.862-1.221-.855-.355-2.876c.694-.127 1.62-.274 2.734-.399-.122.145-.237.295-.345.45l-.663.951.965-.643c.015-.01.629-.415 1.634-.906 1.095-.083 2.193-.124 3.291-.124.289 0 .572.003.85.008zm-6.03 3.24c.275-.149.586-.127 1.073-.126.052.001.106.001.162-.001.048 0 .096-.001.147-.002.502-.005.918.042.911-.745-.008-.787-.358-1.424-.859-1.419-.501.004-.987.65-.957 1.437.008.204.039.353.087.459-.437.11-.558.38-.564.397zm12.746-2.586-.349 2.445-1.231.862-3.869-.44-.722-2.377c-.008-.026-.022-.05-.041-.069-.02-.019-.044-.033-.07-.04-.023-.007-.502-.144-1.01-.188l.093-.006c.08-.006 1.414-.17 3.008-.719 1.765.135 3.206.352 4.191.532zm-2.472 2.263c-.005-.019-.112-.335-.577-.279.053-.118.077-.276.06-.492-.061-.786-.519-1.411-1.02-1.393-.501.017-.822.669-.794 1.457.028.787.448.781.949.763.674-.012 1.043-.219 1.382-.056z" fill="#a89983"/><path d="m130.541 302.354c.001.068-.025.133-.072.182s-.112.077-.18.078c-.033.001-.067-.005-.098-.017-.031-.013-.06-.031-.084-.054-.024-.024-.044-.052-.057-.082-.013-.031-.021-.064-.021-.098-.001-.034.005-.067.017-.098.013-.032.031-.06.054-.084.024-.025.052-.044.082-.057.031-.014.064-.021.098-.022s.067.005.098.018c.032.012.06.03.085.054.024.023.043.051.057.082.013.031.02.064.021.098m-7.183.188c.002.068-.023.134-.07.183-.046.049-.111.078-.179.08-.033.001-.067-.005-.098-.017-.032-.012-.061-.03-.085-.053-.025-.023-.044-.051-.058-.082s-.021-.064-.022-.098c-.001-.033.005-.067.017-.098.012-.032.03-.061.053-.085s.051-.044.082-.057c.031-.014.064-.022.098-.022.068-.002.133.023.183.07.049.047.078.111.079.179z" fill="#fff"/><path d="m136.026 302.581c-.061-.05-.263-.166-.46-.272l-.324 2.273c-.003.022-.011.043-.023.062-.011.018-.027.035-.045.048l-.464.324c-.011.055-.019.101-.028.144.456.112.899-.217 1.148-.454.115-.448.215-.979.249-1.36.053-.59.006-.716-.053-.765m-7.166 8.635c-.301-.107-.577-.281-.818-.519-.02-.02-.039-.04-.059-.06-.188.038-.378.066-.569.082-.082.004-.159.01-.245.01l-.125.002-.049-.002c-.288.428-.771.663-1.15.788 1.126.193 2.365-.103 3.015-.301zm-9.913-5.567c-.01-.034-.021-.068-.031-.102l-.602-.422c-.019-.013-.035-.03-.046-.05-.012-.019-.02-.041-.022-.064l-.294-2.386c-.218.116-.469.259-.536.315-.058.048-.103.17-.04.739.048.428.198 1.085.352 1.577.305.233.754.479 1.219.393zm9.012-.109c-.032-.003-.062-.016-.086-.036-.024-.021-.042-.048-.051-.078l-.744-2.452c-.125-.016-.236-.025-.329-.025-.094 0-.204.009-.329.025l-.723 2.381c-.008.028-.024.052-.045.072-.021.019-.047.033-.075.039l-.346.077c-.029.122-.129.302-.449.4-.518.158-3.793 1.134-4.166 1.081-.218-.031-.633-.26-.94-.445-.123-.289-.191-.486-.207-.532v-.001.001c.043.127.47 1.357 1.339 2.56.931-.274 1.735-.53 1.992-.611.523-.808 1.269-1.609 1.799-1.636.094-.005.187-.007.281-.008.259 0 .507.019.737.046-.195-.177-.235-.385-.264-.477 0 0 .677.529 1.538.418.862-.11 1.396-.607 1.396-.607l.017-.152-.346-.04" fill="#e1c5a2"/><path d="m128.658 305.851c-.178-.046-.291-.12-.362-.197l-.009.078s-.003.362-.378.642c.722-.218 1.021-.292 1.225-.292.225 0 .336.094.434.176.019.016.037.032.059.049.474.373.946.747 1.418 1.123.226.026.943.108 1.394.15.26.024.496.043.726.043.074 0 .144-.002.21-.007.238-.456.457-.96.652-1.516-.267.188-.875.597-1.16.65-.371.07-3.686-.764-4.209-.899z" fill="#e1c5a2"/><path d="m137.001 297.278c-.007-.078-.015-.157-.025-.235-.006-.055-.014-.111-.024-.166-.21-.176-.448-.333-.695-.475-.269-.157-.55-.297-.837-.428-.284-.134-.577-.256-.87-.374-.147-.06-.295-.118-.444-.173-.148-.058-.298-.112-.448-.166.315.052.627.124.936.203.202.052.402.11.6.173-1.414-3.696-4.795-6.103-8.486-6.103-3.692 0-7.073 2.407-8.486 6.103.198-.063.399-.121.599-.173.309-.079.621-.151.936-.203-.151.054-.3.108-.449.166-.148.056-.296.113-.443.173-.294.118-.586.24-.871.374-.286.131-.567.271-.835.428-.248.142-.486.299-.695.475-.01.055-.018.111-.025.166-.01.078-.018.157-.025.235-.013.158-.02.316-.02.474-.003.317.018.634.058.947.043.314.101.626.186.929.041.15.09.298.145.444.041.106.087.21.138.313l.02.038c.023.012.047.024.07.035l.141.067c.078.036.187.088.277.128.005-.005.01-.009.014-.014l-.261-.994c.055-.014.551-.143 1.405-.305-.07-.013-.138-.028-.207-.044-.194-.049-.386-.108-.572-.183-.092-.038-.182-.082-.27-.13-.086-.05-.171-.106-.237-.181.938.306 2.876.168 4.6-.011 1.575-.162 3.156-.267 4.744-.271 1.587.004 3.168.109 4.743.271 1.724.179 3.662.317 4.6.011-.065.075-.151.131-.236.181-.088.049-.179.091-.271.13-.186.075-.377.134-.572.183-.028.006-.058.013-.086.019.936.174 1.481.315 1.539.33l-.249.947c.05-.022.101-.044.15-.067l.141-.067c.023-.011.047-.023.071-.035l.019-.038c.017-.033.034-.067.049-.101.031-.069.061-.14.089-.212.055-.146.103-.294.145-.445.085-.302.143-.614.186-.928.04-.314.062-.63.059-.947 0-.158-.007-.316-.021-.474" fill="#e0d896"/><path d="m130.592 295.439c.014.423.004 1.19-.193 1.908-.008.028-.007.056 0 .083-.251-.026-.502-.049-.753-.07.281-.59.343-1.218.357-1.439.216-.154.431-.338.589-.482zm-7.179.482c.014.221.075.848.356 1.438-.251.02-.501.043-.752.069.007-.025.007-.053 0-.081-.197-.716-.207-1.484-.193-1.908.158.144.373.328.589.482zm10.26 2.095c-.001.007-.003.014-.005.021.028.008.054.016.082.025.232.076.464.155.686.258-.37-.241-.605-.935-.736-1.466.036.695-.023 1.135-.027 1.162zm-11.158-2.71-2.395.681c-.144.932-.1 1.643-.077 1.89l.012-.007s.078-1.015.237-1.404c.082-.2.584-.328.966-.419.383-.091.994-.274 1.112.264.073.332.174.609.271.813-.154-.739-.144-1.462-.126-1.818zm8.385 0c.02.37.029 1.136-.145 1.904.109-.209.23-.517.314-.899.119-.538.729-.355 1.112-.264s.884.219.966.419c.135.329.211 1.106.231 1.338.023-.298.048-.966-.082-1.817zm-7.506.207c.085.068.172.132.261.193.042.029.068.077.069.128 0 .008.018.797.367 1.469.005.01.008.021.012.031.867-.059 1.737-.083 2.605-.083s1.737.026 2.604.085c.004-.011.007-.022.013-.033.349-.672.367-1.461.367-1.469.001-.025.007-.05.019-.072s.029-.041.05-.056c.086-.059.17-.121.251-.186l.011-.031c.181-1.765-.151-3.392-.363-4.195-.011.549-.141 5.258-1.31 5.258h-3.225c-1.241 0-1.34-5.309-1.34-5.309l-.064.189c-.212.846-.503 2.402-.327 4.081m-3.646 2.523c-.002-.007-.004-.013-.005-.02-.004-.027-.064-.468-.028-1.163-.131.531-.366 1.226-.737 1.467.222-.103.455-.183.687-.259.028-.008.055-.016.083-.025z" fill="#d7c184"/><path d="m134.682 305.16c-.019.104-.042.208-.068.311.266.062.701.11.909.07.089-.097.203-.432.307-.835-.249.237-.692.566-1.148.454m-9.532 6.51c.636.174 1.285.25 1.924.207.641-.043 1.474-.182 2.358-.541-.195-.014-.388-.054-.572-.12-.65.199-1.889.494-3.015.301-.299.098-.532.129-.555.131-.047.006-.086.012-.14.022m-6.161-5.878c-.015-.047-.028-.095-.042-.143-.465.086-.914-.16-1.219-.393.098.316.198.564.273.64.23.04.739-.031.988-.104zm.687.787c.306.185.721.414.94.445.373.053 3.648-.923 4.166-1.081.32-.098.42-.278.449-.4l-4.725 1.052c-.012.002-.024.004-.035.004h-.001c-.033 0-.065-.01-.093-.029l-.184-.129-.552-.386v-.001l-.223-.156c.004.013.009.025.013.038.012.036.025.074.038.11v.001c.016.046.084.243.207.532m14.494-.908c.03-.111.06-.224.087-.338l-.164.115-.442.309-.477.335c-.025.017-.053.027-.083.029-.009.001-.019.001-.029 0l-4.758-.541-.008.074c.071.077.184.15.362.197.523.135 3.838.968 4.209.899.285-.053.893-.463 1.16-.65.002-.006.005-.013.007-.019.047-.136.092-.273.136-.41" fill="#9f8f78"/><path d="m129.136 299.261c-.038.048-.079.102-.123.157-.226.285-.539.65-.91 1.007-.443-.014-.887-.021-1.331-.021-.755 0-1.478.02-2.165.053.971-.402 2.137-.796 3.399-1.032.374-.071.751-.126 1.13-.164m-5.68.434c-.346.244-.737.554-1.117.931-.842.084-1.682.193-2.518.328 1.075-.494 2.302-.949 3.635-1.259zm11.87 2.006-.396 2.764-1.893 1.326-4.937-.561-.742-2.447c-.009-.03-.026-.056-.049-.076s-.051-.033-.081-.038c-.183-.029-.344-.044-.479-.044-.136 0-.297.015-.481.044-.03.005-.058.019-.081.039-.022.02-.039.046-.048.075l-.725 2.387-4.909 1.093-1.945-1.363-.384-3.102c.085-.047.169-.094.254-.141.121-.026.256-.054.406-.082l.361 2.927c.005.046.031.086.069.112l1.338.938c.027.019.06.029.093.029.012 0 .023-.001.036-.004l4.036-.898c.014-.003.027-.008.04-.014.019-.01.036-.024.049-.041.014-.016.024-.035.03-.056l.727-2.393c.195-.05.695-.167 1.134-.167.438 0 .937.117 1.133.167l.726 2.393c.01.03.027.057.052.078.024.02.054.033.085.036l4.037.459c.039.005.079-.006.111-.029l1.339-.936c.018-.013.033-.029.044-.048.012-.019.02-.04.023-.062l.357-2.502c.269.052.493.099.67.137zm.498-1.734-.348 1.318c-.71-.156-2.271-.464-4.395-.671.694-.296 1.4-.667 2.046-1.131 1.264.178 2.193.37 2.697.484zm-18.104 0 .097.365c.235-.187.478-.366.727-.536-.276.053-.55.11-.824.171z" fill="#6e6a67"/><path d="m131.351 299.232c-.532-.03-1.064-.056-1.597-.078-.059.088-.12.175-.183.26-.285.386-.847 1.09-1.568 1.693.542-.172 2.693-.893 3.783-1.848-.145-.01-.29-.018-.435-.027zm-3.899-.14.002-.001c-.269-.003-.539-.006-.809-.007-.397.001-.793.006-1.19.013l-.732.346c-.004.002-.007.004-.011.007-.11.053-1.071.538-1.975 1.403.079-.042.163-.085.249-.129.495-.332 1.814-1.12 3.866-1.638.2.001.4.002.6.006m-4.497.088c-.339.016-.678.033-1.016.052-.393.022-.784.049-1.175.078-.195.015-.39.032-.584.052-.056.005-.111.011-.166.019-.511.305-2.466 1.533-3.81 3.139.023-.028.047-.055.071-.083 2.487-2.122 5.214-2.948 6.68-3.257zm11.254 8.727-.045.023c-.25.131-.576.195-.999.195-.251 0-.498-.021-.771-.045-.546-.05-1.47-.159-1.479-.161l-.071-.007-.056-.045c-.008-.006-.817-.651-1.471-1.165-.027-.022-.051-.042-.073-.06-.069-.059-.069-.059-.11-.059-.21 0-.82.19-2.155.603l-.082.027-.082-.031c-.009-.002-.885-.327-1.935-.327-.086 0-.172.002-.255.006-.105.005-.696.286-1.451 1.48l-.049.077-.086.028c-.013.004-1.313.423-2.691.817l-.089.025-.085-.039c-.009-.003-.547-.253-1.06-.488.038.017.076.035.114.052.506.437 1.476 1.278 1.584 1.394.014.017.035.037.06.061-.025-.029-.049-.058-.073-.087l-.001-.001c.224.212.473.395.745.524.136.064.279.113.424.137.073.012.144.018.218.018.075 0 .151-.002.228-.006.303-.015.608-.039.913-.068.305-.028.61-.058.914-.095.304-.033.608-.071.909-.118.151-.022.301-.047.448-.079.072-.017.147-.036.204-.062.052-.025.115-.075.17-.122.114-.098.223-.206.332-.314.108-.109.215-.219.32-.331.179-.187.332-.386.504-.578.023-.024.045-.05.068-.074h.001l.002.002c.036.026.072.053.107.08.208.155.422.323.629.468.267.188.538.376.817.532.07.039.142.075.211.098.009.003.017.005.024.006.005.003.023.006.025.006.014.002.032.003.05.004.038 0 .077-.001.115-.003.158-.011.318-.034.478-.059.32-.05.64-.107.959-.171.32-.061.638-.127.956-.197.318-.068.635-.142.95-.222.157-.042.313-.081.453-.148.143-.066.275-.157.397-.262.246-.209.453-.469.625-.752l-.001.001c.085-.157.157-.32.216-.488zm-5.963-15.031h.562v-1.143h-4.112v1.143h.562v-.58h1.163v3.528h-.479v.655h1.619v-.655h-.478v-3.528h1.163z" fill="#93232c"/><path d="m132.501 299.309c-.001 0-.002-.001-.003-.001-.233-.017-.466-.033-.699-.048l-.013-.001c-1.09.955-3.241 1.677-3.783 1.848-.011.009-.021.018-.032.027.699-.126 1.741-.375 2.824-.854.532-.236 1.074-.527 1.589-.886.04-.028.078-.057.117-.085zm-5.649-.223c-2.052.518-3.371 1.305-3.866 1.638.457-.233.922-.448 1.395-.646.057-.024.114-.047.171-.071l.054-.021c.048-.02.096-.039.144-.058.027-.01.053-.021.08-.031l.132-.051c.033-.013.066-.025.099-.038.041-.015.081-.03.122-.045.039-.015.077-.029.116-.042l.114-.042c.044-.015.088-.03.132-.046l.105-.036c.052-.017.104-.035.156-.052.029-.009.058-.019.086-.028.082-.027.165-.053.249-.079.182-.055.368-.109.557-.16.25-.068.501-.13.754-.187-.2-.003-.4-.004-.6-.005zm-3.897.094c-1.466.309-4.193 1.135-6.68 3.257-.024.028-.048.055-.071.083 1.265-.879 3.438-2.185 6.125-2.98.087-.026.174-.051.262-.076.454-.127.913-.236 1.376-.325-.337.012-.674.026-1.012.041zm11.738 8.493c-.026.012-.052.024-.077.036-.014.006-.028.012-.042.019l-.033.016-.051.024c-.007.004-.014.007-.021.011-.02.009-.039.018-.057.027l-.013.006c-.02.01-.041.02-.06.03l-.007.003c-.043.021-.085.042-.123.062-.059.168-.131.331-.216.488l.001-.001c-.001.001-.001.001-.001.002-.172.282-.379.541-.624.75-.122.104-.255.196-.397.262-.14.067-.297.106-.453.148-.315.079-.632.154-.951.221-.317.071-.636.136-.955.197-.318.064-.638.122-.959.172-.16.025-.32.048-.478.059-.039.002-.077.003-.116.003-.016-.001-.033-.003-.049-.005-.009 0-.017-.002-.026-.006-.008-.001-.016-.003-.023-.005-.069-.023-.141-.06-.211-.098-.279-.157-.55-.345-.817-.532-.207-.145-.422-.313-.63-.468l-.018.025.002.002c.012.012.026.022.038.034v-.001c-.01-.007-.019-.014-.028-.02l.174.207c.001.001.007.009.02.024.089.105.461.536.903.975.336.333.742.501 1.208.501.159 0 .326-.02.494-.061.156-.038.326-.078.5-.12.516-.123 1.088-.26 1.467-.359.026-.006.05-.013.074-.019.054-.014.102-.027.146-.039.074-.021.149-.039.224-.056.46-.106 1.089-.252 1.423-.92.099-.2.2-.398.302-.596.167-.325.335-.648.505-.971l.033-.064zm-7.536 1.441-.03-.029c-.172.193-.325.391-.504.578-.105.113-.212.223-.32.332-.109.108-.218.216-.332.314-.055.047-.118.097-.17.122-.057.026-.132.045-.204.061-.146.033-.297.058-.448.08-.301.047-.605.085-.909.118-.304.037-.609.067-.914.094-.304.03-.608.053-.913.069-.077.003-.153.006-.228.006-.074 0-.145-.006-.218-.018-.145-.024-.288-.074-.424-.137-.272-.129-.521-.312-.745-.524l.001.001c.03.037.063.072.095.107-.008-.007-.015-.014-.022-.021-.025-.023-.046-.043-.061-.06-.107-.117-1.077-.957-1.583-1.394-.038-.018-.076-.035-.114-.053.096.142.192.283.29.424.149.216.302.429.457.64.067.09.135.18.204.269.551.708 1.244 1.363 2.573 1.363.167 0 .344-.01.526-.031.042-.005.083-.009.124-.014.039-.005.077-.009.114-.013 1.156-.133 1.473-.19 1.649-.22.046-.008.085-.015.127-.021.016-.002.033-.005.051-.007.006-.001.397-.051.779-.237.264-.128.523-.32.65-.605.32-.715.385-.886.387-.893z" fill="#731b2a"/><g fill="#0e0f0d"><path d="m130.289 302.615c.068-.002.133-.03.18-.079s.073-.114.072-.182c-.001-.034-.008-.067-.021-.098-.014-.031-.033-.059-.057-.082-.025-.024-.053-.042-.085-.054-.031-.013-.065-.018-.098-.018-.034.001-.067.008-.098.022-.031.013-.059.032-.082.057-.023.024-.042.052-.054.084-.012.031-.018.065-.017.098.001.068.029.133.078.18s.114.073.182.072zm1.576 1.153c-.339-.163-.708.044-1.382.056-.501.018-.922.024-.949-.763-.028-.788.293-1.44.794-1.457.501-.018.959.607 1.02 1.393.017.216-.007.374-.06.492.465-.056.572.26.577.279zm-8.755-.963c.067-.002.132-.031.178-.08.047-.049.072-.115.071-.183-.002-.068-.031-.132-.08-.179-.05-.047-.115-.072-.183-.07-.034 0-.067.008-.098.022-.031.013-.058.033-.081.057-.023.025-.042.054-.054.085s-.017.065-.016.099c0 .033.008.066.022.097.013.031.033.058.057.082.025.023.054.041.085.053s.065.017.099.017zm.774.412c.007.787-.41.74-.911.745-.049.001-.098.002-.148.002-.055.002-.109.002-.161.001-.487-.001-.798-.023-1.074.126.007-.017.128-.287.565-.397-.048-.107-.079-.255-.087-.46-.03-.786.456-1.432.957-1.436.501-.005.851.632.859 1.419zm9.495-5.413c-.004.048-.009.096-.014.145-.199-.054-.398-.104-.599-.15-.662-.146-1.333-.254-2.006-.331-.023-.003-.047-.004-.071-.007.005-.01.009-.02.012-.03.02-.074.037-.147.054-.221.174-.768.165-1.534.145-1.904l2.396.681c.13.852.105 1.519.083 1.817zm-2.98-.457c-.008.028-.007.056 0 .083-.251-.026-.502-.049-.753-.07.281-.59.343-1.218.357-1.439.216-.154.431-.338.589-.482.014.423.004 1.19-.193 1.908zm-7.382.081c.007-.025.007-.053 0-.081-.197-.717-.207-1.484-.194-1.908.159.144.373.328.59.482.013.221.075.848.356 1.438-.251.02-.501.043-.752.069zm-.362.04c-.336.041-.672.083-1.007.139-.334.057-.668.118-.999.191-.201.047-.4.096-.599.15-.002-.016-.004-.04-.007-.071-.023-.247-.067-.958.077-1.89l2.395-.681c-.018.356-.028 1.078.126 1.817.021.103.046.205.074.308.003.01.007.02.011.029-.024.003-.047.005-.071.008zm12.008.967c-.021-.01-.041-.02-.06-.029-.03-.014-.063-.031-.1-.049-.023-.011-.046-.024-.067-.037-.222-.103-.454-.182-.686-.258-.028-.009-.055-.017-.082-.026.002-.006.004-.013.005-.02.004-.027.063-.467.027-1.162-.018-.34-.054-.679-.11-1.016-.005-.029-.018-.056-.038-.079-.02-.022-.045-.038-.074-.046l-.341-.097c-.074-2.642-1.162-3.884-1.196-3.922.972 1.564.964 3.419.947 3.851l-2.117-.602c-.002 0-.003 0-.005-.001-.009-.002-.018-.003-.027-.004-.002 0-.005 0-.008 0-.012-.001-.023 0-.035.003-.001 0-.003.001-.005.001-.01.002-.019.006-.028.01-.003.001-.006.004-.009.004-.007.005-.014.009-.021.014-.002.001-.004.002-.005.004-.002.001-.003.003-.004.004-.002.002-.005.003-.006.005-.002.002-.059.058-.148.141.006-.198.008-.501-.015-.871l-.007-.106c-.066-.93-.286-2.236-.943-3.379.006.016.071.206.155.526.211.803.544 2.43.363 4.195-.001.008-.002.016-.003.024-.002.003-.005.005-.008.007-.081.065-.165.127-.251.186-.021.015-.038.034-.05.056s-.018.047-.019.072c0 .008-.019.797-.367 1.469-.006.011-.009.022-.013.033-.867-.059-1.736-.085-2.604-.085s-1.738.024-2.605.083c-.004-.01-.007-.021-.012-.031-.349-.672-.367-1.461-.368-1.469 0-.026-.007-.05-.019-.072-.011-.022-.028-.041-.049-.056-.089-.061-.176-.125-.261-.193-.176-1.679.115-3.235.326-4.082.101-.402.184-.645.19-.663-.953 1.658-.986 3.659-.964 4.356-.091-.083-.146-.139-.148-.141s-.005-.003-.007-.005l-.003-.004c-.002-.002-.003-.003-.005-.004-.007-.004-.014-.009-.022-.013-.003-.002-.006-.004-.01-.005-.008-.005-.016-.007-.025-.009-.003-.001-.005-.002-.007-.002-.011-.003-.023-.004-.035-.003-.003 0-.006 0-.009 0-.008.001-.017.002-.026.004-.002.001-.003.001-.005.001l-2.116.602c-.017-.432-.026-2.287.946-3.851-.034.038-1.122 1.28-1.196 3.922l-.34.097c-.028.008-.054.024-.074.046s-.034.05-.038.079c-.056.336-.093.675-.111 1.015-.036.696.024 1.136.028 1.163.001.007.003.013.004.02-.027.009-.055.017-.082.025-.232.076-.465.156-.687.259-.02.013-.041.025-.063.035l-.003.002c-.038.019-.071.035-.1.049l-.052.025c-.011.007-.023.012-.033.019.157-.062.319-.107.481-.147.163-.04.327-.076.491-.107.33-.062.66-.115.993-.155.331-.044.664-.08.997-.108.334-.028.667-.056 1.001-.075 1.337-.08 2.677-.105 4.018-.105 1.341.001 2.681.022 4.017.104.335.019.667.047 1.002.076.333.028.665.064.997.108.332.04.663.093.992.154.165.031.328.067.49.108.164.04.325.085.483.147-.009-.005-.018-.01-.026-.015z"/><path d="m127.083 292.296v3.528h.478v.655h-1.619v-.655h.479v-3.528h-1.163v.58h-.562v-1.143h4.112v1.143h-.562v-.58zm2.149 1.002v-1.988h-4.959v1.988h1.408v-.58h.317v2.683h-.478v1.5h2.464v-1.5h-.479v-2.683h.318v.58z"/></g></g><g filter="url(#d)"><path d="m189.75 168.535c12.15 0 22-9.85 22-22s-9.85-22-22-22-22 9.85-22 22 9.85 22 22 22z" fill="#fff"/></g><g clip-path="url(#z)"><path d="m187.032 146.828c-.001-.366.072-.729.214-1.068s.35-.647.613-.906.575-.465.919-.605c.344-.141.712-.213 1.084-.213 1.564 0 2.839 1.257 2.839 2.792 0 1.536-1.275 2.792-2.839 2.792-.751-.003-1.47-.298-2-.821s-.829-1.232-.83-1.971zm2.831-11.733c-5.561 0-10.219 3.754-11.542 8.823-.011.038-.011.069-.011.119 0 .305.252.565.57.565h4.801c.109.002.216-.028.307-.087.091-.058.162-.142.205-.241.992-2.112 3.157-3.59 5.674-3.59 3.44 0 6.239 2.757 6.239 6.149 0 3.391-2.799 6.149-6.243 6.149-2.513 0-4.68-1.467-5.67-3.591-.097-.187-.287-.328-.512-.328h-4.801c-.075-.001-.149.014-.219.042-.069.028-.132.069-.185.121s-.095.114-.123.183c-.029.068-.043.141-.043.215 0 .038.015.073.015.118 1.311 5.065 5.977 8.819 11.538 8.819 6.577 0 11.914-5.255 11.914-11.733 0-6.474-5.337-11.733-11.914-11.733z" fill="#000"/></g><g filter="url(#e)"><path d="m233.25 83.5349c20.711 0 37.5-16.7894 37.5-37.5 0-20.7107-16.789-37.50005-37.5-37.50005s-37.5 16.78935-37.5 37.50005c0 20.7106 16.789 37.5 37.5 37.5z" fill="#fff"/></g><g clip-path="url(#A)"><path d="m220.873 65.1965-1.785-36.5799h-1.338l1.338 36.5799z" fill="#b57ee5"/><path d="m221.616 65.1965-1.784-36.5799 29.145-2.0818v40z" fill="#f1618c"/><g fill="#fff"><path d="m241.542 31.8879.371-4.9814 3.495-.2974v5.2788l-1.757-1.5895z"/><path d="m236.879 42.1898 5.745-.1427c.143-5.5673-2.748-8.3153-7.78-8.3153s-7.851 2.855-7.851 7.1376c0 7.4587 9.636 7.6014 9.636 11.6698 0 1.1421-.536 1.8201-1.713 1.8201-1.535 0-2.141-.9992-2.07-3.7829h-6.031c-.464 6.8878 3.568 8.458 8.172 8.458 4.461 0 7.959-2.0699 7.959-6.5665 0-7.9941-9.779-7.78-9.779-11.7413 0-1.6059 1.142-1.8201 1.82-1.8201.714 0 1.999.2855 1.892 3.2833z"/></g></g><g filter="url(#f)"><path d="m206.75 300.535c30.376 0 55-24.625 55-55 0-30.376-24.624-55-55-55s-55 24.624-55 55c0 30.375 24.624 55 55 55z" fill="#fff"/></g><g clip-path="url(#B)"><path clip-rule="evenodd" d="m178.15 245.529c9.09-12.218 18.89-18.328 29.4-18.328 10.511 0 20.266 6.11 29.267 18.328-9.001 12.29-18.757 18.435-29.267 18.435s-20.31-6.145-29.4-18.435z" fill="url(#l)" fill-rule="evenodd"/><path clip-rule="evenodd" d="m207.694 260.883c8.485 0 15.364-6.875 15.364-15.355s-6.879-15.355-15.364-15.355c-8.486 0-15.365 6.875-15.365 15.355 0 2.374-.486 12.983.796 10.207s1.454-3.484 2.263-2.513c2.819 3.38 7.559 7.66 12.306 7.66z" fill="#fff" fill-rule="evenodd"/><path d="m207.704 256.039c5.805 0 10.511-4.706 10.511-10.511 0-5.806-4.706-10.512-10.511-10.512-5.806 0-10.512 4.706-10.512 10.512 0 5.805 4.706 10.511 10.512 10.511z" fill="url(#m)"/><g clip-rule="evenodd" fill-rule="evenodd"><path d="m211.684 255.27c5.39-2.177 7.995-8.31 5.816-13.698.001 10.922-11.831 13.157-15.897 9.09-4.066-4.068-3.444-12.57 2.195-14.905-5.39 2.177-7.994 8.31-5.816 13.699 2.177 5.388 8.312 7.992 13.702 5.814z" fill="url(#n)"/><path d="m211.64 254c4.492-1.761 7.733-7.717 5.555-13.106 0 10.922-8.966 12.007-13.032 7.94s-2.18-10.976.891-12.963c-5.39 2.177-7.998 7.575-5.82 12.963 2.178 5.389 7.915 6.928 12.406 5.166z" fill="url(#o)"/></g></g><g filter="url(#g)"><path d="m50.25 146.535c22.9198 0 41.5-18.58 41.5-41.5s-18.5802-41.5001-41.5-41.5001-41.5 18.5801-41.5 41.5001 18.5802 41.5 41.5 41.5z" fill="#fff"/></g><g clip-path="url(#C)"><path d="m50.8034 127.721c12.2239 0 22.1333-9.909 22.1333-22.133 0-12.2238-9.9094-22.1332-22.1333-22.1332s-22.1334 9.9094-22.1334 22.1332c0 12.224 9.9095 22.133 22.1334 22.133z" fill="#000"/><path d="m65.438 122.193-19.7642-25.4582h-3.7237v17.6992h2.979v-13.916l18.1704 23.476c.8186-.548 1.5998-1.149 2.3385-1.801z" fill="url(#q)"/><path d="m56.9517 96.7348h2.9511v17.7062h-2.9511z" fill="url(#r)"/></g><g filter="url(#h)"><path d="m329.25 182.535c17.397 0 31.5-14.103 31.5-31.5s-14.103-31.5-31.5-31.5-31.5 14.103-31.5 31.5 14.103 31.5 31.5 31.5z" fill="#fff"/></g><g clip-path="url(#D)"><path d="m331.497 164.047-.569 1.382c-.113.273-.371.459-.662.471-.192.007-.386.013-.582.013-6.697-.004-12.622-4.74-14.09-11.266l-2.28.516c.824 3.661 2.892 6.983 5.823 9.357 2.965 2.402 6.701 3.728 10.522 3.735h.034c.225 0 .447-.006.67-.015 1.199-.05 2.27-.804 2.728-1.921l.743-1.806z" fill="url(#s)"/><path d="m313.501 155.906c-.396-1.45-.596-2.947-.596-4.45 0-6.89 4.314-13.189 10.734-15.673l.842 2.185c-5.527 2.139-9.239 7.559-9.239 13.488 0 1.293.172 2.581.512 3.829z" fill="url(#t)"/><path d="m342.528 144.8c-2.499-4.812-7.417-7.801-12.833-7.801-1.918 0-3.783.37-5.539 1.099l-.895-2.164c2.04-.847 4.205-1.279 6.434-1.279 6.292 0 12.003 3.471 14.906 9.062z" fill="url(#u)"/><path d="m324.682 147.989c1.355 0 2.459.725 3.026 1.99l.045.099 2.276-.775-.048-.117c-.882-2.154-2.912-3.492-5.299-3.492-1.678 0-3.042.54-4.17 1.648-1.12 1.101-1.687 2.486-1.687 4.117 0 1.617.567 2.995 1.687 4.096 1.128 1.108 2.492 1.648 4.17 1.648 2.387 0 4.417-1.338 5.299-3.49l.048-.117-2.279-.777-.043.103c-.508 1.243-1.639 1.986-3.025 1.986-.944 0-1.741-.331-2.373-.983-.639-.66-.962-1.489-.962-2.464 0-.982.316-1.795.962-2.486.63-.655 1.429-.986 2.373-.986z" fill="#09293f"/><path d="m338.938 145.906-3.244 8.233-3.265-8.233h-2.671l4.579 11.238-3.258 7.925 2.336.466 8.046-19.629z" fill="#09293f"/><path d="m344.601 143.717c1.181 2.302 1.904 5.006 1.904 7.773 0 6.458-3.631 12.064-8.958 14.876l-1.151-2.04c4.619-2.409 7.774-7.253 7.774-12.836 0-2.423-.592-4.684-1.642-6.69z" fill="url(#v)"/></g><g filter="url(#i)"><path d="m205.75 419.535c16.016 0 29-12.984 29-29s-12.984-29-29-29-29 12.984-29 29 12.984 29 29 29z" fill="#fff"/></g><g clip-path="url(#E)"><path d="m216.576 392.759h-20.291v-1.145c0-.769.623-1.392 1.392-1.392h17.507c.769 0 1.392.623 1.392 1.392z" fill="#dfdedf"/><path d="m215.162 406.029h-17.464c-.78 0-1.413-.633-1.413-1.414v-11.856h20.291v11.856c0 .781-.633 1.414-1.414 1.414" fill="#fff"/><path d="m216.324 392.528v-1.026c0-.606-.491-1.097-1.097-1.097h-17.562c-.606 0-1.097.491-1.097 1.097v1.026zm0 12.234v-11.773h-19.756v11.773c0 .606.491 1.097 1.097 1.097h17.562c.606 0 1.097-.491 1.097-1.097zm-18.556-14.817.068-.746-.29.752c.04-.003.079-.006.119-.006zm17.236-1.257.101 1.257h.122c.065 0 .129.006.193.013zm1.393 1.79c.24.274.387.632.387 1.024v13.26c0 .859-.698 1.557-1.557 1.557h-17.562c-.858 0-1.557-.698-1.557-1.557v-13.26c0-.416.165-.793.432-1.073l1.552-4.024.677-7.394.764.07-.61 6.662.215.083-.292.756-.308 3.363h15.798l-.877-10.883.764-.061.517 6.418h.001zm-18.58.677c.046 0 .092.008.134.025.043.017.082.043.115.075.033.033.059.071.077.114.017.042.026.088.026.134s-.009.092-.026.134c-.018.043-.044.081-.077.113-.033.033-.072.058-.115.075-.042.017-.088.026-.134.025-.092-.001-.179-.038-.243-.103s-.099-.153-.099-.244.035-.179.099-.244.151-.102.243-.104zm1.188 0c.046 0 .092.008.134.025.043.017.082.043.115.075.033.033.059.071.076.114.018.042.027.088.027.134s-.009.092-.027.134c-.017.043-.043.081-.076.113-.033.033-.072.058-.115.075-.042.017-.088.026-.134.025-.092-.001-.179-.038-.243-.103s-.099-.153-.099-.244.035-.179.099-.244.151-.102.243-.104zm1.15 0c.046 0 .092.008.135.025.042.017.081.043.114.075.033.033.059.071.077.114.018.042.027.088.027.134s-.009.092-.027.134c-.018.043-.044.081-.077.113-.033.033-.072.058-.114.075-.043.017-.089.026-.135.025-.091-.001-.178-.038-.242-.103s-.1-.153-.1-.244.036-.179.1-.244.151-.102.242-.104z" fill="#000"/><path d="m199.017 398.695c.06-.069.091-.16.091-.273 0-.112-.031-.199-.091-.268-.062-.07-.151-.102-.264-.102h-.553v.745h.553c.113 0 .202-.033.264-.102zm-.264-1.09c.239 0 .428.073.569.221.142.149.211.349.211.597 0 .25-.069.446-.208.595-.141.149-.33.226-.572.226h-.553v1.002h-.427v-2.641zm2.306 1.62v-.771h.46v1.74h-.46v-.157c-.14.14-.321.209-.548.209-.209 0-.376-.069-.505-.205s-.192-.311-.192-.527v-1.06h.46v.963c0 .121.032.223.098.296.063.073.146.111.254.111.29 0 .433-.198.433-.599zm2.255.477c.091-.094.136-.219.136-.376s-.045-.286-.136-.38c-.094-.094-.209-.143-.352-.143-.129 0-.244.049-.345.146-.101.098-.15.223-.15.377 0 .153.049.279.15.373.101.098.216.146.345.146.143 0 .258-.048.352-.143zm-.272-1.3c.227 0 .429.087.6.262.171.177.254.397.254.662s-.083.484-.254.659c-.171.174-.37.261-.6.261-.226 0-.418-.063-.575-.188v.966h-.46v-2.57h.46v.14c.154-.129.345-.192.575-.192zm2.51 1.3c.091-.094.136-.219.136-.376s-.045-.286-.136-.38c-.094-.094-.209-.143-.352-.143-.129 0-.244.049-.345.146-.101.098-.15.223-.15.377 0 .153.049.279.15.373.101.098.216.146.345.146.143 0 .258-.048.352-.143zm-.272-1.3c.227 0 .429.087.6.262.171.177.255.397.255.662s-.084.484-.255.659c-.171.174-.369.261-.6.261-.226 0-.418-.063-.575-.188v.966h-.46v-2.57h.46v.14c.154-.129.345-.192.575-.192zm1.534.722h.84c-.027-.108-.08-.189-.153-.241s-.16-.08-.258-.08c-.095 0-.187.029-.265.084-.084.055-.139.136-.164.237zm.429-.722c.237 0 .443.084.614.248.17.167.258.38.268.641v.157h-1.325c.025.122.077.219.157.293.08.073.171.111.279.111.199 0 .342-.076.432-.23l.412.087c-.073.178-.185.311-.331.401-.147.091-.318.136-.513.136-.251 0-.464-.087-.634-.258-.171-.17-.259-.394-.259-.662s.088-.492.262-.666c.171-.171.384-.258.638-.258zm2.151 1.416c.087 0 .185-.028.289-.084l.133.383c-.161.087-.31.129-.453.129-.213 0-.38-.059-.502-.174s-.182-.286-.182-.519v-.722h-.373v-.377h.373v-.526h.46v.526h.569v.377h-.569v.687c0 .198.084.3.255.3zm.965-.694h.841c-.028-.108-.081-.189-.154-.241s-.16-.08-.258-.08c-.095 0-.187.029-.265.084-.083.055-.139.136-.164.237zm.429-.722c.237 0 .443.084.614.248.171.167.258.38.268.641v.157h-1.324c.024.122.076.219.157.293.08.073.17.111.278.111.199 0 .342-.076.433-.23l.411.087c-.073.178-.185.311-.331.401-.147.091-.317.136-.513.136-.251 0-.463-.087-.634-.258-.171-.17-.258-.394-.258-.662s.087-.492.261-.666c.171-.171.384-.258.638-.258zm1.639.722h.84c-.028-.108-.08-.189-.153-.241-.074-.052-.161-.08-.259-.08-.094 0-.187.029-.264.084-.084.055-.14.136-.164.237zm.429-.722c.237 0 .442.084.613.248.171.167.258.38.269.641v.157h-1.325c.024.122.077.219.157.293.08.073.171.111.279.111.198 0 .341-.076.432-.23l.411.087c-.073.178-.184.311-.331.401-.146.091-.317.136-.512.136-.251 0-.464-.087-.635-.258-.171-.17-.258-.394-.258-.662s.087-.492.261-.666c.171-.171.384-.258.639-.258zm2.314.028c.053 0 .095.003.122.014l-.024.443h-.101c-.415 0-.621.247-.621.746v.561h-.46v-1.74h.46v.318c.157-.227.366-.342.624-.342z" fill="#000"/><path d="m213.157 386.167 2.483-1.198v-1.199l-5.736-2.74 5.736-2.953v-1.156l-2.397-1.113-6.792 3.382-6.907-3.382-2.226 1.199v1.027l5.394 2.954-5.394 2.739v1.242l2.312 1.198 6.849-3.51z" fill="#00d8a2"/><path d="m213.469 385.679v-.517l1.869-.968v.58zm-16-1.499 1.806 1.037v.413l-1.806-.914zm9.25-2.18 6.213 3.07v.617l-6.213-3.183zm-6.907 3.159 6.371-3.158v.503l-6.371 3.223zm4.511-5.161-6.447-3.113 1.67-.848 6.905 3.58 6.79-3.579 1.728.886-6.286 3.164c-.252.126-.251.485 0 .611l6.222 3.114-1.613.836-6.841-3.506-6.963 3.577-1.59-.912 6.428-3.196c.255-.126.253-.49-.003-.614zm-6.774-2.058v-.567l6.013 3-.608.243zm12.329 2.709c-.008-.005-.575-.272-.575-.272l6.034-3.038v.569l-5.458 2.742zm.605.298 5.304-2.663c.026-.014.048-.034.064-.059.015-.025.023-.054.023-.084v-1.259c0-.03-.008-.058-.023-.083s-.037-.046-.063-.059l-2.474-1.267c-.023-.012-.047-.018-.072-.018-.026 0-.05.006-.073.017l-6.647 3.374c-.022.011-.046.017-.071.017s-.05-.006-.072-.017l-6.764-3.375c-.022-.011-.047-.016-.072-.016-.024 0-.049.006-.071.017l-2.453 1.247c-.026.013-.048.033-.063.058-.016.025-.024.054-.024.083v1.281c0 .06.034.116.089.142l5.326 2.632-5.302 2.633c-.026.013-.048.032-.063.057-.016.025-.024.053-.025.082l-.023 1.259c-.001.03.007.06.023.085.015.026.037.047.064.06l2.547 1.289c.022.011.047.017.072.017s.049-.006.071-.017l6.668-3.348c.022-.011.047-.017.072-.017s.049.006.071.017l6.585 3.348c.022.011.046.017.071.017.024.001.048-.005.07-.015l2.537-1.228c.027-.013.049-.034.065-.059s.024-.054.024-.084v-1.316c0-.03-.008-.059-.024-.084-.015-.025-.038-.046-.064-.059z" fill="#000"/></g><g filter="url(#j)"><path d="m59.75 252.535c16.5685 0 30-13.432 30-30 0-16.569-13.4315-30-30-30s-30 13.431-30 30c0 16.568 13.4315 30 30 30z" fill="#fff"/></g><g clip-path="url(#F)"><path d="m54.6976 224.479c-1.1945.339-1.9783.933-2.4945 1.527.4945-.433 1.1568-.83 2.0502-1.083.9139-.259 1.6935-.257 2.3378-.133v-.504c-.5496-.05-1.1796-.01-1.8935.193zm-2.5492-4.235-4.4362 1.169s.0807.114.2305.267l3.7615-.992s-.0534.687-.5163 1.302c.8757-.663.9605-1.746.9605-1.746zm3.7137 10.426c-6.2433 1.682-9.5463-5.553-10.5463-9.309-.462-1.733-.6638-3.046-.7175-3.893-.0051-.077-.0041-.154.0031-.23-.3238.019-.4789.188-.4474.674.0538.847.2555 2.16.7175 3.894.9997 3.754 4.303 10.99 10.5463 9.308 1.3589-.366 2.3798-1.033 3.1463-1.884-.7065.638-1.5905 1.14-2.702 1.44zm1.173-14.854v.444h2.4488c-.0502-.157-.1008-.299-.151-.444z" fill="#2d4552"/><path d="m60.0313 219.475c1.1012.313 1.6837 1.085 1.9916 1.769l1.228.348s-.1675-2.391-2.3306-3.005c-2.0237-.575-3.2689 1.124-3.4204 1.344.5887-.42 1.4482-.763 2.5314-.456zm9.7746 1.78c-2.0255-.578-3.2702 1.125-3.4195 1.342.5892-.419 1.4483-.763 2.5309-.454 1.0996.313 1.6815 1.085 1.9904 1.768l1.2296.35s-.1701-2.391-2.3314-3.006zm-1.22 6.305-10.2148-2.856s.1107.561.5349 1.287l8.6004 2.404c.708-.409 1.0795-.835 1.0795-.835zm-7.0819 6.147c-8.0881-2.169-7.1104-12.474-5.8016-17.357.5388-2.013 1.0928-3.509 1.5524-4.511-.2742-.057-.5013.088-.7256.544-.488.989-1.1117 2.6-1.7152 4.855-1.3084 4.883-2.2863 15.188 5.8015 17.357 3.8122 1.021 6.7821-.531 8.9958-2.969-2.1012 1.904-4.7843 2.971-8.1073 2.081z" fill="#2d4552"/><path d="m57.035 228.255v-2.079l-5.7779 1.638s.4269-2.48 3.4403-3.335c.9139-.259 1.6936-.257 2.3376-.133v-8.53h2.8932c-.315-.973-.6198-1.723-.8758-2.243-.4234-.862-.8574-.291-1.8426.533-.694.58-2.4479 1.817-5.0873 2.528-2.6393.712-4.7732.523-5.6634.369-1.2621-.218-1.9223-.495-1.8605.465.0537.847.2554 2.159.7175 3.893.9995 3.755 4.303 10.99 10.5463 9.309 1.6307-.439 2.7817-1.308 3.5796-2.415zm-9.3235-6.842 4.4367-1.169s-.1292 1.707-1.7925 2.145c-1.6637.438-2.6442-.976-2.6442-.976z" fill="#e2574c"/><path d="m73.733 215.915c-1.1532.202-3.9201.454-7.3395-.463-3.4204-.916-5.6896-2.518-6.5888-3.271-1.2746-1.067-1.8352-1.809-2.387-.687-.4877.99-1.1116 2.601-1.7154 4.856-1.3082 4.883-2.2861 15.188 5.8017 17.357 8.0859 2.166 12.3908-7.248 13.6992-12.131.6037-2.255.8685-3.962.9412-5.063.0832-1.247-.7733-.885-2.4112-.598zm-16.2495 4.04s1.2745-1.982 3.4362-1.368c2.1632.614 2.3307 3.006 2.3307 3.006zm5.2769 8.895c-3.8024-1.113-4.3888-4.146-4.3888-4.146l10.2143 2.856s-2.0618 2.39-5.8255 1.29zm3.6112-6.231s1.2729-1.981 3.4343-1.365c2.1613.616 2.3314 3.007 2.3314 3.007l-5.7655-1.642z" fill="#2ead33"/><path d="m55.016 226.749-3.7588 1.065s.4083-2.326 3.1773-3.248l-2.1283-7.988-.1838.056c-2.6394.712-4.7732.523-5.6634.369-1.2622-.218-1.9224-.495-1.8607.465.0538.847.2555 2.16.7175 3.893.9997 3.755 4.3032 10.991 10.5463 9.309l.1839-.058-1.0299-3.864zm-7.3044-5.336 4.4368-1.169s-.1293 1.707-1.7925 2.145c-1.6638.438-2.6443-.976-2.6443-.976z" fill="#d65348"/><path d="m62.9319 228.892-.172-.042c-3.8024-1.113-4.3888-4.145-4.3888-4.145l5.2671 1.472 2.7886-10.716-.0338-.009c-3.4203-.916-5.6895-2.518-6.5888-3.271-1.2745-1.067-1.8352-1.809-2.387-.687-.4872.99-1.1111 2.601-1.7149 4.856-1.3082 4.883-2.2861 15.188 5.8017 17.356l.1657.038zm-5.4484-8.937s1.2745-1.983 3.4362-1.368c2.1632.614 2.3307 3.006 2.3307 3.006z" fill="#1d8d22"/><path d="m55.2074 226.694-1.008.286c.2382 1.343.658 2.631 1.3167 3.769.1148-.025.2285-.047.3453-.079.3061-.082.59-.185.8632-.296-.7362-1.093-1.2231-2.351-1.5171-3.68zm-.3935-9.456c-.518 1.934-.9815 4.717-.8539 7.508.2282-.099.4695-.192.7375-.268l.1865-.041c-.2275-2.982.2643-6.02.8183-8.087.1313-.49.2719-.978.4216-1.463-.244.156-.493.304-.7468.443-.2042.631-.392 1.268-.5632 1.908z" fill="#c04b41"/></g><g filter="url(#k)"><path d="m333.75 433.535c19.882 0 36-16.118 36-36s-16.118-36-36-36-36 16.118-36 36 16.118 36 36 36z" fill="#fff"/></g><path d="m335.362 380.735c8.89 0 13.308 4.231 13.308 10.99 0 5.056-3.108 8.353-7.308 8.902 3.545.715 5.617 2.748 5.999 6.76l.056.737.048.69.042.645.029.487.031.573.016.328.023.52.018.492.009.282.013.453.011.518.003.25.007.724.003.757v.452h-9.168v-.189l.003-.366.006-.357.016-.864.004-.29.003-.454v-.291l-.003-.304-.004-.239-.007-.335-.011-.355-.015-.378-.018-.402-.012-.211-.018-.33-.022-.346-.033-.489-.029-.39c-.008-.117-.018-.234-.029-.351l-.023-.225c-.303-2.657-1.357-3.744-3.162-4.106l-.152-.028c-.105-.019-.21-.034-.315-.048l-.163-.019c-.027-.003-.055-.006-.083-.008l-.167-.015-.172-.012-.174-.01-.177-.006-.179-.005-.184-.002h-14.512v-7.199h14.856c.243 0 .478-.005.706-.014l.225-.011.221-.014.215-.018c.036-.003.071-.006.106-.01l.208-.022c.134-.016.267-.034.4-.055l.193-.033c2.411-.437 3.616-1.717 3.616-4.214 0-2.803-1.963-4.501-5.89-4.501h-14.856v-7.044zm-6.798 29.193c1.203 0 1.706.668 1.885 1.307l.024.092.02.091.012.072.006.036.009.07.006.069.003.033.004.067.001.032.001.063v3.435h-11.665v-5.367z" fill="#121212"/></svg>