<svg fill="none" height="345" viewBox="0 0 443 345" width="443" xmlns="http://www.w3.org/2000/svg" xmlns:xlink="http://www.w3.org/1999/xlink"><linearGradient id="a" gradientUnits="userSpaceOnUse" x1="148.777" x2="120.651" y1="78.1359" y2="108.5"><stop offset="0" stop-color="#804fce"/><stop offset="1" stop-color="#2d3383"/></linearGradient><radialGradient id="b" cx="0" cy="0" gradientTransform="matrix(23.2789 0 0 23.2626 125.978 85.7951)" gradientUnits="userSpaceOnUse" r="1"><stop offset="0" stop-color="#311476"/><stop offset="1" stop-color="#2b214f"/></radialGradient><radialGradient id="c" cx="0" cy="0" gradientTransform="matrix(23.63793173 12.06752217 -12.06001978 23.62323601 90.6544 115.327)" gradientUnits="userSpaceOnUse" r="1"><stop offset="0" stop-color="#1b357a"/><stop offset="1" stop-color="#512bcd"/></radialGradient><radialGradient id="d" cx="0" cy="0" gradientTransform="matrix(21.63065329 16.73665016 -16.29200563 21.05598921 86.5886 117.82)" gradientUnits="userSpaceOnUse" r="1"><stop offset="0" stop-color="#493ca8"/><stop offset="1" stop-color="#512bcc"/></radialGradient><linearGradient id="e"><stop offset="0" stop-color="#1e8e3e"/><stop offset="1" stop-color="#34a853"/></linearGradient><linearGradient id="f" gradientUnits="userSpaceOnUse" x1="48.1953" x2="38.635" xlink:href="#e" y1="303.35" y2="286.791"/><linearGradient id="g"><stop offset="0" stop-color="#fcc934"/><stop offset="1" stop-color="#fbbc04"/></linearGradient><linearGradient id="h" gradientUnits="userSpaceOnUse" x1="45.3899" x2="54.9502" xlink:href="#g" y1="304.069" y2="287.51"/><linearGradient id="i"><stop offset="0" stop-color="#d93025"/><stop offset="1" stop-color="#ea4335"/></linearGradient><linearGradient id="j" gradientUnits="userSpaceOnUse" x1="37.4396" x2="56.5603" xlink:href="#i" y1="288.861" y2="288.861"/><linearGradient id="k"><stop offset="0" stop-color="#0c59a4"/><stop offset="1" stop-color="#114a8b"/></linearGradient><linearGradient id="l" gradientUnits="userSpaceOnUse" x1="57.0242" x2="72.405" xlink:href="#k" y1="297.23" y2="297.23"/><linearGradient id="m"><stop offset=".72" stop-opacity="0"/><stop offset=".95" stop-opacity=".53"/><stop offset="1"/></linearGradient><radialGradient id="n" cx="0" cy="0" gradientTransform="matrix(8.22601 0 0 7.81471 65.5193 297.351)" gradientUnits="userSpaceOnUse" r="1" xlink:href="#m"/><linearGradient id="o"><stop offset="0" stop-color="#1b9de2"/><stop offset=".16" stop-color="#1595df"/><stop offset=".67" stop-color="#0680d7"/><stop offset="1" stop-color="#0078d4"/></linearGradient><linearGradient id="p" gradientUnits="userSpaceOnUse" x1="65.133" x2="55.5262" xlink:href="#o" y1="290.558" y2="301.022"/><linearGradient id="q"><stop offset=".76" stop-opacity="0"/><stop offset=".95" stop-opacity=".5"/><stop offset="1"/></linearGradient><radialGradient id="r" cx="0" cy="0" gradientTransform="matrix(1.85303732 -12.23011573 9.88072965 1.49707175 58.0484 299.123)" gradientUnits="userSpaceOnUse" r="1" xlink:href="#q"/><linearGradient id="s"><stop offset="0" stop-color="#35c1f1"/><stop offset=".11" stop-color="#34c1ed"/><stop offset=".23" stop-color="#2fc2df"/><stop offset=".31" stop-color="#2bc3d2"/><stop offset=".67" stop-color="#36c752"/></linearGradient><radialGradient id="t" cx="0" cy="0" gradientTransform="matrix(-.69833849 17.45853887 -37.18296578 -1.4873121 54.1905 286.046)" gradientUnits="userSpaceOnUse" r="1" xlink:href="#s"/><linearGradient id="u"><stop offset="0" stop-color="#66eb6e"/><stop offset="1" stop-color="#66eb6e" stop-opacity="0"/></linearGradient><radialGradient id="v" cx="0" cy="0" gradientTransform="matrix(2.35061334 8.05924819 -6.55378576 1.91152026 72.6649 288.636)" gradientUnits="userSpaceOnUse" r="1" xlink:href="#u"/><linearGradient id="w" gradientUnits="userSpaceOnUse" x1="178.195" x2="168.635" xlink:href="#e" y1="275.35" y2="258.791"/><linearGradient id="x" gradientUnits="userSpaceOnUse" x1="175.39" x2="184.95" xlink:href="#g" y1="276.069" y2="259.51"/><linearGradient id="y" gradientUnits="userSpaceOnUse" x1="167.44" x2="186.56" xlink:href="#i" y1="260.861" y2="260.861"/><linearGradient id="z" gradientUnits="userSpaceOnUse" x1="187.024" x2="202.405" xlink:href="#k" y1="269.23" y2="269.23"/><radialGradient id="A" cx="0" cy="0" gradientTransform="matrix(8.22601 0 0 7.81471 195.519 269.351)" gradientUnits="userSpaceOnUse" r="1" xlink:href="#m"/><linearGradient id="B" gradientUnits="userSpaceOnUse" x1="195.133" x2="185.526" xlink:href="#o" y1="262.558" y2="273.022"/><radialGradient id="C" cx="0" cy="0" gradientTransform="matrix(1.85303732 -12.23011573 9.88072965 1.49707175 188.048 271.123)" gradientUnits="userSpaceOnUse" r="1" xlink:href="#q"/><radialGradient id="D" cx="0" cy="0" gradientTransform="matrix(-.69833849 17.45853887 -37.18296578 -1.4873121 184.19 258.046)" gradientUnits="userSpaceOnUse" r="1" xlink:href="#s"/><radialGradient id="E" cx="0" cy="0" gradientTransform="matrix(2.35061334 8.05924819 -6.55378576 1.91152026 202.665 260.636)" gradientUnits="userSpaceOnUse" r="1" xlink:href="#u"/><linearGradient id="F" gradientUnits="userSpaceOnUse" x1="217.778" x2="199.34" y1="257.031" y2="274.732"><stop offset=".048" stop-color="#fff44f"/><stop offset=".111" stop-color="#ffe847"/><stop offset=".225" stop-color="#ffc830"/><stop offset=".368" stop-color="#ff980e"/><stop offset=".401" stop-color="#ff8b16"/><stop offset=".462" stop-color="#ff672a"/><stop offset=".534" stop-color="#ff3647"/><stop offset=".705" stop-color="#e31587"/></linearGradient><radialGradient id="G" cx="0" cy="0" gradientTransform="matrix(23.0435 0 0 23.1584 216.93 256.024)" gradientUnits="userSpaceOnUse" r="1"><stop offset=".129" stop-color="#ffbd4f"/><stop offset=".186" stop-color="#ffac31"/><stop offset=".247" stop-color="#ff9d17"/><stop offset=".283" stop-color="#ff980e"/><stop offset=".403" stop-color="#ff563b"/><stop offset=".467" stop-color="#ff3750"/><stop offset=".71" stop-color="#f5156c"/><stop offset=".782" stop-color="#eb0878"/><stop offset=".86" stop-color="#e50080"/></radialGradient><radialGradient id="H" cx="0" cy="0" gradientTransform="matrix(23.0435 0 0 23.1584 208.509 265.492)" gradientUnits="userSpaceOnUse" r="1"><stop offset=".3" stop-color="#960e18"/><stop offset=".351" stop-color="#b11927" stop-opacity=".74"/><stop offset=".435" stop-color="#db293d" stop-opacity=".343"/><stop offset=".497" stop-color="#f5334b" stop-opacity=".094"/><stop offset=".53" stop-color="#ff3750" stop-opacity="0"/></radialGradient><radialGradient id="I" cx="0" cy="0" gradientTransform="matrix(16.694 0 0 16.7773 211.288 250.768)" gradientUnits="userSpaceOnUse" r="1"><stop offset=".132" stop-color="#fff44f"/><stop offset=".252" stop-color="#ffdc3e"/><stop offset=".506" stop-color="#ff9d12"/><stop offset=".526" stop-color="#ff980e"/></radialGradient><radialGradient id="J" cx="0" cy="0" gradientTransform="matrix(10.972 0 0 11.0267 205.961 271.541)" gradientUnits="userSpaceOnUse" r="1"><stop offset=".353" stop-color="#3a8ee6"/><stop offset=".472" stop-color="#5c79f0"/><stop offset=".669" stop-color="#9059ff"/><stop offset="1" stop-color="#c139e6"/></radialGradient><radialGradient id="K" cx="0" cy="0" gradientTransform="matrix(5.65439438 -1.37387693 1.61559235 6.64921003 209.769 263.594)" gradientUnits="userSpaceOnUse" r="1"><stop offset=".206" stop-color="#9059ff" stop-opacity="0"/><stop offset=".278" stop-color="#8c4ff3" stop-opacity=".064"/><stop offset=".747" stop-color="#7716a8" stop-opacity=".45"/><stop offset=".975" stop-color="#6e008b" stop-opacity=".6"/></radialGradient><radialGradient id="L" cx="0" cy="0" gradientTransform="matrix(7.89327 0 0 7.93261 208.218 255.076)" gradientUnits="userSpaceOnUse" r="1"><stop offset="0" stop-color="#ffe226"/><stop offset=".121" stop-color="#ffdb27"/><stop offset=".295" stop-color="#ffc82a"/><stop offset=".502" stop-color="#ffa930"/><stop offset=".732" stop-color="#ff7e37"/><stop offset=".792" stop-color="#ff7139"/></radialGradient><radialGradient id="M" cx="0" cy="0" gradientTransform="matrix(33.677 0 0 33.8449 214.423 250.045)" gradientUnits="userSpaceOnUse" r="1"><stop offset=".113" stop-color="#fff44f"/><stop offset=".456" stop-color="#ff980e"/><stop offset=".622" stop-color="#ff5634"/><stop offset=".716" stop-color="#ff3647"/><stop offset=".904" stop-color="#e31587"/></radialGradient><radialGradient id="N" cx="0" cy="0" gradientTransform="matrix(2.59031168 24.66877672 -16.11132363 1.69174785 211.584 251.927)" gradientUnits="userSpaceOnUse" r="1"><stop offset="0" stop-color="#fff44f"/><stop offset=".06" stop-color="#ffe847"/><stop offset=".168" stop-color="#ffc830"/><stop offset=".304" stop-color="#ff980e"/><stop offset=".356" stop-color="#ff8b16"/><stop offset=".455" stop-color="#ff672a"/><stop offset=".57" stop-color="#ff3647"/><stop offset=".737" stop-color="#e31587"/></radialGradient><radialGradient id="O" cx="0" cy="0" gradientTransform="matrix(21.0251 0 0 21.1299 208.032 258.014)" gradientUnits="userSpaceOnUse" r="1"><stop offset=".137" stop-color="#fff44f"/><stop offset=".48" stop-color="#ff980e"/><stop offset=".592" stop-color="#ff5634"/><stop offset=".655" stop-color="#ff3647"/><stop offset=".904" stop-color="#e31587"/></radialGradient><radialGradient id="P" cx="0" cy="0" gradientTransform="matrix(23.0119 0 0 23.1266 213.583 259.251)" gradientUnits="userSpaceOnUse" r="1"><stop offset=".094" stop-color="#fff44f"/><stop offset=".231" stop-color="#ffe141"/><stop offset=".509" stop-color="#ffaf1e"/><stop offset=".626" stop-color="#ff980e"/></radialGradient><linearGradient id="Q" gradientUnits="userSpaceOnUse" x1="217.557" x2="201.866" y1="256.936" y2="272.549"><stop offset=".167" stop-color="#fff44f" stop-opacity=".8"/><stop offset=".266" stop-color="#fff44f" stop-opacity=".634"/><stop offset=".489" stop-color="#fff44f" stop-opacity=".217"/><stop offset=".6" stop-color="#fff44f" stop-opacity="0"/></linearGradient><clipPath id="R"><path d="m73.5 40.0349h93.9556v93.89h-93.9556z"/></clipPath><clipPath id="S"><path d="m35 281h24v24h-24z"/></clipPath><clipPath id="T"><path d="m51 281h24v24h-24z"/></clipPath><clipPath id="U"><path d="m12.5 194.175h84v84h-84z"/></clipPath><clipPath id="V"><path d="m165 253h24v24h-24z"/></clipPath><clipPath id="W"><path d="m181 253h24v24h-24z"/></clipPath><clipPath id="X"><path d="m197 253h24v24h-24z"/></clipPath><g stroke-dasharray="2 2"><path d="m73.5421 193.799 46.4999-105.9651" stroke="#bae6fd"/><path d="m130 67.5h69" stroke="#bae6fd"/><path d="m167.569 167.254-46.5-78.9656" stroke="#fbcfe8"/><path d="m199.003 97.5-73.5.4117" stroke="#fbcfe8"/></g><g clip-path="url(#R)"><path clip-rule="evenodd" d="m73.5 85.7971c14.5574-19.5545 30.252-29.3314 47.085-29.3314s32.456 9.7769 46.871 29.3314c-14.415 19.6689-30.039 29.5039-46.871 29.5039-16.833 0-32.5276-9.835-47.085-29.5039z" fill="url(#a)" fill-rule="evenodd"/><path clip-rule="evenodd" d="m120.815 110.369c13.589 0 24.606-11.0023 24.606-24.5739 0-13.5712-11.017-24.5735-24.606-24.5735-13.59 0-24.6067 11.0023-24.6067 24.5735 0 3.7996-.7792 20.7779 1.274 16.3359 2.0532-4.4437 2.3282-5.5754 3.6247-4.0216 4.514 5.4086 12.106 12.2596 19.708 12.2596z" fill="#fff" fill-rule="evenodd"/><path d="m120.831 102.618c9.297 0 16.834-7.5321 16.834-16.8229 0-9.2909-7.537-16.8226-16.834-16.8226-9.298 0-16.835 7.5317-16.835 16.8226 0 9.2908 7.537 16.8229 16.835 16.8229z" fill="url(#b)"/><g clip-rule="evenodd" fill-rule="evenodd"><path d="m127.205 101.387c8.633-3.4839 12.804-13.2996 9.315-21.9234.001 17.4796-18.948 21.0574-25.459 14.5481-6.512-6.5096-5.516-20.1167 3.515-23.8542-8.632 3.4841-12.803 13.2998-9.315 21.9237 3.487 8.6238 13.312 12.7908 21.944 9.3058z" fill="url(#c)"/><path d="m127.135 99.3545c7.194-2.8184 12.384-12.3509 8.896-20.9747 0 17.4796-14.359 19.2163-20.871 12.7067s-3.492-17.5665 1.427-20.7464c-8.632 3.4846-12.808 12.1227-9.321 20.7463 3.488 8.6242 12.676 11.0866 19.869 8.2681z" fill="url(#d)"/></g></g><circle cx="54" cy="244.362" fill="#f0f9ff" r="53.5"/><g clip-path="url(#S)"><path d="m47.0004 298.52c3.0486 0 5.5204-2.471 5.5204-5.52s-2.4714-5.521-5.5204-5.521-5.5204 2.472-5.5204 5.521 2.4714 5.52 5.5204 5.52z" fill="#fff"/><path d="m42.2193 295.761-4.7797-8.279c-.9692 1.678-1.4796 3.582-1.4796 5.52s.5099 3.841 1.4792 5.52c.9692 1.678 2.3629 3.071 4.0416 4.04s3.5825 1.478 5.5205 1.478l4.7797-8.279v-.002c-.4839.84-1.1808 1.537-2.02 2.022-.8391.485-1.791.74-2.7602.74s-1.9211-.255-2.7606-.739c-.8396-.484-1.5365-1.182-2.0209-2.021z" fill="url(#f)"/><path d="m51.7807 295.761-4.7798 8.279c1.9381 0 3.8418-.51 5.52-1.479 1.6783-.969 3.0721-2.363 4.0408-4.041.9688-1.678 1.4788-3.582 1.4784-5.52-.0005-1.938-.5109-3.842-1.4805-5.52h-9.5595l-.0013.001c.9692-.001 1.9215.254 2.7606.738.8396.485 1.5365 1.182 2.0213 2.021s.7398 1.791.7398 2.76c.0004.969-.255 1.921-.7398 2.761z" fill="url(#h)"/><path d="m47.0005 297.371c2.4137 0 4.3704-1.957 4.3704-4.371 0-2.413-1.9567-4.37-4.3704-4.37s-4.3704 1.957-4.3704 4.37c0 2.414 1.9567 4.371 4.3704 4.371z" fill="#1a73e8"/><path d="m47.0005 287.48h9.5599c-.9688-1.678-2.3625-3.072-4.0408-4.041-1.6782-.969-3.582-1.479-5.52-1.479s-3.8417.51-5.52 1.48c-1.6782.969-3.0716 2.363-4.0399 4.041l4.7797 8.28.0013.001c-.4848-.84-.7406-1.791-.7406-2.761 0-.969.2545-1.921.7389-2.76.4844-.84 1.1813-1.537 2.0208-2.021.8392-.485 1.7915-.74 2.7607-.74z" fill="url(#j)"/></g><g clip-path="url(#T)"><path d="m71.8884 298.393c-.2943.154-.5979.29-.909.406-.9901.371-2.039.559-3.0962.557-4.0811 0-7.6361-2.807-7.6361-6.409.0053-.483.1393-.957.3884-1.371s.6042-.754 1.0286-.985c-3.6912.156-4.6399 4.002-4.6399 6.256 0 6.371 5.8724 7.017 7.1376 7.017.6822 0 1.7111-.198 2.3286-.393l.113-.038c2.3762-.821 4.402-2.427 5.7439-4.554.0411-.064.0594-.141.0521-.217-.0073-.077-.0398-.148-.0925-.204-.0526-.056-.1223-.093-.1981-.104-.0758-.012-.1533.002-.2204.039z" fill="url(#l)"/><path d="m71.8884 298.393c-.2943.154-.5979.29-.909.406-.9901.371-2.039.559-3.0962.557-4.0811 0-7.6361-2.807-7.6361-6.409.0053-.483.1393-.957.3884-1.371s.6042-.754 1.0286-.985c-3.6912.156-4.6399 4.002-4.6399 6.256 0 6.371 5.8724 7.017 7.1376 7.017.6822 0 1.7111-.198 2.3286-.393l.113-.038c2.3762-.821 4.402-2.427 5.7439-4.554.0411-.064.0594-.141.0521-.217-.0073-.077-.0398-.148-.0925-.204-.0526-.056-.1223-.093-.1981-.104-.0758-.012-.1533.002-.2204.039z" fill="url(#n)" opacity=".35"/><path d="m61.0786 302.781c-.7692-.477-1.4359-1.103-1.9612-1.84-.5987-.821-1.0107-1.762-1.2071-2.758-.1964-.997-.1724-2.024.0702-3.01.2427-.986.6982-1.907 1.3345-2.699.6364-.791 1.4382-1.434 2.3492-1.883.2691-.126.7288-.356 1.3402-.345.4308.004.8551.106 1.2395.301.3844.194.7185.475.9762.821.3482.465.5403 1.028.5485 1.609 0-.018 2.1095-6.865-6.8996-6.865-3.7861 0-6.8996 3.593-6.8996 6.745-.0149 1.668.3419 3.317 1.0445 4.83 1.1482 2.45 3.156 4.392 5.6423 5.459s5.2779 1.184 7.8446.329c-.8987.283-1.8482.368-2.7829.249-.9348-.119-1.8326-.44-2.6315-.939z" fill="url(#p)"/><path d="m61.0786 302.781c-.7692-.477-1.4359-1.103-1.9612-1.84-.5987-.821-1.0107-1.762-1.2071-2.758-.1964-.997-.1724-2.024.0702-3.01.2427-.986.6982-1.907 1.3345-2.699.6364-.791 1.4382-1.434 2.3492-1.883.2691-.126.7288-.356 1.3402-.345.4308.004.8551.106 1.2395.301.3844.194.7185.475.9762.821.3482.465.5403 1.028.5485 1.609 0-.018 2.1095-6.865-6.8996-6.865-3.7861 0-6.8996 3.593-6.8996 6.745-.0149 1.668.3419 3.317 1.0445 4.83 1.1482 2.45 3.156 4.392 5.6423 5.459s5.2779 1.184 7.8446.329c-.8987.283-1.8482.368-2.7829.249-.9348-.119-1.8326-.44-2.6315-.939z" fill="url(#r)" opacity=".41"/><path d="m65.0976 294.798c-.0699.091-.2846.216-.2846.489 0 .225.1466.441.4071.623 1.2402.863 3.5783.749 3.5843.749.919-.003 1.8205-.251 2.6106-.72.7971-.466 1.4586-1.132 1.919-1.932s.7036-1.706.7054-2.629c.0225-1.933-.6899-3.218-.978-3.787-1.8275-3.575-5.7723-5.631-10.0621-5.631-2.9011 0-5.6858 1.141-7.7516 3.178-2.0659 2.037-3.2469 4.805-3.2877 7.706.0414-3.151 3.1738-5.696 6.8995-5.696.3019 0 2.0233.029 3.6223.868 1.4092.74 2.1475 1.634 2.6607 2.519.5329.921.6278 2.083.6278 2.546s-.2363 1.15-.6727 1.717z" fill="url(#t)"/><path d="m65.0976 294.798c-.0699.091-.2846.216-.2846.489 0 .225.1466.441.4071.623 1.2402.863 3.5783.749 3.5843.749.919-.003 1.8205-.251 2.6106-.72.7971-.466 1.4586-1.132 1.919-1.932s.7036-1.706.7054-2.629c.0225-1.933-.6899-3.218-.978-3.787-1.8275-3.575-5.7723-5.631-10.0621-5.631-2.9011 0-5.6858 1.141-7.7516 3.178-2.0659 2.037-3.2469 4.805-3.2877 7.706.0414-3.151 3.1738-5.696 6.8995-5.696.3019 0 2.0233.029 3.6223.868 1.4092.74 2.1475 1.634 2.6607 2.519.5329.921.6278 2.083.6278 2.546s-.2363 1.15-.6727 1.717z" fill="url(#v)"/></g><g clip-path="url(#U)"><path d="m16.4375 196.8h76.1249c2.1744 0 3.9374 1.762 3.9374 3.937v70.875c0 2.174-1.7628 3.937-3.9374 3.937h-76.1249c-2.1747 0-3.9375-1.762-3.9375-3.937v-70.875c0-2.175 1.7628-3.937 3.9375-3.937z" fill="#cad1d8"/><path d="m16.4375 207.3h76.1249c.7248 0 1.3124.587 1.3124 1.312v63c0 .725-.5876 1.312-1.3124 1.312h-76.1249c-.7248 0-1.3125-.587-1.3125-1.312v-63c0-.725.5877-1.312 1.3125-1.312z" fill="#fff"/><path d="m16.4379 203.361c.7247 0 1.3122-.588 1.3122-1.312 0-.725-.5875-1.312-1.3122-1.312s-1.3122.587-1.3122 1.312c0 .724.5875 1.312 1.3122 1.312z" fill="#9ba7af"/><path d="m21.6879 203.361c.7247 0 1.3122-.588 1.3122-1.312 0-.725-.5875-1.312-1.3122-1.312s-1.3122.587-1.3122 1.312c0 .724.5875 1.312 1.3122 1.312z" fill="#9ba7af"/><path d="m26.9379 203.361c.7247 0 1.3122-.588 1.3122-1.312 0-.725-.5875-1.312-1.3122-1.312s-1.3122.587-1.3122 1.312c0 .724.5875 1.312 1.3122 1.312z" fill="#9ba7af"/><g fill="#595a66"><path d="m29.5625 212.55c0 .724-.5877 1.312-1.3125 1.312h-6.5625c-.7248 0-1.3125-.588-1.3125-1.312 0-.725.5877-1.313 1.3125-1.313h6.5625c.7248 0 1.3125.588 1.3125 1.313z"/><path d="m88.625 212.55c0 .724-.5877 1.312-1.3125 1.312h-5.25c-.7248 0-1.3125-.588-1.3125-1.312 0-.725.5877-1.313 1.3125-1.313h5.25c.7248 0 1.3125.588 1.3125 1.313z"/><path d="m78.125 212.55c0 .724-.5877 1.312-1.3125 1.312h-5.25c-.7248 0-1.3125-.588-1.3125-1.312 0-.725.5877-1.313 1.3125-1.313h5.25c.7248 0 1.3125.588 1.3125 1.313z"/><path d="m67.625 212.55c0 .724-.5877 1.312-1.3125 1.312h-5.25c-.7248 0-1.3125-.588-1.3125-1.312 0-.725.5877-1.313 1.3125-1.313h5.25c.7248 0 1.3125.588 1.3125 1.313z"/></g><path d="m32.1875 200.737h60.3749c.7248 0 1.3125.588 1.3125 1.313 0 .724-.5877 1.312-1.3125 1.312h-60.3749c-.7248 0-1.3125-.588-1.3125-1.312 0-.725.5877-1.313 1.3125-1.313z" fill="#e2e5e7"/><path d="m61.0625 226.987h21c.7248 0 1.3125.588 1.3125 1.313 0 .724-.5877 1.312-1.3125 1.312h-21c-.7248 0-1.3125-.587-1.3125-1.312s.5877-1.313 1.3125-1.313z" fill="#cad1d8"/><path d="m61.0625 232.237h18.375c.7248 0 1.3125.588 1.3125 1.313 0 .724-.5877 1.312-1.3125 1.312h-18.375c-.7248 0-1.3125-.587-1.3125-1.312s.5877-1.313 1.3125-1.313z" fill="#cad1d8"/><path d="m61.0625 237.487h14.4375c.7248 0 1.3125.588 1.3125 1.312 0 .725-.5877 1.313-1.3125 1.313h-14.4375c-.7248 0-1.3125-.588-1.3125-1.313 0-.724.5877-1.312 1.3125-1.312z" fill="#cad1d8"/><path d="m21.6875 221.737h28.8749c.7249 0 1.3125.588 1.3125 1.313v21c0 .724-.5876 1.312-1.3125 1.312h-28.8749c-.7248 0-1.3125-.588-1.3125-1.312v-21c0-.725.5877-1.313 1.3125-1.313z" fill="#abe1fa"/><path d="m26.9379 229.611c1.4493 0 2.6242-1.175 2.6242-2.624 0-1.45-1.1749-2.625-2.6242-2.625s-2.6242 1.175-2.6242 2.625c0 1.449 1.1749 2.624 2.6242 2.624z" fill="#f19f35"/><path d="m51.875 242.737-9.5682-9.568c-.512-.509-1.3385-.509-1.8506 0l-12.2062 12.193h22.3126c.7249 0 1.3125-.588 1.3125-1.313z" fill="#595a66"/><path d="m46.6248 238.799c-.3604.364-.3604.95 0 1.313l.7744.774c1.185 1.188 1.8505 2.798 1.8506 4.476h1.3127c.7248 0 1.3125-.588 1.3125-1.313v-1.312l-3.9375-3.938c-.3634-.36-.9493-.36-1.3127 0z" fill="#35363e"/><path d="m21.6876 245.362h15.7499l-8.2031-9.371c-.4752-.548-1.3043-.606-1.8516-.131-.0464.041-.09.084-.1302.131l-6.8774 6.746v1.312c-.0001.725.5876 1.313 1.3124 1.313z" fill="#595a66"/><path d="m36.4005 241.175c-.7906-.894-2.0849-1.142-3.15-.604l4.1869 4.791h2.6249z" fill="#35363e"/><path d="m40.4162 235.061c.2563.256.2563.672 0 .928l-1.8562 1.856c-.2563.257-.6718.257-.9281 0-.2563-.256-.2563-.672 0-.928l1.8562-1.856c.2563-.256.6718-.256.9281 0z" fill="#6f707e"/><path d="m28.0549 237.13c.2562.256.2562.672 0 .928l-1.8562 1.856c-.2563.256-.6719.256-.9281 0-.2563-.256-.2563-.672 0-.928l1.8562-1.856c.2562-.256.6718-.256.9281 0z" fill="#6f707e"/><path d="m45.3127 254.549h18.3749c2.1745 0 3.9375 1.763 3.9375 3.938 0 2.174-1.7628 3.937-3.9375 3.937h-18.3749c-2.1745 0-3.9377-1.762-3.9377-3.937s1.7628-3.938 3.9377-3.938z" fill="#f0fdf4"/><path d="m45.3127 253.237h18.3749c2.1745 0 3.9375 1.763 3.9375 3.937 0 2.175-1.7628 3.938-3.9375 3.938h-18.3749c-2.1745 0-3.9377-1.763-3.9377-3.938 0-2.174 1.7628-3.937 3.9377-3.937z" fill="#22c55e"/><path d="m54.4999 258.487c.7247 0 1.3122-.588 1.3122-1.313 0-.724-.5875-1.312-1.3122-1.312s-1.3122.588-1.3122 1.312c0 .725.5875 1.313 1.3122 1.313z" fill="#15803d"/><path d="m59.7499 258.487c.7247 0 1.3122-.588 1.3122-1.313 0-.724-.5875-1.312-1.3122-1.312s-1.3122.588-1.3122 1.312c0 .725.5875 1.313 1.3122 1.313z" fill="#15803d"/><path d="m49.2499 258.487c.7247 0 1.3122-.588 1.3122-1.313 0-.724-.5875-1.312-1.3122-1.312s-1.3122.588-1.3122 1.312c0 .725.5875 1.313 1.3122 1.313z" fill="#15803d"/></g><circle cx="193" cy="215.346" fill="#fdf2f8" r="53.5"/><g clip-path="url(#V)"><path d="m177 270.52c3.049 0 5.521-2.471 5.521-5.52s-2.472-5.521-5.521-5.521-5.52 2.472-5.52 5.521 2.471 5.52 5.52 5.52z" fill="#fff"/><path d="m172.219 267.761-4.779-8.279c-.97 1.678-1.48 3.582-1.48 5.52s.51 3.841 1.479 5.52c.969 1.678 2.363 3.071 4.042 4.04s3.582 1.478 5.52 1.478l4.78-8.279v-.002c-.484.84-1.181 1.537-2.02 2.022s-1.791.74-2.76.74-1.921-.255-2.761-.739c-.839-.484-1.536-1.182-2.021-2.021z" fill="url(#w)"/><path d="m181.781 267.761-4.78 8.279c1.938 0 3.842-.51 5.52-1.479s3.072-2.363 4.041-4.041 1.479-3.582 1.478-5.52c0-1.938-.511-3.842-1.48-5.52h-9.56l-.001.001c.969-.001 1.921.254 2.76.738.84.485 1.537 1.182 2.022 2.021s.74 1.791.74 2.76-.255 1.921-.74 2.761z" fill="url(#x)"/><path d="m177.001 269.371c2.413 0 4.37-1.957 4.37-4.371 0-2.413-1.957-4.37-4.37-4.37-2.414 0-4.371 1.957-4.371 4.37 0 2.414 1.957 4.371 4.371 4.371z" fill="#1a73e8"/><path d="m177 259.48h9.56c-.968-1.678-2.362-3.072-4.04-4.041-1.679-.969-3.582-1.479-5.52-1.479s-3.842.51-5.52 1.48c-1.679.969-3.072 2.363-4.04 4.041l4.779 8.28.002.001c-.485-.84-.741-1.791-.741-2.761 0-.969.255-1.921.739-2.76.484-.84 1.181-1.537 2.021-2.021.839-.485 1.791-.74 2.76-.74z" fill="url(#y)"/></g><g clip-path="url(#W)"><path d="m201.888 270.393c-.294.154-.598.29-.909.406-.99.371-2.039.559-3.096.557-4.081 0-7.636-2.807-7.636-6.409.005-.483.139-.957.389-1.371.249-.414.604-.754 1.028-.985-3.691.156-4.64 4.002-4.64 6.256 0 6.371 5.873 7.017 7.138 7.017.682 0 1.711-.198 2.328-.393l.113-.038c2.377-.821 4.402-2.427 5.744-4.554.041-.064.06-.141.052-.217-.007-.077-.039-.148-.092-.204s-.122-.093-.198-.104c-.076-.012-.154.002-.221.039z" fill="url(#z)"/><path d="m201.888 270.393c-.294.154-.598.29-.909.406-.99.371-2.039.559-3.096.557-4.081 0-7.636-2.807-7.636-6.409.005-.483.139-.957.389-1.371.249-.414.604-.754 1.028-.985-3.691.156-4.64 4.002-4.64 6.256 0 6.371 5.873 7.017 7.138 7.017.682 0 1.711-.198 2.328-.393l.113-.038c2.377-.821 4.402-2.427 5.744-4.554.041-.064.06-.141.052-.217-.007-.077-.039-.148-.092-.204s-.122-.093-.198-.104c-.076-.012-.154.002-.221.039z" fill="url(#A)" opacity=".35"/><path d="m191.079 274.781c-.77-.477-1.436-1.103-1.962-1.84-.598-.821-1.01-1.762-1.207-2.758-.196-.997-.172-2.024.071-3.01.242-.986.698-1.907 1.334-2.699.636-.791 1.438-1.434 2.349-1.883.269-.126.729-.356 1.34-.345.431.004.855.106 1.24.301.384.194.718.475.976.821.348.465.54 1.028.549 1.609 0-.018 2.109-6.865-6.9-6.865-3.786 0-6.9 3.593-6.9 6.745-.014 1.668.342 3.317 1.045 4.83 1.148 2.45 3.156 4.392 5.642 5.459 2.487 1.067 5.278 1.184 7.845.329-.899.283-1.848.368-2.783.249s-1.833-.44-2.632-.939z" fill="url(#B)"/><path d="m191.079 274.781c-.77-.477-1.436-1.103-1.962-1.84-.598-.821-1.01-1.762-1.207-2.758-.196-.997-.172-2.024.071-3.01.242-.986.698-1.907 1.334-2.699.636-.791 1.438-1.434 2.349-1.883.269-.126.729-.356 1.34-.345.431.004.855.106 1.24.301.384.194.718.475.976.821.348.465.54 1.028.549 1.609 0-.018 2.109-6.865-6.9-6.865-3.786 0-6.9 3.593-6.9 6.745-.014 1.668.342 3.317 1.045 4.83 1.148 2.45 3.156 4.392 5.642 5.459 2.487 1.067 5.278 1.184 7.845.329-.899.283-1.848.368-2.783.249s-1.833-.44-2.632-.939z" fill="url(#C)" opacity=".41"/><path d="m195.098 266.798c-.07.091-.285.216-.285.489 0 .225.147.441.407.623 1.24.863 3.578.749 3.584.749.919-.003 1.821-.251 2.611-.72.797-.466 1.459-1.132 1.919-1.932s.704-1.706.705-2.629c.023-1.933-.69-3.218-.978-3.787-1.827-3.575-5.772-5.631-10.062-5.631-2.901 0-5.685 1.141-7.751 3.178s-3.247 4.805-3.288 7.706c.041-3.151 3.174-5.696 6.9-5.696.301 0 2.023.029 3.622.868 1.409.74 2.147 1.634 2.66 2.519.533.921.628 2.083.628 2.546s-.236 1.15-.672 1.717z" fill="url(#D)"/><path d="m195.098 266.798c-.07.091-.285.216-.285.489 0 .225.147.441.407.623 1.24.863 3.578.749 3.584.749.919-.003 1.821-.251 2.611-.72.797-.466 1.459-1.132 1.919-1.932s.704-1.706.705-2.629c.023-1.933-.69-3.218-.978-3.787-1.827-3.575-5.772-5.631-10.062-5.631-2.901 0-5.685 1.141-7.751 3.178s-3.247 4.805-3.288 7.706c.041-3.151 3.174-5.696 6.9-5.696.301 0 2.023.029 3.622.868 1.409.74 2.147 1.634 2.66 2.519.533.921.628 2.083.628 2.546s-.236 1.15-.672 1.717z" fill="url(#E)"/></g><g clip-path="url(#X)"><path d="m219.241 261.169c-.481-1.161-1.455-2.415-2.218-2.812.544 1.06.922 2.197 1.12 3.372l.002.019c-1.25-3.132-3.369-4.394-5.1-7.143-.09-.14-.177-.282-.261-.426-.043-.075-.084-.151-.122-.229-.071-.14-.127-.287-.164-.44 0-.007-.003-.014-.008-.019-.004-.005-.011-.009-.018-.01-.006-.001-.014-.001-.02 0-.002 0-.004.003-.006.003l-.008.005.005-.008c-2.777 1.634-3.719 4.659-3.806 6.171-1.108.077-2.168.487-3.042 1.178-.091-.077-.186-.149-.285-.217-.252-.885-.262-1.823-.031-2.715-1.02.497-1.925 1.2-2.661 2.067h-.005c-.438-.558-.407-2.398-.382-2.783-.129.053-.253.119-.369.197-.387.278-.748.589-1.08.93-.379.386-.724.803-1.034 1.246v.002-.002c-.71 1.013-1.214 2.156-1.483 3.366l-.014.073c-.041.231-.077.462-.109.694 0 .008-.002.016-.003.024-.096.506-.156 1.017-.179 1.532v.057c.002 2.781 1.043 5.461 2.916 7.509 1.873 2.047 4.442 3.314 7.2 3.55s5.503-.576 7.694-2.276 3.667-4.164 4.137-6.905c.019-.143.034-.285.051-.429.227-1.892-.019-3.81-.717-5.581zm-12.74 8.696c.051.025.1.051.153.076l.007.004c-.053-.025-.107-.052-.16-.08zm11.644-8.114v-.011l.002.011z" fill="url(#F)"/><path d="m219.241 261.169c-.481-1.161-1.455-2.415-2.218-2.812.544 1.06.922 2.197 1.12 3.372v.011l.002.011c.852 2.451.728 5.137-.344 7.498-1.267 2.732-4.334 5.532-9.134 5.396-5.186-.148-9.754-4.016-10.608-9.081-.155-.799 0-1.204.079-1.853-.107.504-.166 1.017-.178 1.533v.057c.002 2.781 1.043 5.461 2.916 7.509 1.873 2.047 4.442 3.314 7.2 3.55s5.503-.576 7.694-2.276 3.667-4.163 4.137-6.905c.019-.143.034-.285.051-.429.227-1.892-.019-3.81-.717-5.581z" fill="url(#G)"/><path d="m219.241 261.169c-.481-1.161-1.455-2.415-2.218-2.812.544 1.06.922 2.197 1.12 3.372v.011l.002.011c.852 2.451.728 5.137-.344 7.498-1.267 2.732-4.334 5.532-9.134 5.396-5.186-.148-9.754-4.016-10.608-9.081-.155-.799 0-1.204.079-1.853-.107.504-.166 1.017-.178 1.533v.057c.002 2.781 1.043 5.461 2.916 7.509 1.873 2.047 4.442 3.314 7.2 3.55s5.503-.576 7.694-2.276 3.667-4.163 4.137-6.905c.019-.143.034-.285.051-.429.227-1.892-.019-3.81-.717-5.581z" fill="url(#H)"/><path d="m213.869 262.475c.024.017.046.034.069.051-.278-.495-.623-.948-1.027-1.346-3.435-3.453-.9-7.487-.473-7.692l.005-.007c-2.777 1.634-3.719 4.659-3.806 6.171.129-.008.257-.02.389-.02.985.002 1.952.266 2.803.766.851.499 1.555 1.216 2.04 2.077z" fill="url(#I)"/><path d="m209.033 263.165c-.018.276-.99 1.229-1.329 1.229-3.143 0-3.654 1.911-3.654 1.911.139 1.609 1.255 2.934 2.604 3.636.062.032.124.061.186.089.109.048.217.093.325.134.463.164.948.258 1.438.278 5.51.26 6.577-6.621 2.601-8.617.938-.123 1.888.109 2.665.65-.485-.861-1.189-1.578-2.04-2.077-.851-.5-1.818-.764-2.803-.765-.131 0-.26.011-.389.019-1.108.077-2.168.487-3.041 1.178.168.144.358.336.759.733.75.742 2.674 1.511 2.678 1.602z" fill="url(#J)"/><path d="m209.033 263.165c-.018.276-.99 1.229-1.329 1.229-3.143 0-3.654 1.911-3.654 1.911.139 1.609 1.255 2.934 2.604 3.636.062.032.124.061.186.089.109.048.217.093.325.134.463.164.948.258 1.438.278 5.51.26 6.577-6.621 2.601-8.617.938-.123 1.888.109 2.665.65-.485-.861-1.189-1.578-2.04-2.077-.851-.5-1.818-.764-2.803-.765-.131 0-.26.011-.389.019-1.108.077-2.168.487-3.041 1.178.168.144.358.336.759.733.75.742 2.674 1.511 2.678 1.602z" fill="url(#K)"/><path d="m205.08 260.461c.09.058.163.107.228.152-.252-.886-.262-1.823-.031-2.715-1.02.497-1.926 1.2-2.661 2.067.054-.002 1.658-.031 2.464.496z" fill="url(#L)"/><path d="m198.061 265.564c.853 5.066 5.421 8.933 10.608 9.081 4.8.136 7.866-2.664 9.133-5.396 1.073-2.361 1.196-5.047.344-7.497v-.011c0-.009-.002-.013 0-.011l.002.019c.392 2.573-.91 5.066-2.946 6.752l-.006.014c-3.967 3.246-7.763 1.959-8.531 1.433-.054-.026-.107-.053-.161-.081-2.313-1.111-3.268-3.228-3.063-5.044-.549.008-1.089-.144-1.554-.438-.464-.294-.834-.717-1.065-1.217.607-.374 1.3-.585 2.011-.614s1.418.126 2.053.45c1.309.597 2.799.656 4.15.164-.004-.091-1.928-.86-2.678-1.603-.4-.397-.591-.588-.759-.731-.091-.078-.186-.15-.285-.218-.066-.045-.14-.093-.229-.152-.806-.527-2.409-.498-2.462-.496h-.005c-.438-.558-.408-2.398-.383-2.783-.129.053-.253.119-.369.197-.386.277-.748.589-1.08.93-.38.385-.727.801-1.038 1.243v.002-.002c-.71 1.013-1.214 2.156-1.483 3.366-.005.022-.398 1.748-.204 2.642z" fill="url(#M)"/><path d="m212.912 261.18c.403.398.749.852 1.027 1.347.06.046.117.092.165.137 2.506 2.321 1.193 5.603 1.095 5.837 2.036-1.686 3.337-4.179 2.946-6.752-1.25-3.133-3.369-4.395-5.1-7.144-.09-.14-.177-.282-.261-.426-.043-.075-.084-.151-.121-.229-.072-.14-.128-.287-.165-.44 0-.007-.003-.014-.007-.019-.005-.005-.011-.009-.018-.01s-.014-.001-.021 0c-.002 0-.004.003-.006.003l-.008.005c-.427.203-2.962 4.238.474 7.691z" fill="url(#N)"/><path d="m214.102 262.662c-.053-.048-.108-.093-.165-.136-.023-.017-.045-.034-.069-.051-.778-.541-1.727-.773-2.665-.651 3.975 1.998 2.909 8.878-2.601 8.618-.491-.02-.975-.114-1.438-.278-.109-.041-.217-.086-.325-.134-.062-.029-.125-.057-.186-.089l.007.004c.769.527 4.564 1.815 8.531-1.433l.007-.014c.099-.232 1.412-3.515-1.096-5.836z" fill="url(#O)"/><path d="m204.05 266.305s.51-1.911 3.654-1.911c.339 0 1.312-.953 1.329-1.23-1.352.493-2.841.434-4.15-.163-.635-.324-1.342-.479-2.053-.45-.712.029-1.404.24-2.011.614.23.501.6.924 1.065 1.217.465.294 1.004.446 1.553.438-.204 1.816.751 3.934 3.064 5.045.051.025.1.051.153.075-1.35-.701-2.465-2.026-2.604-3.635z" fill="url(#P)"/><path d="m219.241 261.169c-.481-1.161-1.455-2.415-2.218-2.812.544 1.06.922 2.197 1.12 3.372l.002.019c-1.25-3.132-3.369-4.394-5.1-7.143-.09-.14-.177-.282-.261-.426-.043-.075-.084-.151-.122-.229-.071-.14-.127-.287-.164-.44 0-.007-.003-.014-.008-.019-.004-.005-.011-.009-.018-.01-.006-.001-.014-.001-.02 0-.002 0-.004.003-.006.003l-.008.005.005-.008c-2.777 1.634-3.719 4.659-3.806 6.171.129-.008.257-.02.389-.02.985.002 1.952.266 2.803.766.851.499 1.554 1.216 2.04 2.077-.777-.541-1.727-.773-2.665-.651 3.976 1.998 2.909 8.878-2.601 8.618-.49-.02-.975-.114-1.438-.278-.108-.041-.216-.086-.325-.134-.062-.029-.125-.057-.186-.089l.007.004c-.053-.025-.107-.052-.16-.08.051.025.1.051.153.076-1.35-.702-2.465-2.027-2.604-3.636 0 0 .51-1.911 3.654-1.911.339 0 1.312-.953 1.329-1.23-.004-.09-1.928-.859-2.678-1.602-.401-.396-.591-.588-.76-.731-.091-.078-.186-.15-.285-.218-.252-.885-.262-1.823-.031-2.715-1.02.497-1.925 1.2-2.661 2.067h-.005c-.438-.558-.407-2.398-.382-2.783-.129.053-.253.119-.369.197-.387.278-.748.589-1.08.93-.379.386-.724.803-1.034 1.246v.002-.002c-.71 1.013-1.214 2.156-1.483 3.366l-.014.073c-.021.098-.114.594-.128.701-.085.512-.14 1.03-.163 1.549v.057c.002 2.781 1.043 5.461 2.916 7.509 1.873 2.047 4.442 3.314 7.2 3.55s5.503-.576 7.694-2.276 3.667-4.164 4.137-6.905c.019-.143.034-.285.051-.429.227-1.892-.019-3.81-.717-5.581zm-1.097.571.002.012z" fill="url(#Q)"/></g><path d="m144.361 176.391h32.019c3.79 0 6.862 3.072 6.862 6.861s-3.072 6.861-6.862 6.861h-32.019c-3.789 0-6.861-3.071-6.861-6.861 0-3.789 3.072-6.861 6.861-6.861z" fill="#f0fdf4"/><path d="m144.361 174.104h32.019c3.79 0 6.862 3.072 6.862 6.861s-3.072 6.861-6.862 6.861h-32.019c-3.789 0-6.861-3.071-6.861-6.861 0-3.789 3.072-6.861 6.861-6.861z" fill="#22c55e"/><path d="m160.37 183.252c1.263 0 2.287-1.024 2.287-2.287s-1.024-2.286-2.287-2.286c-1.262 0-2.286 1.023-2.286 2.286s1.024 2.287 2.286 2.287z" fill="#15803d"/><path d="m169.519 183.252c1.263 0 2.286-1.024 2.286-2.287s-1.023-2.286-2.286-2.286-2.287 1.023-2.287 2.286 1.024 2.287 2.287 2.287z" fill="#15803d"/><path d="m151.222 183.252c1.263 0 2.287-1.024 2.287-2.287s-1.024-2.286-2.287-2.286-2.286 1.023-2.286 2.286 1.023 2.287 2.286 2.287z" fill="#15803d"/><path d="m144.361 195.069h32.019c3.79 0 6.862 3.072 6.862 6.861s-3.072 6.861-6.862 6.861h-32.019c-3.789 0-6.861-3.072-6.861-6.861s3.072-6.861 6.861-6.861z" fill="#eef2ff"/><path d="m144.361 192.782h32.019c3.79 0 6.862 3.072 6.862 6.861s-3.072 6.861-6.862 6.861h-32.019c-3.789 0-6.861-3.072-6.861-6.861s3.072-6.861 6.861-6.861z" fill="#a5b4fc"/><path d="m160.37 201.929c1.263 0 2.287-1.023 2.287-2.286s-1.024-2.287-2.287-2.287c-1.262 0-2.286 1.024-2.286 2.287s1.024 2.286 2.286 2.286z" fill="#4338ca"/><path d="m169.519 201.929c1.263 0 2.286-1.023 2.286-2.286s-1.023-2.287-2.286-2.287-2.287 1.024-2.287 2.287 1.024 2.286 2.287 2.286z" fill="#4338ca"/><path d="m151.222 201.929c1.263 0 2.287-1.023 2.287-2.286s-1.024-2.287-2.287-2.287-2.286 1.024-2.286 2.287 1.023 2.286 2.286 2.286z" fill="#4338ca"/><path d="m194.5 194.035v-24.655c0-.743.603-1.345 1.347-1.345h41.306c.744 0 1.347.602 1.347 1.345v24.655z" fill="#ef4444"/><path d="m222.68 180.596-6.75-3.375c-.556-.278-1.232-.054-1.51.502-.079.157-.12.33-.119.506v6.75c-.002.621.501 1.126 1.122 1.127.176.001.349-.04.507-.119l6.75-3.375c.558-.273.789-.945.516-1.503-.11-.224-.291-.405-.516-.513z" fill="#fff"/><path d="m222.68 181.712-6.75 3.375c-.556.278-1.232.054-1.51-.502-.079-.157-.12-.33-.119-.506v.9c-.002.621.501 1.126 1.122 1.127.176.001.349-.04.507-.119l6.75-3.375c.381-.191.621-.581.621-1.008-.004-.156-.041-.309-.108-.45-.101.24-.282.438-.513.558z" fill="#f1f5f9"/><path d="m194.5 193.035h44v7.2c0 .994-.788 1.8-1.76 1.8h-40.48c-.972 0-1.76-.806-1.76-1.8z" fill="#e2e8f0"/><path d="m198.5 196.739h36c.497 0 .9.403.9.9s-.403.9-.9.9h-36c-.497 0-.9-.403-.9-.9s.403-.9.9-.9z" fill="#475569"/><path d="m209.3 199.438c.994 0 1.799-.806 1.799-1.8 0-.993-.805-1.799-1.799-1.799s-1.8.806-1.8 1.799c0 .994.806 1.8 1.8 1.8z" fill="#fff" stroke="#475569" stroke-miterlimit="10" stroke-width="2"/><path d="m215.625 215.738v22.88c0 .903-.732 1.634-1.634 1.634h-40.857c-.902 0-1.634-.731-1.634-1.634v-22.88c0-.902.732-1.634 1.634-1.634h40.857c.902 0 1.634.732 1.634 1.634z" fill="#f1f5f9"/><path d="m194.38 216.555v9.806h9.805c0-5.416-4.39-9.806-9.805-9.806z" fill="#f87171"/><path d="m192.745 218.19c-5.415 0-9.805 4.39-9.805 9.805 0 5.416 4.39 9.806 9.805 9.806 5.416 0 9.806-4.39 9.806-9.806h-9.806z" fill="#fbbf24"/><rect fill="#f0f9ff" height="22" rx="4" width="217" x="199.5" y="56.4065"/><path clip-rule="evenodd" d="m213.5 72.2065c2.651 0 4.8-2.149 4.8-4.8s-2.149-4.8-4.8-4.8-4.8 2.149-4.8 4.8 2.149 4.8 4.8 4.8zm2.314-5.8853c.146-.201.102-.4825-.099-.6286-.201-.1462-.483-.1018-.629.0992l-2.09 2.8741-1.128-1.1276c-.176-.1757-.461-.1757-.636 0-.176.1757-.176.4607 0 .6364l1.5 1.5c.093.093.222.1407.353.1304s.251-.0775.329-.1839z" fill="#16a34a" fill-rule="evenodd"/><path d="m223.572 63.7305h1.356c.14 0 .256.034.348.102.096.064.16.152.192.264l1.476 5.19c.036.128.068.268.096.42.032.148.062.306.09.474.032-.168.066-.326.102-.474.04-.152.082-.292.126-.42l1.704-5.19c.032-.092.094-.176.186-.252.096-.076.212-.114.348-.114h.474c.14 0 .256.034.348.102.092.064.156.152.192.264l1.692 5.19c.088.256.164.54.228.852.028-.156.056-.306.084-.45.032-.144.064-.278.096-.402l1.476-5.19c.028-.1.09-.186.186-.258s.212-.108.348-.108h1.266l-2.694 8.676h-1.458l-1.896-5.928c-.024-.076-.05-.158-.078-.246-.024-.088-.048-.182-.072-.282-.024.1-.05.194-.078.282-.024.088-.048.17-.072.246l-1.914 5.928h-1.458zm15.58 2.424c.388 0 .744.062 1.068.186.328.124.61.306.846.546.236.236.42.528.552.876.132.344.198.738.198 1.182 0 .112-.006.206-.018.282-.008.072-.026.13-.054.174-.024.04-.058.07-.102.09-.044.016-.1.024-.168.024h-3.804c.044.632.214 1.096.51 1.392s.688.444 1.176.444c.24 0 .446-.028.618-.084.176-.056.328-.118.456-.186.132-.068.246-.13.342-.186.1-.056.196-.084.288-.084.06 0 .112.012.156.036s.082.058.114.102l.432.54c-.164.192-.348.354-.552.486-.204.128-.418.232-.642.312-.22.076-.446.13-.678.162-.228.032-.45.048-.666.048-.428 0-.826-.07-1.194-.21-.368-.144-.688-.354-.96-.63-.272-.28-.486-.624-.642-1.032-.156-.412-.234-.888-.234-1.428 0-.42.068-.814.204-1.182.136-.372.33-.694.582-.966.256-.276.566-.494.93-.654.368-.16.782-.24 1.242-.24zm.03 1.062c-.432 0-.77.122-1.014.366s-.4.59-.468 1.038h2.784c0-.192-.026-.372-.078-.54-.052-.172-.132-.322-.24-.45s-.244-.228-.408-.3c-.164-.076-.356-.114-.576-.114zm3.855 5.19v-8.916h1.482v3.516c.244-.26.52-.466.828-.618.308-.156.668-.234 1.08-.234.336 0 .642.07.918.21.28.136.52.336.72.6.204.264.36.59.468.978.112.388.168.834.168 1.338 0 .46-.062.886-.186 1.278s-.302.732-.534 1.02c-.228.288-.506.514-.834.678-.324.16-.688.24-1.092.24-.188 0-.36-.02-.516-.06-.156-.036-.298-.088-.426-.156s-.248-.15-.36-.246c-.108-.1-.212-.21-.312-.33l-.066.414c-.024.104-.066.178-.126.222-.056.044-.134.066-.234.066zm2.88-5.1c-.308 0-.572.066-.792.198-.216.128-.418.31-.606.546v2.76c.168.208.35.354.546.438.2.08.416.12.648.12.224 0 .426-.042.606-.126s.332-.212.456-.384c.128-.172.226-.388.294-.648.068-.264.102-.574.102-.93 0-.36-.03-.664-.09-.912-.056-.252-.138-.456-.246-.612s-.24-.27-.396-.342c-.152-.072-.326-.108-.522-.108zm7.599.144c-.04.064-.082.11-.126.138-.044.024-.1.036-.168.036-.072 0-.15-.02-.234-.06-.08-.04-.174-.084-.282-.132-.108-.052-.232-.098-.372-.138-.136-.04-.298-.06-.486-.06-.292 0-.522.062-.69.186s-.252.286-.252.486c0 .132.042.244.126.336.088.088.202.166.342.234.144.068.306.13.486.186.18.052.364.11.552.174s.372.138.552.222c.18.08.34.184.48.312.144.124.258.274.342.45.088.176.132.388.132.636 0 .296-.054.57-.162.822-.108.248-.266.464-.474.648-.208.18-.466.322-.774.426-.304.1-.654.15-1.05.15-.212 0-.42-.02-.624-.06-.2-.036-.394-.088-.582-.156-.184-.068-.356-.148-.516-.24-.156-.092-.294-.192-.414-.3l.342-.564c.044-.068.096-.12.156-.156s.136-.054.228-.054.178.026.258.078c.084.052.18.108.288.168s.234.116.378.168c.148.052.334.078.558.078.176 0 .326-.02.45-.06.128-.044.232-.1.312-.168.084-.068.144-.146.18-.234.04-.092.06-.186.06-.282 0-.144-.044-.262-.132-.354-.084-.092-.198-.172-.342-.24-.14-.068-.302-.128-.486-.18-.18-.056-.366-.116-.558-.18-.188-.064-.374-.138-.558-.222-.18-.088-.342-.198-.486-.33-.14-.132-.254-.294-.342-.486-.084-.192-.126-.424-.126-.696 0-.252.05-.492.15-.72s.246-.426.438-.594c.196-.172.438-.308.726-.408.292-.104.628-.156 1.008-.156.424 0 .81.07 1.158.21s.638.324.87.552zm3.163-1.2v6.156h-1.482v-6.156zm.222-1.794c0 .128-.026.248-.078.36s-.122.21-.21.294c-.084.084-.184.152-.3.204-.116.048-.24.072-.372.072-.128 0-.25-.024-.366-.072-.112-.052-.21-.12-.294-.204s-.152-.182-.204-.294c-.048-.112-.072-.232-.072-.36 0-.132.024-.256.072-.372.052-.116.12-.216.204-.3s.182-.15.294-.198c.116-.052.238-.078.366-.078.132 0 .256.026.372.078.116.048.216.114.3.198.088.084.158.184.21.3s.078.24.078.372zm3.479 8.046c-.532 0-.942-.15-1.23-.45-.288-.304-.432-.722-.432-1.254v-3.438h-.624c-.08 0-.15-.026-.21-.078-.056-.052-.084-.13-.084-.234v-.588l.99-.162.312-1.68c.016-.08.052-.142.108-.186.06-.044.134-.066.222-.066h.768v1.938h1.62v1.056h-1.62v3.336c0 .192.048.342.144.45s.224.162.384.162c.092 0 .168-.01.228-.03.064-.024.118-.048.162-.072.048-.024.09-.046.126-.066.036-.024.072-.036.108-.036.044 0 .08.012.108.036.028.02.058.052.09.096l.444.72c-.216.18-.464.316-.744.408s-.57.138-.87.138zm5.163-6.348c.388 0 .744.062 1.068.186.328.124.61.306.846.546.236.236.42.528.552.876.132.344.198.738.198 1.182 0 .112-.006.206-.018.282-.008.072-.026.13-.054.174-.024.04-.058.07-.102.09-.044.016-.1.024-.168.024h-3.804c.044.632.214 1.096.51 1.392s.688.444 1.176.444c.24 0 .446-.028.618-.084.176-.056.328-.118.456-.186.132-.068.246-.13.342-.186.1-.056.196-.084.288-.084.06 0 .112.012.156.036s.082.058.114.102l.432.54c-.164.192-.348.354-.552.486-.204.128-.418.232-.642.312-.22.076-.446.13-.678.162-.228.032-.45.048-.666.048-.428 0-.826-.07-1.194-.21-.368-.144-.688-.354-.96-.63-.272-.28-.486-.624-.642-1.032-.156-.412-.234-.888-.234-1.428 0-.42.068-.814.204-1.182.136-.372.33-.694.582-.966.256-.276.566-.494.93-.654.368-.16.782-.24 1.242-.24zm.03 1.062c-.432 0-.77.122-1.014.366s-.4.59-.468 1.038h2.784c0-.192-.026-.372-.078-.54-.052-.172-.132-.322-.24-.45s-.244-.228-.408-.3c-.164-.076-.356-.114-.576-.114z" fill="#334155"/><path d="m274.256 68.4225h8.022v.852h-8.022zm19.936-4.632v8.616h-.648c-.1 0-.184-.018-.252-.054-.064-.036-.13-.094-.198-.174l-4.866-6.294c.008.108.014.214.018.318.008.104.012.202.012.294v5.91h-1.122v-8.616h.66c.112 0 .196.014.252.042.056.024.118.082.186.174l4.878 6.3c-.012-.116-.022-.228-.03-.336-.004-.112-.006-.216-.006-.312v-5.868zm4.302 2.424c.448 0 .852.074 1.212.222.364.144.672.354.924.63.256.272.452.602.588.99.136.384.204.816.204 1.296s-.068.914-.204 1.302-.332.718-.588.99c-.252.272-.56.482-.924.63-.36.144-.764.216-1.212.216-.452 0-.86-.072-1.224-.216-.36-.148-.668-.358-.924-.63s-.454-.602-.594-.99c-.136-.388-.204-.822-.204-1.302s.068-.912.204-1.296c.14-.388.338-.718.594-.99.256-.276.564-.486.924-.63.364-.148.772-.222 1.224-.222zm0 5.364c.576 0 1.006-.194 1.29-.582s.426-.934.426-1.638-.142-1.25-.426-1.638c-.284-.392-.714-.588-1.29-.588-.584 0-1.02.196-1.308.588-.284.388-.426.934-.426 1.638s.142 1.25.426 1.638c.288.388.724.582 1.308.582zm11.199-3.792c-.192-.252-.4-.428-.624-.528-.22-.1-.468-.15-.744-.15-.536 0-.952.194-1.248.582-.292.384-.438.946-.438 1.686 0 .388.032.72.096.996.068.272.164.496.288.672.128.172.284.3.468.384.184.08.392.12.624.12.34 0 .634-.076.882-.228s.48-.366.696-.642zm1.176-4.236v8.856h-.708c-.164 0-.266-.078-.306-.234l-.102-.702c-.26.308-.556.556-.888.744-.328.184-.708.276-1.14.276-.348 0-.664-.068-.948-.204-.28-.136-.52-.334-.72-.594-.2-.264-.354-.59-.462-.978s-.162-.834-.162-1.338c0-.452.06-.872.18-1.26s.294-.724.522-1.008.504-.506.828-.666c.324-.164.69-.246 1.098-.246.368 0 .68.06.936.18.26.12.492.29.696.51v-3.336zm2.857 2.76v6.096h-1.17v-6.096zm.222-1.884c0 .108-.022.212-.066.312-.044.096-.104.182-.18.258-.072.072-.158.13-.258.174-.1.04-.204.06-.312.06s-.21-.02-.306-.06c-.096-.044-.182-.102-.258-.174-.072-.076-.13-.162-.174-.258-.04-.1-.06-.204-.06-.312 0-.112.02-.216.06-.312.044-.1.102-.186.174-.258.076-.076.162-.134.258-.174.096-.044.198-.066.306-.066s.212.022.312.066c.1.04.186.098.258.174.076.072.136.158.18.258.044.096.066.2.066.312zm1.874 7.98v-5.136l-.636-.078c-.092-.02-.168-.052-.228-.096-.056-.048-.084-.116-.084-.204v-.486h.948v-.456c0-.348.05-.658.15-.93s.242-.502.426-.69c.188-.192.412-.336.672-.432.264-.1.56-.15.888-.15.276 0 .53.04.762.12l-.024.594c-.004.048-.02.086-.048.114-.028.024-.066.042-.114.054-.044.012-.1.02-.168.024-.064 0-.134 0-.21 0-.18 0-.344.022-.492.066s-.274.118-.378.222-.184.242-.24.414c-.056.168-.084.378-.084.63v.42h2.664v-.624c0-.348.05-.658.15-.93s.242-.502.426-.69c.188-.192.414-.336.678-.432.264-.1.56-.15.888-.15.268 0 .522.04.762.12l-.03.588c-.004.052-.02.092-.048.12-.024.024-.06.042-.108.054s-.104.02-.168.024c-.064 0-.136 0-.216 0-.18 0-.344.022-.492.066s-.274.118-.378.222-.184.242-.24.414c-.056.168-.084.378-.084.63v.588h1.71v.852h-1.674v5.148h-1.176v-5.148h-2.628v5.148zm11.487-3.726c0-.232-.034-.446-.102-.642-.064-.196-.16-.366-.288-.51s-.284-.256-.468-.336-.396-.12-.636-.12c-.492 0-.88.142-1.164.426-.28.284-.458.678-.534 1.182zm.966 2.856c-.144.168-.31.314-.498.438-.188.12-.388.218-.6.294s-.432.132-.66.168c-.224.036-.446.054-.666.054-.42 0-.81-.07-1.17-.21-.356-.144-.666-.352-.93-.624-.26-.276-.464-.616-.612-1.02-.144-.408-.216-.876-.216-1.404 0-.424.066-.818.198-1.182.132-.368.32-.688.564-.96.248-.272.55-.486.906-.642s.756-.234 1.2-.234c.372 0 .714.062 1.026.186.316.12.588.296.816.528s.406.518.534.858c.132.34.198.728.198 1.164 0 .18-.02.302-.06.366-.04.06-.114.09-.222.09h-3.996c.012.364.064.682.156.954.092.268.218.492.378.672.164.18.358.314.582.402s.474.132.75.132c.26 0 .484-.03.672-.09.192-.06.356-.124.492-.192.14-.072.256-.138.348-.198.096-.06.18-.09.252-.09.096 0 .17.036.222.108zm2.452-4.056c.196-.4.432-.714.708-.942s.608-.342.996-.342c.132 0 .256.016.372.048.12.028.224.072.312.132l-.078.882c-.028.108-.094.162-.198.162-.056 0-.14-.01-.252-.03-.112-.024-.232-.036-.36-.036-.188 0-.354.028-.498.084-.144.052-.274.132-.39.24-.112.104-.212.234-.3.39-.088.152-.17.326-.246.522v3.816h-1.17v-6.096h.672c.128 0 .214.024.258.072.048.044.082.124.102.24zm7.106 1.2c0-.232-.034-.446-.102-.642-.064-.196-.16-.366-.288-.51s-.284-.256-.468-.336-.396-.12-.636-.12c-.492 0-.88.142-1.164.426-.28.284-.458.678-.534 1.182zm.966 2.856c-.144.168-.31.314-.498.438-.188.12-.388.218-.6.294s-.432.132-.66.168c-.224.036-.446.054-.666.054-.42 0-.81-.07-1.17-.21-.356-.144-.666-.352-.93-.624-.26-.276-.464-.616-.612-1.02-.144-.408-.216-.876-.216-1.404 0-.424.066-.818.198-1.182.132-.368.32-.688.564-.96.248-.272.55-.486.906-.642s.756-.234 1.2-.234c.372 0 .714.062 1.026.186.316.12.588.296.816.528s.406.518.534.858c.132.34.198.728.198 1.164 0 .18-.02.302-.06.366-.04.06-.114.09-.222.09h-3.996c.012.364.064.682.156.954.092.268.218.492.378.672.164.18.358.314.582.402s.474.132.75.132c.26 0 .484-.03.672-.09.192-.06.356-.124.492-.192.14-.072.256-.138.348-.198.096-.06.18-.09.252-.09.096 0 .17.036.222.108zm2.445-4.38c.132-.14.27-.268.414-.384s.296-.214.456-.294c.164-.084.338-.148.522-.192.188-.048.388-.072.6-.072.336 0 .63.056.882.168.256.112.47.27.642.474.172.2.302.442.39.726s.132.598.132.942v3.882h-1.176v-3.882c0-.436-.1-.774-.3-1.014-.2-.244-.506-.366-.918-.366-.3 0-.582.072-.846.216-.26.14-.502.332-.726.576v4.47h-1.17v-6.096h.702c.164 0 .266.078.306.234zm9.889.294c-.036.044-.072.08-.108.108-.032.024-.08.036-.144.036s-.132-.024-.204-.072c-.068-.052-.156-.106-.264-.162-.104-.06-.232-.114-.384-.162-.148-.052-.332-.078-.552-.078-.288 0-.542.052-.762.156s-.404.252-.552.444c-.144.192-.254.426-.33.702s-.114.586-.114.93c0 .356.04.674.12.954.08.276.194.51.342.702.148.188.328.332.54.432.212.096.448.144.708.144.252 0 .46-.03.624-.09.164-.064.3-.132.408-.204s.198-.138.27-.198c.072-.064.146-.096.222-.096.096 0 .17.036.222.108l.336.432c-.14.172-.298.318-.474.438-.172.12-.356.218-.552.294s-.402.132-.618.168c-.212.036-.428.054-.648.054-.38 0-.736-.07-1.068-.21-.328-.14-.614-.344-.858-.612-.24-.268-.43-.596-.57-.984-.14-.392-.21-.836-.21-1.332 0-.452.062-.87.186-1.254.128-.384.314-.714.558-.99.248-.28.552-.498.912-.654.36-.16.772-.24 1.236-.24.436 0 .82.07 1.152.21s.628.338.888.594zm5.403 1.23c0-.232-.034-.446-.102-.642-.064-.196-.16-.366-.288-.51s-.284-.256-.468-.336-.396-.12-.636-.12c-.492 0-.88.142-1.164.426-.28.284-.458.678-.534 1.182zm.966 2.856c-.144.168-.31.314-.498.438-.188.12-.388.218-.6.294s-.432.132-.66.168c-.224.036-.446.054-.666.054-.42 0-.81-.07-1.17-.21-.356-.144-.666-.352-.93-.624-.26-.276-.464-.616-.612-1.02-.144-.408-.216-.876-.216-1.404 0-.424.066-.818.198-1.182.132-.368.32-.688.564-.96.248-.272.55-.486.906-.642s.756-.234 1.2-.234c.372 0 .714.062 1.026.186.316.12.588.296.816.528s.406.518.534.858c.132.34.198.728.198 1.164 0 .18-.02.302-.06.366-.04.06-.114.09-.222.09h-3.996c.012.364.064.682.156.954.092.268.218.492.378.672.164.18.358.314.582.402s.474.132.75.132c.26 0 .484-.03.672-.09.192-.06.356-.124.492-.192.14-.072.256-.138.348-.198.096-.06.18-.09.252-.09.096 0 .17.036.222.108zm8.313-3.75c-.192-.252-.4-.428-.624-.528-.22-.1-.468-.15-.744-.15-.536 0-.952.194-1.248.582-.292.384-.438.946-.438 1.686 0 .388.032.72.096.996.068.272.164.496.288.672.128.172.284.3.468.384.184.08.392.12.624.12.34 0 .634-.076.882-.228s.48-.366.696-.642zm1.176-4.236v8.856h-.708c-.164 0-.266-.078-.306-.234l-.102-.702c-.26.308-.556.556-.888.744-.328.184-.708.276-1.14.276-.348 0-.664-.068-.948-.204-.28-.136-.52-.334-.72-.594-.2-.264-.354-.59-.462-.978s-.162-.834-.162-1.338c0-.452.06-.872.18-1.26s.294-.724.522-1.008.504-.506.828-.666c.324-.164.69-.246 1.098-.246.368 0 .68.06.936.18.26.12.492.29.696.51v-3.336zm5.67 5.13c0-.232-.034-.446-.102-.642-.064-.196-.16-.366-.288-.51s-.284-.256-.468-.336-.396-.12-.636-.12c-.492 0-.88.142-1.164.426-.28.284-.458.678-.534 1.182zm.966 2.856c-.144.168-.31.314-.498.438-.188.12-.388.218-.6.294s-.432.132-.66.168c-.224.036-.446.054-.666.054-.42 0-.81-.07-1.17-.21-.356-.144-.666-.352-.93-.624-.26-.276-.464-.616-.612-1.02-.144-.408-.216-.876-.216-1.404 0-.424.066-.818.198-1.182.132-.368.32-.688.564-.96.248-.272.55-.486.906-.642s.756-.234 1.2-.234c.372 0 .714.062 1.026.186.316.12.588.296.816.528s.406.518.534.858c.132.34.198.728.198 1.164 0 .18-.02.302-.06.366-.04.06-.114.09-.222.09h-3.996c.012.364.064.682.156.954.092.268.218.492.378.672.164.18.358.314.582.402s.474.132.75.132c.26 0 .484-.03.672-.09.192-.06.356-.124.492-.192.14-.072.256-.138.348-.198.096-.06.18-.09.252-.09.096 0 .17.036.222.108zm3.208.966c-.492 0-.872-.138-1.14-.414-.264-.276-.396-.67-.396-1.182v-3.648h-.708c-.068 0-.126-.02-.174-.06-.044-.044-.066-.108-.066-.192v-.474l.99-.138.264-1.818c.016-.068.046-.12.09-.156.048-.04.108-.06.18-.06h.594v2.046h1.728v.852h-1.728v3.57c0 .24.058.42.174.54.12.116.272.174.456.174.108 0 .2-.014.276-.042.08-.028.148-.058.204-.09.056-.036.104-.068.144-.096s.076-.042.108-.042c.04 0 .07.01.09.03.024.016.048.044.072.084l.348.564c-.192.176-.42.312-.684.408s-.538.144-.822.144zm6.443-3.822c0-.232-.034-.446-.102-.642-.064-.196-.16-.366-.288-.51s-.284-.256-.468-.336-.396-.12-.636-.12c-.492 0-.88.142-1.164.426-.28.284-.458.678-.534 1.182zm.966 2.856c-.144.168-.31.314-.498.438-.188.12-.388.218-.6.294s-.432.132-.66.168c-.224.036-.446.054-.666.054-.42 0-.81-.07-1.17-.21-.356-.144-.666-.352-.93-.624-.26-.276-.464-.616-.612-1.02-.144-.408-.216-.876-.216-1.404 0-.424.066-.818.198-1.182.132-.368.32-.688.564-.96.248-.272.55-.486.906-.642s.756-.234 1.2-.234c.372 0 .714.062 1.026.186.316.12.588.296.816.528s.406.518.534.858c.132.34.198.728.198 1.164 0 .18-.02.302-.06.366-.04.06-.114.09-.222.09h-3.996c.012.364.064.682.156.954.092.268.218.492.378.672.164.18.358.314.582.402s.474.132.75.132c.26 0 .484-.03.672-.09.192-.06.356-.124.492-.192.14-.072.256-.138.348-.198.096-.06.18-.09.252-.09.096 0 .17.036.222.108zm5.62-4.086c-.036.044-.072.08-.108.108-.032.024-.08.036-.144.036s-.132-.024-.204-.072c-.068-.052-.156-.106-.264-.162-.104-.06-.232-.114-.384-.162-.148-.052-.332-.078-.552-.078-.288 0-.542.052-.762.156s-.404.252-.552.444c-.144.192-.254.426-.33.702s-.114.586-.114.93c0 .356.04.674.12.954.08.276.194.51.342.702.148.188.328.332.54.432.212.096.448.144.708.144.252 0 .46-.03.624-.09.164-.064.3-.132.408-.204s.198-.138.27-.198c.072-.064.146-.096.222-.096.096 0 .17.036.222.108l.336.432c-.14.172-.298.318-.474.438-.172.12-.356.218-.552.294s-.402.132-.618.168c-.212.036-.428.054-.648.054-.38 0-.736-.07-1.068-.21-.328-.14-.614-.344-.858-.612-.24-.268-.43-.596-.57-.984-.14-.392-.21-.836-.21-1.332 0-.452.062-.87.186-1.254.128-.384.314-.714.558-.99.248-.28.552-.498.912-.654.36-.16.772-.24 1.236-.24.436 0 .82.07 1.152.21s.628.338.888.594zm3.378 5.052c-.492 0-.872-.138-1.14-.414-.264-.276-.396-.67-.396-1.182v-3.648h-.708c-.068 0-.126-.02-.174-.06-.044-.044-.066-.108-.066-.192v-.474l.99-.138.264-1.818c.016-.068.046-.12.09-.156.048-.04.108-.06.18-.06h.594v2.046h1.728v.852h-1.728v3.57c0 .24.058.42.174.54.12.116.272.174.456.174.108 0 .2-.014.276-.042.08-.028.148-.058.204-.09.056-.036.104-.068.144-.096s.076-.042.108-.042c.04 0 .07.01.09.03.024.016.048.044.072.084l.348.564c-.192.176-.42.312-.684.408s-.538.144-.822.144zm6.442-3.822c0-.232-.034-.446-.102-.642-.064-.196-.16-.366-.288-.51s-.284-.256-.468-.336-.396-.12-.636-.12c-.492 0-.88.142-1.164.426-.28.284-.458.678-.534 1.182zm.966 2.856c-.144.168-.31.314-.498.438-.188.12-.388.218-.6.294s-.432.132-.66.168c-.224.036-.446.054-.666.054-.42 0-.81-.07-1.17-.21-.356-.144-.666-.352-.93-.624-.26-.276-.464-.616-.612-1.02-.144-.408-.216-.876-.216-1.404 0-.424.066-.818.198-1.182.132-.368.32-.688.564-.96.248-.272.55-.486.906-.642s.756-.234 1.2-.234c.372 0 .714.062 1.026.186.316.12.588.296.816.528s.406.518.534.858c.132.34.198.728.198 1.164 0 .18-.02.302-.06.366-.04.06-.114.09-.222.09h-3.996c.012.364.064.682.156.954.092.268.218.492.378.672.164.18.358.314.582.402s.474.132.75.132c.26 0 .484-.03.672-.09.192-.06.356-.124.492-.192.14-.072.256-.138.348-.198.096-.06.18-.09.252-.09.096 0 .17.036.222.108zm5.278-3.75c-.192-.252-.4-.428-.624-.528-.22-.1-.468-.15-.744-.15-.536 0-.952.194-1.248.582-.292.384-.438.946-.438 1.686 0 .388.032.72.096.996.068.272.164.496.288.672.128.172.284.3.468.384.184.08.392.12.624.12.34 0 .634-.076.882-.228s.48-.366.696-.642zm1.176-4.236v8.856h-.708c-.164 0-.266-.078-.306-.234l-.102-.702c-.26.308-.556.556-.888.744-.328.184-.708.276-1.14.276-.348 0-.664-.068-.948-.204-.28-.136-.52-.334-.72-.594-.2-.264-.354-.59-.462-.978s-.162-.834-.162-1.338c0-.452.06-.872.18-1.26s.294-.724.522-1.008.504-.506.828-.666c.324-.164.69-.246 1.098-.246.368 0 .68.06.936.18.26.12.492.29.696.51v-3.336z" fill="#64748b"/><rect fill="#fdf2f8" height="22" rx="4" width="243" x="199.5" y="86.4065"/><path clip-rule="evenodd" d="m218.3 97.4065c0 2.6505-2.149 4.7995-4.8 4.7995s-4.8-2.149-4.8-4.7995c0-2.651 2.149-4.8 4.8-4.8s4.8 2.149 4.8 4.8zm-4.8-3c.248 0 .45.2015.45.45v2.7c0 .2485-.202.45-.45.45-.249 0-.45-.2015-.45-.45v-2.7c0-.2485.201-.45.45-.45zm0 5.9995c.331 0 .6-.268.6-.5995 0-.3314-.269-.6-.6-.6s-.6.2686-.6.6c0 .3315.269.5995.6.5995z" fill="#ea580c" fill-rule="evenodd"/><path d="m230.34 100.36c.088 0 .164.034.228.102l.636.69c-.352.436-.786.77-1.302 1.002-.512.232-1.128.348-1.848.348-.644 0-1.224-.11-1.74-.33-.512-.22-.95-.526-1.314-.918s-.644-.86-.84-1.4035c-.192-.544-.288-1.138-.288-1.782 0-.652.108-1.248.324-1.788.216-.544.52-1.012.912-1.404s.86-.696 1.404-.912c.548-.22 1.152-.33 1.812-.33.644 0 1.206.104 1.686.312.484.204.898.476 1.242.816l-.54.75c-.032.048-.074.09-.126.126-.048.036-.116.054-.204.054-.092 0-.186-.036-.282-.108s-.218-.15-.366-.234-.336-.162-.564-.234c-.224-.072-.51-.108-.858-.108-.408 0-.784.072-1.128.216-.34.14-.634.342-.882.606-.244.264-.436.586-.576.966-.136.376-.204.8-.204 1.272 0 .488.068.922.204 1.302.14.38.328.6995.564.9595s.514.46.834.6c.32.136.664.204 1.032.204.22 0 .418-.012.594-.036.18-.024.344-.062.492-.114.152-.052.294-.118.426-.198.136-.084.27-.186.402-.306.04-.036.082-.064.126-.084.044-.024.092-.036.144-.036zm4.631-4.2055c.46 0 .876.074 1.248.222.376.148.696.358.96.63s.468.604.612.996.216.83.216 1.314c0 .488-.072.9275-.216 1.3195s-.348.726-.612 1.002-.584.488-.96.636c-.372.148-.788.222-1.248.222s-.878-.074-1.254-.222-.698-.36-.966-.636c-.264-.276-.47-.61-.618-1.002-.144-.392-.216-.8315-.216-1.3195 0-.484.072-.922.216-1.314.148-.392.354-.724.618-.996.268-.272.59-.482.966-.63s.794-.222 1.254-.222zm0 5.2015c.512 0 .89-.172 1.134-.516.248-.344.372-.8475.372-1.5115s-.124-1.17-.372-1.518c-.244-.348-.622-.522-1.134-.522-.52 0-.904.176-1.152.528-.248.348-.372.852-.372 1.512s.124 1.1635.372 1.5115c.248.344.632.516 1.152.516zm4.192 1.05v-6.1555h.906c.192 0 .318.09.378.27l.096.456c.108-.12.22-.23.336-.33.12-.1.246-.186.378-.258.136-.072.28-.128.432-.168.156-.044.326-.066.51-.066.388 0 .706.106.954.318.252.208.44.486.564.834.096-.204.216-.378.36-.522.144-.148.302-.268.474-.36s.354-.16.546-.204c.196-.044.392-.066.588-.066.34 0 .642.052.906.156s.486.256.666.456.316.444.408.732c.096.288.144.618.144.99v3.9175h-1.482v-3.9175c0-.392-.086-.686-.258-.882-.172-.2-.424-.3-.756-.3-.152 0-.294.026-.426.078-.128.052-.242.128-.342.228-.096.096-.172.218-.228.366s-.084.318-.084.51v3.9175h-1.488v-3.9175c0-.412-.084-.712-.252-.9-.164-.188-.408-.282-.732-.282-.212 0-.412.054-.6.162-.184.104-.356.248-.516.432v4.5055zm10.102 2.01v-8.1655h.906c.096 0 .178.022.246.066s.112.112.132.204l.12.57c.248-.284.532-.514.852-.69.324-.176.702-.264 1.134-.264.336 0 .642.07.918.21.28.14.52.344.72.612.204.264.36.592.468.984.112.388.168.834.168 1.338 0 .46-.062.8855-.186 1.2775s-.302.732-.534 1.02c-.228.288-.506.514-.834.678-.324.16-.688.24-1.092.24-.348 0-.644-.052-.888-.156-.24-.108-.456-.256-.648-.444v2.52zm2.88-7.1095c-.308 0-.572.066-.792.198-.216.128-.418.31-.606.546v2.7595c.168.208.35.354.546.438.2.08.414.12.642.12.224 0 .426-.042.606-.126.184-.084.338-.212.462-.384.128-.172.226-.388.294-.648.068-.2635.102-.5735.102-.9295 0-.36-.03-.664-.09-.912-.056-.252-.138-.456-.246-.612s-.24-.27-.396-.342c-.152-.072-.326-.108-.522-.108zm6.533-1.152c.46 0 .876.074 1.248.222.376.148.696.358.96.63s.468.604.612.996.216.83.216 1.314c0 .488-.072.9275-.216 1.3195s-.348.726-.612 1.002-.584.488-.96.636c-.372.148-.788.222-1.248.222s-.878-.074-1.254-.222-.698-.36-.966-.636c-.264-.276-.47-.61-.618-1.002-.144-.392-.216-.8315-.216-1.3195 0-.484.072-.922.216-1.314.148-.392.354-.724.618-.996.268-.272.59-.482.966-.63s.794-.222 1.254-.222zm0 5.2015c.512 0 .89-.172 1.134-.516.248-.344.372-.8475.372-1.5115s-.124-1.17-.372-1.518c-.244-.348-.622-.522-1.134-.522-.52 0-.904.176-1.152.528-.248.348-.372.852-.372 1.512s.124 1.1635.372 1.5115c.248.344.632.516 1.152.516zm4.192 1.05v-6.1555h.906c.192 0 .318.09.378.27l.102.486c.124-.128.254-.244.39-.348.14-.104.286-.194.438-.27.156-.076.322-.134.498-.174s.368-.06.576-.06c.336 0 .634.058.894.174.26.112.476.272.648.48.176.204.308.45.396.738.092.284.138.598.138.942v3.9175h-1.482v-3.9175c0-.376-.088-.666-.264-.87-.172-.208-.432-.312-.78-.312-.256 0-.496.058-.72.174s-.436.274-.636.474v4.4515zm9.364-6.2515c.388 0 .744.062 1.068.186.328.124.61.306.846.546.236.236.42.528.552.876.132.344.198.738.198 1.182 0 .112-.006.206-.018.282-.008.072-.026.13-.054.174-.024.04-.058.07-.102.09-.044.016-.1.024-.168.024h-3.804c.044.6315.214 1.0955.51 1.3915s.688.444 1.176.444c.24 0 .446-.028.618-.084.176-.056.328-.118.456-.186.132-.068.246-.13.342-.186.1-.056.196-.084.288-.084.06 0 .112.012.156.036s.082.058.114.102l.432.54c-.164.192-.348.354-.552.486-.204.128-.418.232-.642.312-.22.076-.446.13-.678.162-.228.032-.45.048-.666.048-.428 0-.826-.07-1.194-.21-.368-.144-.688-.354-.96-.63-.272-.28-.486-.624-.642-1.032-.156-.412-.234-.8875-.234-1.4275 0-.42.068-.814.204-1.182.136-.372.33-.694.582-.966.256-.276.566-.494.93-.654.368-.16.782-.24 1.242-.24zm.03 1.062c-.432 0-.77.122-1.014.366s-.4.59-.468 1.038h2.784c0-.192-.026-.372-.078-.54-.052-.172-.132-.322-.24-.45s-.244-.228-.408-.3c-.164-.076-.356-.114-.576-.114zm3.837 5.1895v-6.1555h.906c.192 0 .318.09.378.27l.102.486c.124-.128.254-.244.39-.348.14-.104.286-.194.438-.27.156-.076.322-.134.498-.174s.368-.06.576-.06c.336 0 .634.058.894.174.26.112.476.272.648.48.176.204.308.45.396.738.092.284.138.598.138.942v3.9175h-1.482v-3.9175c0-.376-.088-.666-.264-.87-.172-.208-.432-.312-.78-.312-.256 0-.496.058-.72.174s-.436.274-.636.474v4.4515zm8.842.096c-.532 0-.942-.15-1.23-.45-.288-.304-.432-.722-.432-1.254v-3.4375h-.624c-.08 0-.15-.026-.21-.078-.056-.052-.084-.13-.084-.234v-.588l.99-.162.312-1.68c.016-.08.052-.142.108-.186.06-.044.134-.066.222-.066h.768v1.938h1.62v1.056h-1.62v3.3355c0 .192.048.342.144.45s.224.162.384.162c.092 0 .168-.01.228-.03.064-.024.118-.048.162-.072.048-.024.09-.046.126-.066.036-.024.072-.036.108-.036.044 0 .08.012.108.036.028.02.058.052.09.096l.444.72c-.216.18-.464.316-.744.408s-.57.138-.87.138zm6.273-5.0515c-.04.064-.082.11-.126.138-.044.024-.1.036-.168.036-.072 0-.15-.02-.234-.06-.08-.04-.174-.084-.282-.132-.108-.052-.232-.098-.372-.138-.136-.04-.298-.06-.486-.06-.292 0-.522.062-.69.186s-.252.286-.252.486c0 .132.042.244.126.336.088.088.202.166.342.234.144.068.306.13.486.186.18.052.364.11.552.174s.372.138.552.222c.18.08.34.184.48.312.144.124.258.274.342.45.088.176.132.3875.132.6355 0 .296-.054.57-.162.822-.108.248-.266.464-.474.648-.208.18-.466.322-.774.426-.304.1-.654.15-1.05.15-.212 0-.42-.02-.624-.06-.2-.036-.394-.088-.582-.156-.184-.068-.356-.148-.516-.24-.156-.092-.294-.192-.414-.3l.342-.564c.044-.068.096-.12.156-.156s.136-.054.228-.054.178.026.258.078c.084.052.18.108.288.168s.234.116.378.168c.148.052.334.078.558.078.176 0 .326-.02.45-.06.128-.044.232-.1.312-.168.084-.068.144-.146.18-.234.04-.092.06-.186.06-.282 0-.144-.044-.262-.132-.354-.084-.092-.198-.172-.342-.24-.14-.068-.302-.1275-.486-.1795-.18-.056-.366-.116-.558-.18-.188-.064-.374-.138-.558-.222-.18-.088-.342-.198-.486-.33-.14-.132-.254-.294-.342-.486-.084-.192-.126-.424-.126-.696 0-.252.05-.492.15-.72s.246-.426.438-.594c.196-.172.438-.308.726-.408.292-.104.628-.156 1.008-.156.424 0 .81.07 1.158.21s.638.324.87.552z" fill="#334155"/><path d="m297.256 98.4225h8.022v.852h-8.022zm17.95 3.0895v.894h-4.656v-.894h1.824v-5.6455c0-.18.006-.366.018-.558l-1.464 1.242c-.056.044-.112.072-.168.084s-.11.014-.162.006c-.048-.008-.092-.024-.132-.048-.036-.028-.066-.056-.09-.084l-.366-.51 2.58-2.226h.954v7.7395zm4.297.012c.276 0 .526-.044.75-.132.224-.092.416-.216.576-.372s.284-.342.372-.558.132-.45.132-.7015c0-.276-.044-.522-.132-.738-.084-.22-.204-.406-.36-.558-.152-.152-.336-.268-.552-.348s-.456-.12-.72-.12c-.276 0-.524.048-.744.144-.22.092-.408.218-.564.378-.156.156-.276.34-.36.552s-.126.434-.126.666c0 .2635.038.5055.114.7255s.188.408.336.564.328.278.54.366c.216.088.462.132.738.132zm-.552-4.5295c-.068.088-.136.174-.204.258-.064.08-.126.16-.186.24.192-.124.404-.22.636-.288.236-.068.49-.102.762-.102.34 0 .664.056.972.168s.578.276.81.492c.236.216.422.484.558.804s.204.688.204 1.104c0 .3955-.072.7675-.216 1.1155-.144.344-.348.644-.612.9-.26.252-.572.452-.936.6-.364.144-.768.216-1.212.216-.44 0-.838-.07-1.194-.21-.352-.14-.654-.338-.906-.594-.248-.26-.44-.572-.576-.936-.136-.368-.204-.7755-.204-1.2235 0-.384.082-.788.246-1.212.168-.428.432-.884.792-1.368l2.154-2.886c.06-.08.144-.146.252-.198.108-.056.232-.084.372-.084h1.044zm11.832.792c-.192-.252-.4-.428-.624-.528-.22-.1-.468-.15-.744-.15-.536 0-.952.194-1.248.582-.292.384-.438.946-.438 1.686 0 .388.032.7195.096.9955.068.272.164.496.288.672.128.172.284.3.468.384.184.08.392.12.624.12.34 0 .634-.076.882-.228s.48-.366.696-.642zm1.176-4.236v8.8555h-.708c-.164 0-.266-.078-.306-.234l-.102-.702c-.26.308-.556.556-.888.744-.328.184-.708.276-1.14.276-.348 0-.664-.068-.948-.204-.28-.136-.52-.334-.72-.594-.2-.264-.354-.59-.462-.978s-.162-.8335-.162-1.3375c0-.452.06-.872.18-1.26s.294-.724.522-1.008.504-.506.828-.666c.324-.164.69-.246 1.098-.246.368 0 .68.06.936.18.26.12.492.29.696.51v-3.336zm2.857 2.76v6.0955h-1.17v-6.0955zm.222-1.884c0 .108-.022.212-.066.312-.044.096-.104.182-.18.258-.072.072-.158.13-.258.174-.1.04-.204.06-.312.06s-.21-.02-.306-.06c-.096-.044-.182-.102-.258-.174-.072-.076-.13-.162-.174-.258-.04-.1-.06-.204-.06-.312 0-.112.02-.216.06-.312.044-.1.102-.186.174-.258.076-.076.162-.134.258-.174.096-.044.198-.066.306-.066s.212.022.312.066c.1.04.186.098.258.174.076.072.136.158.18.258.044.096.066.2.066.312zm1.874 7.9795v-5.1355l-.636-.078c-.092-.02-.168-.052-.228-.096-.056-.048-.084-.116-.084-.204v-.486h.948v-.456c0-.348.05-.658.15-.93s.242-.502.426-.69c.188-.192.412-.336.672-.432.264-.1.56-.15.888-.15.276 0 .53.04.762.12l-.024.594c-.004.048-.02.086-.048.114-.028.024-.066.042-.114.054-.044.012-.1.02-.168.024-.064 0-.134 0-.21 0-.18 0-.344.022-.492.066s-.274.118-.378.222-.184.242-.24.414c-.056.168-.084.378-.084.63v.42h2.664v-.624c0-.348.05-.658.15-.93s.242-.502.426-.69c.188-.192.414-.336.678-.432.264-.1.56-.15.888-.15.268 0 .522.04.762.12l-.03.588c-.004.052-.02.092-.048.12-.024.024-.06.042-.108.054s-.104.02-.168.024c-.064 0-.136 0-.216 0-.18 0-.344.022-.492.066s-.274.118-.378.222-.184.242-.24.414c-.056.168-.085.378-.085.63v.588h1.711v.852h-1.674v5.1475h-1.176v-5.1475h-2.628v5.1475zm11.487-3.7255c0-.232-.034-.446-.102-.642-.064-.196-.16-.366-.288-.51s-.284-.256-.468-.336-.396-.12-.636-.12c-.492 0-.88.142-1.164.426-.28.284-.458.678-.534 1.182zm.966 2.8555c-.144.168-.31.314-.498.438-.188.12-.388.218-.6.294s-.432.132-.66.168c-.224.036-.446.054-.666.054-.42 0-.81-.07-1.17-.21-.356-.144-.666-.352-.93-.624-.26-.276-.464-.616-.612-1.02-.144-.408-.216-.8755-.216-1.4035 0-.424.066-.818.198-1.182.132-.368.32-.688.564-.96.248-.272.55-.486.906-.642s.756-.234 1.2-.234c.372 0 .714.062 1.026.186.316.12.588.296.816.528s.406.518.534.858c.132.34.198.728.198 1.164 0 .18-.02.302-.06.366-.04.06-.114.09-.222.09h-3.996c.012.364.064.6815.156.9535.092.268.218.492.378.672.164.18.358.314.582.402s.474.132.75.132c.26 0 .484-.03.672-.09.192-.06.356-.124.492-.192.14-.072.256-.138.348-.198.096-.06.18-.09.252-.09.096 0 .17.036.222.108zm2.452-4.0555c.196-.4.432-.714.708-.942s.608-.342.996-.342c.132 0 .256.016.372.048.12.028.224.072.312.132l-.078.882c-.028.108-.094.162-.198.162-.056 0-.14-.01-.252-.03-.112-.024-.232-.036-.36-.036-.188 0-.354.028-.498.084-.144.052-.274.132-.39.24-.112.104-.212.234-.3.39-.088.152-.17.326-.246.522v3.8155h-1.17v-6.0955h.672c.128 0 .214.024.258.072.048.044.082.124.102.24zm7.106 1.2c0-.232-.034-.446-.102-.642-.064-.196-.16-.366-.288-.51s-.284-.256-.468-.336-.396-.12-.636-.12c-.492 0-.88.142-1.164.426-.28.284-.458.678-.534 1.182zm.966 2.8555c-.144.168-.31.314-.498.438-.188.12-.388.218-.6.294s-.432.132-.66.168c-.224.036-.446.054-.666.054-.42 0-.81-.07-1.17-.21-.356-.144-.666-.352-.93-.624-.26-.276-.464-.616-.612-1.02-.144-.408-.216-.8755-.216-1.4035 0-.424.066-.818.198-1.182.132-.368.32-.688.564-.96.248-.272.55-.486.906-.642s.756-.234 1.2-.234c.372 0 .714.062 1.026.186.316.12.588.296.816.528s.406.518.534.858c.132.34.198.728.198 1.164 0 .18-.02.302-.06.366-.04.06-.114.09-.222.09h-3.996c.012.364.064.6815.156.9535.092.268.218.492.378.672.164.18.358.314.582.402s.474.132.75.132c.26 0 .484-.03.672-.09.192-.06.356-.124.492-.192.14-.072.256-.138.348-.198.096-.06.18-.09.252-.09.096 0 .17.036.222.108zm2.445-4.3795c.132-.14.27-.268.414-.384s.296-.214.456-.294c.164-.084.338-.148.522-.192.188-.048.388-.072.6-.072.336 0 .63.056.882.168.256.112.47.27.642.474.172.2.302.442.39.726s.132.598.132.942v3.8815h-1.176v-3.8815c0-.436-.1-.774-.3-1.014-.2-.244-.506-.366-.918-.366-.3 0-.582.072-.846.216-.26.14-.502.332-.726.576v4.4695h-1.17v-6.0955h.702c.164 0 .266.078.306.234zm9.889.294c-.036.044-.072.08-.108.108-.032.024-.08.036-.144.036s-.132-.024-.204-.072c-.068-.052-.156-.106-.264-.162-.104-.06-.232-.114-.384-.162-.148-.052-.332-.078-.552-.078-.288 0-.542.052-.762.156s-.404.252-.552.444c-.144.192-.254.426-.33.702s-.114.586-.114.93c0 .356.04.6735.12.9535.08.276.194.51.342.702.148.188.328.332.54.432.212.096.448.144.708.144.252 0 .46-.03.624-.09.164-.064.3-.132.408-.204s.198-.138.27-.198c.072-.064.146-.096.222-.096.096 0 .17.036.222.108l.336.432c-.14.172-.298.318-.474.438-.172.12-.356.218-.552.294s-.402.132-.618.168c-.212.036-.428.054-.648.054-.38 0-.736-.07-1.068-.21-.328-.14-.614-.344-.858-.612-.24-.268-.43-.596-.57-.984-.14-.392-.21-.8355-.21-1.3315 0-.452.062-.87.186-1.254.128-.384.314-.714.558-.99.248-.28.552-.498.912-.654.36-.16.772-.24 1.236-.24.436 0 .82.07 1.152.21s.628.338.888.594zm5.403 1.23c0-.232-.034-.446-.102-.642-.064-.196-.16-.366-.288-.51s-.284-.256-.468-.336-.396-.12-.636-.12c-.492 0-.88.142-1.164.426-.28.284-.458.678-.534 1.182zm.966 2.8555c-.144.168-.31.314-.498.438-.188.12-.388.218-.6.294s-.432.132-.66.168c-.224.036-.446.054-.666.054-.42 0-.81-.07-1.17-.21-.356-.144-.666-.352-.93-.624-.26-.276-.464-.616-.612-1.02-.144-.408-.216-.8755-.216-1.4035 0-.424.066-.818.198-1.182.132-.368.32-.688.564-.96.248-.272.55-.486.906-.642s.756-.234 1.2-.234c.372 0 .714.062 1.026.186.316.12.588.296.816.528s.406.518.534.858c.132.34.198.728.198 1.164 0 .18-.02.302-.06.366-.04.06-.114.09-.222.09h-3.996c.012.364.064.6815.156.9535.092.268.218.492.378.672.164.18.358.314.582.402s.474.132.75.132c.26 0 .484-.03.672-.09.192-.06.356-.124.492-.192.14-.072.256-.138.348-.198.096-.06.18-.09.252-.09.096 0 .17.036.222.108zm4.941-4.1755c-.032.052-.066.09-.102.114-.036.02-.082.03-.138.03-.064 0-.136-.022-.216-.066-.076-.044-.17-.092-.282-.144-.108-.052-.236-.1-.384-.144s-.324-.066-.528-.066c-.168 0-.322.022-.462.066-.136.04-.252.098-.348.174-.096.072-.17.16-.222.264-.052.1-.078.208-.078.324 0 .152.044.278.132.378.092.1.21.186.354.258.148.072.314.138.498.198.188.056.378.116.57.18.196.064.386.138.57.222.188.08.354.182.498.306.148.12.266.266.354.438.092.1715.138.3815.138.6295 0 .284-.052.548-.156.792-.1.24-.25.448-.45.624-.196.176-.44.314-.732.414s-.626.15-1.002.15c-.42 0-.808-.07-1.164-.21s-.654-.318-.894-.534l.276-.45c.032-.056.072-.098.12-.126.048-.032.112-.048.192-.048.076 0 .154.028.234.084s.176.118.288.186c.112.064.248.124.408.18.16.052.36.078.6.078.2 0 .374-.024.522-.072.148-.052.27-.12.366-.204.1-.088.174-.188.222-.3s.072-.23.072-.354c0-.16-.046-.292-.138-.396-.088-.108-.206-.2-.354-.276-.144-.0755-.31-.1415-.498-.1975s-.38-.116-.576-.18-.388-.138-.576-.222-.356-.19-.504-.318c-.144-.128-.262-.284-.354-.468-.088-.184-.132-.408-.132-.672 0-.236.048-.462.144-.678.1-.216.242-.406.426-.57.188-.164.418-.294.69-.39.276-.1.59-.15.942-.15.404 0 .768.064 1.092.192.328.128.608.304.84.528zm8.586.426c-.192-.252-.4-.428-.624-.528-.22-.1-.468-.15-.744-.15-.536 0-.952.194-1.248.582-.292.384-.438.946-.438 1.686 0 .388.032.7195.096.9955.068.272.164.496.288.672.128.172.284.3.468.384.184.08.392.12.624.12.34 0 .634-.076.882-.228s.48-.366.696-.642zm1.176-4.236v8.8555h-.708c-.164 0-.266-.078-.306-.234l-.102-.702c-.26.308-.556.556-.888.744-.328.184-.708.276-1.14.276-.348 0-.664-.068-.948-.204-.28-.136-.52-.334-.72-.594-.2-.264-.354-.59-.462-.978s-.162-.8335-.162-1.3375c0-.452.06-.872.18-1.26s.294-.724.522-1.008.504-.506.828-.666c.324-.164.69-.246 1.098-.246.368 0 .68.06.936.18.26.12.492.29.696.51v-3.336zm5.67 5.13c0-.232-.034-.446-.102-.642-.064-.196-.16-.366-.288-.51s-.284-.256-.468-.336-.396-.12-.636-.12c-.492 0-.88.142-1.164.426-.28.284-.458.678-.534 1.182zm.966 2.8555c-.144.168-.31.314-.498.438-.188.12-.388.218-.6.294s-.432.132-.66.168c-.224.036-.446.054-.666.054-.42 0-.81-.07-1.17-.21-.356-.144-.666-.352-.93-.624-.26-.276-.464-.616-.612-1.02-.144-.408-.216-.8755-.216-1.4035 0-.424.066-.818.198-1.182.132-.368.32-.688.564-.96.248-.272.55-.486.906-.642s.756-.234 1.2-.234c.372 0 .714.062 1.026.186.316.12.588.296.816.528s.406.518.534.858c.132.34.198.728.198 1.164 0 .18-.02.302-.06.366-.04.06-.114.09-.222.09h-3.996c.012.364.064.6815.156.9535.092.268.218.492.378.672.164.18.358.314.582.402s.474.132.75.132c.26 0 .484-.03.672-.09.192-.06.356-.124.492-.192.14-.072.256-.138.348-.198.096-.06.18-.09.252-.09.096 0 .17.036.222.108zm3.209.966c-.492 0-.872-.138-1.14-.414-.264-.276-.396-.67-.396-1.182v-3.6475h-.708c-.068 0-.126-.02-.174-.06-.044-.044-.066-.108-.066-.192v-.474l.99-.138.264-1.818c.016-.068.046-.12.09-.156.048-.04.108-.06.18-.06h.594v2.046h1.728v.852h-1.728v3.5695c0 .24.058.42.174.54.12.116.272.174.456.174.108 0 .2-.014.276-.042.08-.028.148-.058.204-.09.056-.036.104-.068.144-.096s.076-.042.108-.042c.04 0 .07.01.09.03.024.016.048.044.072.084l.348.564c-.192.176-.42.312-.684.408s-.538.144-.822.144zm6.443-3.8215c0-.232-.034-.446-.102-.642-.064-.196-.16-.366-.288-.51s-.284-.256-.468-.336-.396-.12-.636-.12c-.492 0-.88.142-1.164.426-.28.284-.458.678-.534 1.182zm.966 2.8555c-.144.168-.31.314-.498.438-.188.12-.388.218-.6.294s-.432.132-.66.168c-.224.036-.446.054-.666.054-.42 0-.81-.07-1.17-.21-.356-.144-.666-.352-.93-.624-.26-.276-.464-.616-.612-1.02-.144-.408-.216-.8755-.216-1.4035 0-.424.066-.818.198-1.182.132-.368.32-.688.564-.96.248-.272.55-.486.906-.642s.756-.234 1.2-.234c.372 0 .714.062 1.026.186.316.12.588.296.816.528s.406.518.534.858c.132.34.198.728.198 1.164 0 .18-.02.302-.06.366-.04.06-.114.09-.222.09h-3.996c.012.364.064.6815.156.9535.092.268.218.492.378.672.164.18.358.314.582.402s.474.132.75.132c.26 0 .484-.03.672-.09.192-.06.356-.124.492-.192.14-.072.256-.138.348-.198.096-.06.18-.09.252-.09.096 0 .17.036.222.108zm5.619-4.0855c-.036.044-.072.08-.108.108-.032.024-.08.036-.144.036s-.132-.024-.204-.072c-.068-.052-.156-.106-.264-.162-.104-.06-.232-.114-.384-.162-.148-.052-.332-.078-.552-.078-.288 0-.542.052-.762.156s-.404.252-.552.444c-.144.192-.254.426-.33.702s-.114.586-.114.93c0 .356.04.6735.12.9535.08.276.194.51.342.702.148.188.328.332.54.432.212.096.448.144.708.144.252 0 .46-.03.624-.09.164-.064.3-.132.408-.204s.198-.138.27-.198c.072-.064.146-.096.222-.096.096 0 .17.036.222.108l.336.432c-.14.172-.298.318-.474.438-.172.12-.356.218-.552.294s-.402.132-.618.168c-.212.036-.428.054-.648.054-.38 0-.736-.07-1.068-.21-.328-.14-.614-.344-.858-.612-.24-.268-.43-.596-.57-.984-.14-.392-.21-.8355-.21-1.3315 0-.452.062-.87.186-1.254.128-.384.314-.714.558-.99.248-.28.552-.498.912-.654.36-.16.772-.24 1.236-.24.436 0 .82.07 1.152.21s.628.338.888.594zm3.378 5.0515c-.492 0-.872-.138-1.14-.414-.264-.276-.396-.67-.396-1.182v-3.6475h-.708c-.068 0-.126-.02-.174-.06-.044-.044-.066-.108-.066-.192v-.474l.99-.138.264-1.818c.016-.068.046-.12.09-.156.048-.04.108-.06.18-.06h.594v2.046h1.728v.852h-1.728v3.5695c0 .24.058.42.174.54.12.116.272.174.456.174.108 0 .2-.014.276-.042.08-.028.148-.058.204-.09.056-.036.104-.068.144-.096s.076-.042.108-.042c.04 0 .07.01.09.03.024.016.048.044.072.084l.348.564c-.192.176-.42.312-.684.408s-.538.144-.822.144zm6.443-3.8215c0-.232-.034-.446-.102-.642-.064-.196-.16-.366-.288-.51s-.284-.256-.468-.336-.396-.12-.636-.12c-.492 0-.88.142-1.164.426-.28.284-.458.678-.534 1.182zm.966 2.8555c-.144.168-.31.314-.498.438-.188.12-.388.218-.6.294s-.432.132-.66.168c-.224.036-.446.054-.666.054-.42 0-.81-.07-1.17-.21-.356-.144-.666-.352-.93-.624-.26-.276-.464-.616-.612-1.02-.144-.408-.216-.8755-.216-1.4035 0-.424.066-.818.198-1.182.132-.368.32-.688.564-.96.248-.272.55-.486.906-.642s.756-.234 1.2-.234c.372 0 .714.062 1.026.186.316.12.588.296.816.528s.406.518.534.858c.132.34.198.728.198 1.164 0 .18-.02.302-.06.366-.04.06-.114.09-.222.09h-3.996c.012.364.064.6815.156.9535.092.268.218.492.378.672.164.18.358.314.582.402s.474.132.75.132c.26 0 .484-.03.672-.09.192-.06.356-.124.492-.192.14-.072.256-.138.348-.198.096-.06.18-.09.252-.09.096 0 .17.036.222.108zm5.277-3.7495c-.192-.252-.4-.428-.624-.528-.22-.1-.468-.15-.744-.15-.536 0-.952.194-1.248.582-.292.384-.438.946-.438 1.686 0 .388.032.7195.096.9955.068.272.164.496.288.672.128.172.284.3.468.384.184.08.392.12.624.12.34 0 .634-.076.882-.228s.48-.366.696-.642zm1.176-4.236v8.8555h-.708c-.164 0-.266-.078-.306-.234l-.102-.702c-.26.308-.556.556-.888.744-.328.184-.708.276-1.14.276-.348 0-.664-.068-.948-.204-.28-.136-.52-.334-.72-.594-.2-.264-.354-.59-.462-.978s-.162-.8335-.162-1.3375c0-.452.06-.872.18-1.26s.294-.724.522-1.008.504-.506.828-.666c.324-.164.69-.246 1.098-.246.368 0 .68.06.936.18.26.12.492.29.696.51v-3.336z" fill="#64748b"/></svg>