<svg fill="none" height="180" viewBox="0 0 589 180" width="589" xmlns="http://www.w3.org/2000/svg" xmlns:xlink="http://www.w3.org/1999/xlink"><clipPath id="a"><path d="m57 50h476v80h-476z"/></clipPath><g clip-path="url(#a)" fill="#ff3670"><path d="m213.156 65.149h21.316l8.166 36.048h.182l7.787-36.048h21.413l3.738 58.254h-14.6l-1.905-42.6365h-.181l-10.168 42.6365h-12.978l-10.253-42.6365h-.272l-1.811 42.6365h-14.155z"/><path d="m278.272 100.863c0-14.1855 9.98-23.1967 24.769-23.1967 15.333 0 25.041 9.6796 21.686 27.2007h-31.767c1.726 5.174 6.716 7.427 13.247 7.427 4.99 0 10.435-1.253 14.698-4.004v12.764c-4.718 2.003-10.434 2.838-15.515 2.838-17.147 0-27.118-9.178-27.118-23.029zm33.571-5.592c-.649-4.4221-4.445-6.7584-9.166-6.7584-4.899 0-8.254 2.587-9.707 6.7584z"/><path d="m328.845 78.1676h12.329v3.5806h.181c2.177-2.6855 5.445-4.0044 9.526-4.0044 1.222-.0033 2.441.1107 3.637.3402v13.0931c-1.72-.6852-3.57-1.0532-5.444-1.0831-3.54 0-6.262 1.7515-6.262 6.0065v27.3025h-13.967z"/><path d="m358.512 78.1675h12.329v3.6702h.181c2.995-2.9212 6.626-4.1774 11.071-4.1774 5.262 0 9.434 1.7515 12.066 5.0904h.181c3.086-3.4224 7.258-5.0904 12.329-5.0904 9.435 0 15.425 5.5887 15.425 14.77v30.9727h-13.883v-27.7978c0-3.6702-1.996-5.8394-5.441-5.8394-3.359 0-5.445 2.1692-5.445 5.8394v27.7978h-13.974v-27.7978c0-3.6702-1.995-5.8394-5.444-5.8394s-5.441 2.1692-5.441 5.8394v27.7978h-13.954z"/><path d="m425.306 108.955c0-9.1784 6.352-14.7672 15.424-14.7672 3.54 0 6.625.8325 9.165 2.3364h.182v-1.3368c0-4.5056-3.267-7.0926-9.084-7.0926-4.173 0-8.167 1.3368-11.158 2.8376v-11.0134c4.456-1.5876 9.192-2.4079 13.971-2.4199 12.883 0 20.232 6.1736 20.232 17.6048v28.2991h-12.978v-2.686h-.181c-2.541 2.002-6.165 3.089-10.253 3.089-9.059.002-15.32-5.673-15.32-14.851zm19.599 5.496c3.355 0 5.714-2.253 5.714-5.759 0-3.419-2.359-5.669-5.714-5.669-3.354 0-5.898 2.253-5.898 5.669 0 3.417 2.54 5.759 5.898 5.759z"/><path d="m474.937 61.3953c4.899 0 8.072 2.587 8.072 6.7584s-3.173 6.7584-8.072 6.7584c-4.808 0-8.076-2.587-8.076-6.7584s3.177-6.7584 8.076-6.7584zm-6.989 16.7722h13.974v45.2355h-13.974z"/><path d="m485.053 100.779c0-14.024 9.253-23.1128 21.683-23.1128 4.542 0 8.711 1.1667 11.975 3.336h.182v-17.6047h13.973v60.0055h-12.88v-4.017h-.182c-3.358 3.005-8.257 4.339-13.065 4.339-12.709 0-21.686-9.095-21.686-22.946zm24.495 10.679c5.626 0 9.98-3.92 9.98-10.762 0-6.9259-4.354-10.8467-9.98-10.8467-5.807 0-9.98 4.0879-9.98 10.8467 0 6.758 4.173 10.771 9.98 10.771z"/><path d="m162.426 50.0448c-11.394-.4489-22.647 2.4562-32.122 8.2931-9.476 5.8369-16.68 14.3012-20.565 24.1623-2.672-6.7965-6.943-12.9667-12.5074-18.0702-5.244-4.8331-11.5254-8.6083-18.4438-11.0851-6.9184-2.4767-14.322-3.6006-21.7389-3.3001-.3268 6.8211.8952 13.6301 3.5883 19.9927 2.6931 6.3627 6.7981 12.1395 12.0533 16.9623 2.375 2.1853 4.9655 4.1631 7.738 5.9081 3.865 2.4414 7.0236 5.7135 9.2016 9.5321 2.1779 3.819 3.3094 8.069 3.2961 12.381v15.179h33.6228v-15.179c-.013-4.312 1.119-8.562 3.297-12.38 2.178-3.8189 5.336-7.0912 9.2-9.5331 2.774-1.7434 5.365-3.7214 7.738-5.9081 5.256-4.8223 9.362-10.5991 12.055-16.9619 2.693-6.3627 3.915-13.1719 3.587-19.9931z"/></g></svg>