<svg fill="none" height="180" viewBox="0 0 520 180" width="520" xmlns="http://www.w3.org/2000/svg" xmlns:xlink="http://www.w3.org/1999/xlink"><linearGradient id="a" gradientUnits="userSpaceOnUse" x1="97.0658" x2="175.178" y1="98.9424" y2="102.906"><stop offset="0" stop-color="#0064e1"/><stop offset=".4" stop-color="#0064e1"/><stop offset=".83" stop-color="#0073ee"/><stop offset="1" stop-color="#0082fb"/></linearGradient><linearGradient id="b" gradientUnits="userSpaceOnUse" x1="90.7532" x2="90.7532" y1="107.581" y2="78.9162"><stop offset="0" stop-color="#0082fb"/><stop offset="1" stop-color="#0064e0"/></linearGradient><clipPath id="c"><path d="m73 53h374v75h-374z"/></clipPath><g clip-path="url(#c)"><path d="m85.2536 102.461c0 4.311.9508 7.621 2.1935 9.624 1.6294 2.623 4.0596 3.734 6.5371 3.734 3.1956 0 6.1188-.789 11.7528-8.544 4.513-6.216 9.831-14.9412 13.409-20.4111l6.06-9.267c4.21-6.4359 9.082-13.5904 14.668-18.4398 4.561-3.9581 9.48-6.1571 14.432-6.1571 8.312 0 16.23 4.7945 22.29 13.7866 6.631 9.8482 9.851 22.2527 9.851 35.0534 0 7.61-1.507 13.202-4.072 17.619-2.477 4.273-7.306 8.541-15.429 8.541v-12.181c6.955 0 8.691-6.361 8.691-13.641 0-10.3743-2.43-21.8874-7.784-30.1139-3.799-5.835-8.723-9.4005-14.139-9.4005-5.859 0-10.573 4.3979-15.872 12.2395-2.816 4.1663-5.708 9.2435-8.955 14.9726l-3.574 6.3023c-7.181 12.671-8.999 15.558-12.589 20.321-6.293 8.34-11.666 11.501-18.7398 11.501-8.3913 0-13.6975-3.616-16.9838-9.067-2.6827-4.441-4.0004-10.268-4.0004-16.908z" fill="#0081fb"/><path d="m82.6621 67.6466c5.6179-8.6191 13.7252-14.6466 23.0239-14.6466 5.385 0 10.739 1.5864 16.329 6.1296 6.115 4.9673 12.632 13.1466 20.763 26.6269l2.916 4.8377c7.038 11.6698 11.042 17.6738 13.386 20.5048 3.014 3.637 5.124 4.72 7.866 4.72 6.956 0 8.691-6.361 8.691-13.641l10.81-.338c0 7.61-1.507 13.202-4.071 17.619-2.478 4.273-7.307 8.541-15.43 8.541-5.05 0-9.523-1.092-14.471-5.737-3.803-3.565-8.249-9.899-11.669-15.593l-10.175-16.9161c-5.105-8.4895-9.788-14.8193-12.498-17.6858-2.916-3.0825-6.663-6.805-12.644-6.805-4.841 0-8.9518 3.3809-12.392 8.5523z" fill="url(#a)"/><path d="m105.488 65.2631c-4.84 0-8.9512 3.3809-12.3914 8.5523-4.8644 7.3076-7.843 18.1925-7.843 28.6456 0 4.311.9508 7.621 2.1935 9.624l-10.4467 6.848c-2.6827-4.441-4.0004-10.268-4.0004-16.908 0-12.0747 3.3297-24.6598 9.6617-34.3784 5.6179-8.6191 13.7251-14.6466 23.0243-14.6466z" fill="url(#b)"/><path d="m210.268 55.3717h14.174l24.101 43.3979 24.105-43.3979h13.867v71.3093h-11.563v-54.6522l-21.138 37.8452h-10.849l-21.134-37.8452v54.6522h-11.563zm112.48 26.5877c-8.293 0-13.288 6.212-14.483 13.9045h28.145c-.58-7.9241-5.172-13.9045-13.662-13.9045zm-25.948 18.2866c0-16.1858 10.51-27.9659 26.149-27.9659 15.382 0 24.566 11.6309 24.566 28.8299v3.161h-39.25c1.393 8.368 6.971 14.006 15.966 14.006 7.176 0 11.662-2.179 15.915-6.164l6.142 7.488c-5.787 5.297-13.149 8.352-22.467 8.352-16.929 0-27.021-12.287-27.021-27.707zm64.736-17.2657h-10.644v-9.424h10.644v-15.5851h11.157v15.5851h16.171v9.424h-16.171v23.8857c0 8.156 2.62 11.054 9.058 11.054 2.939 0 4.624-.251 7.113-.663v9.322c-3.1.871-6.059 1.272-9.263 1.272-12.044 0-18.065-6.55-18.065-19.661zm74.307 9.165c-2.241-5.6309-7.239-9.7775-14.585-9.7775-9.547 0-15.658 6.7421-15.658 17.7252 0 10.708 5.626 17.776 15.2 17.776 7.528 0 12.901-4.359 15.043-9.781zm11.157 34.5357h-10.952v-7.438c-3.061 4.379-8.632 8.71-17.654 8.71-14.51 0-24.208-12.09-24.208-27.86 0-15.9189 9.93-27.8129 24.823-27.8129 7.362 0 13.138 2.9293 17.039 8.1008v-6.8246h10.952z" fill="#192830"/></g></svg>