<svg fill="none" height="180" viewBox="0 0 520 180" width="520" xmlns="http://www.w3.org/2000/svg" xmlns:xlink="http://www.w3.org/1999/xlink"><clipPath id="a"><path d="m97 52h325v100h-325z"/></clipPath><g clip-path="url(#a)"><path d="m129.194 81.8055-30.1108-17.5c-.2125-.1227-.4538-.1869-.6993-.1861s-.4863.0667-.6981.1909c-.2117.1242-.3867.3023-.5072.5162-.1205.2138-.1822.4558-.1787.7013v48.6942c0 .5.2778.945.6944 1.195l11.2497 6.611c.211.121.45.185.693.186.243 0 .482-.063.693-.184s.386-.295.508-.505c.123-.21.188-.449.19-.692v-31.7775c.001-.0967.028-.1914.077-.2746.05-.0833.12-.1521.204-.1998.084-.0478.18-.0726.276-.0722.097.0003.192.026.276.0744l17.361 9.9445c.847.4833 1.806.7353 2.782.7304.975-.0049 1.932-.2664 2.774-.7582l16.944-9.9167c.084-.0484.179-.0741.276-.0744.096-.0004.192.0244.276.0722.084.0477.154.1165.204.1998.049.0832.076.1779.077.2746v15.5555c-.002.475-.125.941-.359 1.354-.233.414-.568.76-.974 1.007l-17.444 10.722c-.205.125-.374.301-.491.51s-.177.445-.176.685v15.667c0 .5.25.944.639 1.194l22.861 14.444c.872.55 1.879.846 2.909.855 1.03.01 2.042-.267 2.924-.799l29.056-17.222c.833-.494 1.523-1.198 2-2.041.478-.843.727-1.796.722-2.765v-30.0276c.002-.2472-.063-.4903-.187-.7043-.124-.2139-.303-.3909-.518-.5126s-.459-.1839-.706-.1799-.489.0738-.7.2024l-9.194 5.556c-.817.49-1.493 1.182-1.965 2.009-.472.826-.723 1.761-.73 2.713v15.083c-.001.242-.066.48-.188.69-.122.209-.296.383-.506.505l-17.195 10.138c-.86.505-1.84.768-2.837.763s-1.974-.278-2.829-.79l-9.25-5.556c-.198-.121-.363-.29-.479-.491s-.179-.428-.185-.66c-.005-.233.047-.462.154-.669.106-.206.262-.383.454-.513l16.722-11.028c.768-.506 1.399-1.195 1.835-2.004.437-.81.665-1.715.665-2.635v-44.5832c-.001-.2431-.066-.4816-.189-.6916-.122-.2099-.298-.3841-.509-.505s-.45-.1843-.693-.184c-.243.0004-.482.0646-.692.1861l-29.722 17.4722c-.848.4928-1.811.7524-2.792.7524s-1.944-.2596-2.792-.7524z" fill="#007fff"/><path d="m194.222 66.8888v9.5c.002.9442-.237 1.8732-.694 2.6994-.456.8263-1.116 1.5225-1.917 2.0229l-9.167 5.6944c-.211.1286-.452.1984-.7.2024-.247.0039-.491-.0582-.706-.1799-.215-.1218-.394-.2987-.518-.5127-.124-.2139-.188-.457-.187-.7042v-9.9445c.001-.9742.258-1.9311.746-2.7745.488-.8435 1.188-1.5439 2.032-2.031l9.028-5.1667c.21-.1216.449-.1857.692-.1861s.482.0631.693.184.386.295.509.505c.122.21.188.4484.189.6915z" fill="#007fff"/><path d="m236.944 125.611v-50.5555h12.5l21 29.1665-9.222-.055 21.056-29.1115h12.333v50.5555h-13.722v-13.944c0-4.139.083-7.945.278-11.389.194-3.528.583-7.0836 1.166-10.6391l1.445 4.4722-15.667 20.2219h-4.778l-15.611-20.4163 1.611-4.2778c.556 3.4722.945 6.9444 1.139 10.4171.195 3.444.278 7.333.278 11.611v13.944h-13.778zm96.889.445c-4.916 0-9.278-.973-13.055-2.889-3.632-1.805-6.691-4.585-8.834-8.028-2.09-3.518-3.158-7.548-3.083-11.639v-28.4445h14.444v28.0275c0 2.111.445 3.973 1.362 5.556.916 1.583 2.166 2.805 3.75 3.694 1.667.879 3.532 1.319 5.416 1.278 2.111 0 4-.417 5.639-1.278 1.667-.889 2.972-2.111 3.889-3.694.972-1.583 1.444-3.445 1.444-5.556v-28.0275h14.028v28.4445c.064 4.07-1.024 8.076-3.137 11.555-2.113 3.48-5.166 6.291-8.807 8.112-3.695 1.916-8.056 2.889-13.056 2.889zm40.028-.445v-12h11.639v-26.5555h-11.639v-12h37.5v12h-11.583v26.5555h11.555v12h-37.5z" fill="#000"/></g></svg>