<svg fill="none" height="180" viewBox="0 0 520 180" width="520" xmlns="http://www.w3.org/2000/svg" xmlns:xlink="http://www.w3.org/1999/xlink"><clipPath id="a"><path d="m164 33h191v95h-191z"/></clipPath><g clip-path="url(#a)"><path d="m221.434 88.2188c.148.2968.593.2968.593 0l10.389-27.0157c.445-1.3359 1.781-2.0781 3.116-2.0781h9.647c1.781 0 3.413 1.4844 3.413 3.2656 0 .4453 0 .7422-.148 1.1875l-23.449 63.0859c0 .149-.742.742-1.335 1.188-.149.148-.446.148-.742.148-.891-.297-1.781-1.039-2.078-1.93l-12.466-30.1325c-.445-.8906-1.484-1.3359-2.375-.8906-.297.1484-.742.4453-.89.8906l-15.731 31.3205c-.149.148-.297.297-.446.148-.148 0-.148-.148-.148-.148l-24.487-63.8283c-.594-1.7813.148-3.7109 1.929-4.3047.445-.1484.742-.2969 1.187-.2969h10.537c1.336 0 2.672.8907 3.117 2.0782l10.388 27.164c.149.2969.594.2969.594 0l13.06-28.3515c.445-.8907 1.484-1.336 2.374-.8907.446.1485.742.4453.891.8907zm119.171-54.9219c-.149-.4453-.891-.4453-1.039 0-.594 2.9687-1.93 7.4219-4.304 9.7969-2.375 2.375-6.827 3.7109-9.795 4.3046-.445.1485-.445.8907 0 1.0391 2.968.5938 7.42 1.9297 9.795 4.3047 3.116 3.1172 4.155 7.4219 4.6 9.9453 0 .1484.594.1484.594 0 .594-2.6719 1.781-7.4219 4.304-9.9453 2.374-2.375 6.827-3.7109 9.795-4.3047.445-.1484.445-.8906 0-1.0391-2.968-.5937-7.421-1.9296-9.795-4.3046-2.226-2.375-3.562-6.8282-4.155-9.7969zm-88.303 29.3906c0-1.7812 1.484-3.4141 3.414-3.4141h10.091c1.781 0 3.414 1.4844 3.414 3.4141v61.8985c0 1.781-1.484 3.414-3.414 3.414h-10.091c-1.781 0-3.414-1.484-3.414-3.414zm46.006 14.25c.149-.4453 0-1.0391-.445-1.1875-.148 0-.297-.1484-.445-.1484h-19.887c-1.78 0-3.413-1.4844-3.413-3.4141v-9.5c0-1.7812 1.484-3.4141 3.413-3.4141h46.155c1.484 0 3.413 1.1875 2.671 2.375l-26.713 49.8746c-.297.446 0 1.04.445 1.188.149 0 .297.148.446.148h24.338c1.781 0 3.414 1.485 3.414 3.414v8.313c0 1.781-1.484 3.414-3.414 3.414h-48.974c-1.632 0-1.929-2.375-1.187-3.859z" fill="#325fe8"/></g></svg>