<svg version="1.2" xmlns="http://www.w3.org/2000/svg" viewBox="0 0 1504 1510" width="1504" height="1510">
	<title>stripe_BIG-svg</title>
	<style>
		.s0 { fill: #635bff } 
		.s1 { fill: #ffffff } 
	</style>
	<g id="Layer">
		<path id="Shape 1" class="s0" d="m0 0h1504v1510h-1504z"/>
		<path id="Layer" fill-rule="evenodd" class="s1" d="m682.9 564.2c0-40.3 33-56 88.1-56 78.7 0 178.1 23.9 256.8 66.4v-243.6c-85.9-34-170.9-47.5-256.8-47.5-210.5 0-350.2 109.8-350.2 293.3 0 286 393.6 240.4 393.6 363.7 0 47.5-41.5 63.2-99.4 63.2-85.9 0-195.8-35.2-282.9-83v246.7c96.3 41.5 193.8 59.1 282.9 59.1 215.5 0 363.5-106.9 363.5-292.3-1-308.9-395.6-253.9-395.6-370z"/>
	</g>
</svg>