<svg xmlns="http://www.w3.org/2000/svg" width="850" height="425" viewBox="0 0 850 425">
  <g fill="#0596DE">
    <path d="M434.1 255.3c-5.4 8.4-21-25.5-33.6-7.1-2.3 3.3-11.6 32.4 8.2 40.8 22.8 9.8 37.9-14.3 46.9-64.7.5-2.5.2 27.4 1.5 26.5 1.3-.9 2.6-1 4-.4s2.5 1.8 3.2 3.5c.8 1.7 1 4.1.8 7-.6 3.2-1.6 7.1-3 11.6-1.4 4.6-17.4 33.3-47.8 33-31-.2-46.8-33.6-48.3-38.8-1.5-5.2-2.3-10.2-2.2-15.1.1-4.9.8-9.4 2.2-13.5 1.4-4.1 3-6.9 4.8-8.7 1.8-1.7 10.5-17.2 42.5-8.9 30.8 8.2 23 31.5 20.8 34.8z"/>
    <path d="M510.1 164S484.6 270.5 484 274.8c-1.3 10.3-1.3 15.7 7 18.5 11.9 4 22.5-15.3 22.5-15.3 14.3-29.8 7.7-32.2 31.4-31.3 3.3.1-7 12.6-7.3 15.5-.3 1.5-1.1 4.6-2.6 9.4-1.66 5.15-3.88 10.12-6.6 14.8-2.9 5-6.5 9.5-10.6 13.5-4.2 3.9-8.7 5.9-13.6 5.9-10.1 0-18.5-2.8-25.2-8.3-6.86-5.68-12.44-12.73-16.4-20.7-4.2-8.3-8.3-17.6-8.7-26.6-1.3-32.5 17.9-102.5 19.9-104.7 2-2.2 4.5-3.3 7.7-3.3 2.9 0 6.7 1.9 11.8 3.5 21.7 6.8 16.8 18.3 16.8 18.3zm232.8 94.2c1.9-4.4 4.7-5.8 8.3-4.1 3.6 1.7 5 5.3 4.2 10.7-.5 3.7-1.4 7.6-2.9 11.6-1.5 4.1-8.8 27.5-30.6 27.5-19.8 0-32.2-25.8-34.6-30.3-2.4-4.43-4.33-9.1-5.8-13.9-1.5-5-2.5-9.6-2.8-13.8-.4-4.2-.2-7.6.5-10.3.6-2.7 2-3.9 4.2-3.7 2 .5 4.3 1.2 6.9 2 2.6.9 5 1.8 7.3 2.9 2.4 1.1 4.5 2.4 6.5 3.9s3.5 3.2 4.6 5.2c1.1 2 1.9 4.9 2.5 8.7.6 3.8 1.2 7.7 1.9 11.6.7 3.9 1.3 7.5 2 10.7.7 3.2 1.7 5.2 3.2 5.9 1.1.5 2.6.2 4.7-.9s4.3-2.8 6.6-5 4.7-4.9 7.1-8.1c2.3-3.1 4.4-6.6 6.2-10.6z"/>
    <path d="M436.9 190c14.4-1.1 28.4-2.3 42.1-3.9 13.7-1.5 3.5-.8 14.5-2.2 11-1.4 20.2-2.6 27.4-3.7 7.3-1 11.8-1.6 13.5-1.6 3.2-.1 7 .4 11.1 1.6 4.2 1.2 8.1 2.6 11.7 4.4 3.6 1.7 6.6 3.6 8.9 5.6 2.3 2 3 3.9 2.2 5.7-.6 1-4.1 1.7-10.8 2.1-6.6.4-15.4.7-26.4 1-11 .3-23.7.6-38.1.9-14.4.3 24.2-3.4-23.2-1-47.5 2.5-32.9-8.9-32.9-8.9zM308 222.9c3.8 0 7.4.9 10.8 2.8 3.4 1.9 5.7 4.5 6.7 7.7 7.3 1.6 12.9 5 16.7 10.1 3.8 5.1 6 11 6.6 17.5 6.9.8 20.1-6.8 20.1-21.8 0-3.2 3.7 9.7 2.4 18.9-.3 2.4-6.9 20.6-26.1 22.7-3.4.4-5 3.7-6.5 7.4-1.1 2.6-10.4 17-33.4 17-14.1 0-24.1-12.8-27.8-17.4-3.7-4.6-5.7-9.7-5.8-15.4-.4-5.4.3-11 1.9-16.9 1.6-5.8 4-11.2 7.1-16 3.1-4.9 7-8.8 11.6-12 4.4-3 9.7-4.6 15.7-4.6zm-8.9 68.2c2.5 3.2 6.7 3.2 12.5 0s11.1-8.1 15.9-14.9c-4.9-3.2-9.3-7.4-13.4-12.8-4.1-5.3-7.3-11.6-9.6-18.7-5.2 9.1-8.5 18.1-9.8 27.1-1.2 8.9.2 15.4 4.4 19.3zm260.1-68.2c3.8 0 7.4.9 10.8 2.8 3.4 1.9 5.7 4.5 6.7 7.7 7.3 1.6 12.8 5 16.7 10.1 3.8 5.1 6 11 6.6 17.5 6.9.8 20.1-6.8 20.1-21.8 0-3.2 3.7 9.7 2.4 18.9-.3 2.4-6.9 20.6-26.1 22.7-3.4.4-5 3.7-6.5 7.4-1.1 2.6-10.4 17-33.4 17-14.1 0-24.1-12.8-27.8-17.4-3.7-4.6-5.7-9.7-5.8-15.4-.3-5.4.3-11 1.9-16.9 1.6-5.8 4-11.2 7.1-16 3.1-4.9 7-8.8 11.6-12 4.5-3 9.7-4.6 15.7-4.6zm-8.9 68.2c2.5 3.2 6.7 3.2 12.5 0s11.1-8.1 15.9-14.9c-4.9-3.2-9.4-7.4-13.4-12.8-4.1-5.3-7.3-11.6-9.6-18.7-5.2 9.1-8.5 18.1-9.8 27.1-1.2 8.9.2 15.4 4.4 19.3z"/>
    <path d="M690.7 254.5c-2.2-1.5-12.2-24.1-11.5-18.8 1.2 8.7-20.2 57.1-36.4 48.8-16.8-8.6-10.4-35.6-9.5-37 4.3-6.9 32.9-41.4 44.7-110.1 1.2-6.8 3.9-33.2-23.5-37.7-29.3-4.8-36 10-38.9 16.4-11.5 26-7.6 118.4 2.3 157.1 2.2 8.7 13.8 30.8 29.3 30.8 24.9 0 37.6-25.3 39.5-29.4 1.9-4.1 3.7-8.1 5.2-12 1.5-3.9 1-6.6-1.2-8.1zm-53.6-84.4l1.2-21.3c.4-6.9 1.2-13.1 2.3-18.6 1.1-5.5 2.5-9.8 4.4-13 1.8-3.2 4.1-4.7 6.6-4.6 4 .3 6.7 3.1 8.1 8.2 1.4 5.1 1.8 11.5 1.4 19.1-.4 7.6-1.7 16-3.7 25.2s-4.1 18-6.3 26.5c-3.3 12.6-10.8 28.1-12.4 31-1.1-25.8-2-38.8-1.6-52.5zm212.1 84.8c-1-.3-2.1-.1-3.1.6-1 .6-2 1.4-2.8 2.4-1.9 3.5-4.3 5.6-7.4 6.5-3.1.9-7 .7-11.8-.6 0-2.9-.6-5.9-1.6-8.9s-2.6-5.5-4.9-7.8c-2.3-2.7-5.5-4.7-9.7-5.9-4.1-1.2-7.6-1.8-10.3-1.8-2.8.3-5.1 1.1-6.9 2.6-1.8 1.5-3 3.3-3.5 5.5s-.3 4.7.5 7.4 2.4 5.4 4.7 8.1c-.2 2.2-.6 4.9-1.2 8.1-.6 3.2-1.4 6.2-2.5 8.9s-2.4 4.9-3.8 6.6c-1.4 1.7-3.2 2-5.2.7-2.1-1.2-3.6-3.4-4.7-6.5s-1.9-6.3-2.5-9.8c-.7-3.9-1-8.1-1.1-12.6 4.6-6.6 9.2-14.3 13.7-22.9 4.5-8.6 8.6-17.7 12.3-27.1 3.7-9.5 6.9-19 9.7-28.4 2.8-9.5 4.9-18.4 6.4-26.8 1.5-8.4 2-15.9 1.6-22.7-.4-6.8-1.9-12.1-4.6-16.1-2.3-3.4-5.9-6.5-10.6-9-4.67-2.57-9.64-4.55-14.8-5.9-5.1-1.3-9.8-2.2-14.2-2.4-4.4-.2-7.7.1-9.7 1.1-6.2 2.7-11.3 8.4-15.1 17.2-3.8 8.7-6.5 19-8.3 30.7-1.7 11.7-2.7 24.2-2.8 37.5-.2 13.3.3 25.9 1.3 37.7 1 11.8 2.5 22.2 4.2 31 1.8 8.9 3.7 14.9 5.9 18.1 2.8 4.2 21.2 33.6 46.8 33.6 23.9 0 31.3-28.8 25.6-29.7 21.2 3.1 31.4-19.1 30.4-19.4zm-81-83.5c.4-7.2.8-14.3 1.3-21.3.5-6.9 1.3-13.1 2.5-18.6 1.2-5.5 2.8-9.8 4.9-13 2.1-3.2 4.5-4.7 7.4-4.6 4.5.3 7.5 3.1 9.1 8.2 1.5 5.1 2 11.5 1.5 19.1-.5 7.6-1.9 16-4.1 25.2-2.3 9.1-4.6 18-7 26.5-2.4 8.5-5.1 16.1-8 22.8-2.9 6.7-5.3 11.6-7.1 14.4-.9-21.9-1.1-41.5-.5-58.7zm38.3 85.4c-.8-.7-1.6-1.4-2.3-2.1-.7-.6-1.32-1.28-1.9-2-.5-.6-.9-1.2-1-1.7-.2-.5-.1-.9.2-1.2.5-.5 1.1-.5 1.8-.2s1.5.8 2.4 1.6c.8.7 1.7 1.7 2.5 2.8.8 1.1 1.6 2.2 2.4 3.2.8 1 1.4 2 1.9 3 .5.9.8 1.6 1 2.1-2.8-2-5.1-3.8-7-5.5z"/>
    <path d="M709.5 192.9c0 8.2-6.4 14.8-14.3 14.8s-14.3-6.6-14.3-14.8c0-8.2 6.4-14.8 14.3-14.8s14.3 6.6 14.3 14.8zM34.1 213.5s-.3.6-.8 1.8c-.6 1.2-1.2 2.8-2 5-1.7 4.3-3.8 10.6-4.8 18.1-.5 3.8-.7 7.9-.5 12.3.1 2.2.3 4.5.6 6.8.2 1.2.3 2.2.5 2.7.2.8.5 1.7.8 2.6 2.5 7.1 10 15.7 20.4 23.4 10.5 7.6 23.4 14.7 37.7 21.6 14.4 6.7 30.6 13.3 48.5 15.9 8.9 1.2 18.1 1.5 27.3.2 4.6-.6 9.1-1.6 13.6-3 4.5-1.3 8.8-3 13-5.1 8.4-4.1 16-9.8 22.2-16.6 6.2-6.8 11.1-14.7 14.7-23 1.8-4.2 3.3-8.4 4.6-12.8 1.3-4.4 2.2-8.6 3.4-13.6l.9-3.6.7-3.4c.5-2.3 1.1-4.5 1.5-6.8.4-2.3 1-4.6 1.4-6.9.4-2.3.8-4.6 1.2-6.8 3.2-18.1 3.8-36 .8-51-1.5-7.5-3.8-14.2-6.9-20.1-1.6-2.9-3.4-5.6-5.3-8.2-2-2.5-4.2-4.9-6.6-7-9.6-8.7-22.5-14.5-35.4-18.2-13-3.7-25.9-5.7-37.6-6.8-11.7-1.2-22.1-1.6-30.8-1.9-8.7-.2-15.6-.3-20.3-.2-4.7 0-7.2.1-7.2.1h-1.8l-.7-2.6 1.6-.8s2.3-1.2 6.8-3.1c4.5-1.8 11.1-4.4 19.8-7 8.7-2.6 19.4-5.2 32.1-6.9 12.7-1.7 27.4-2.6 43.9-.6 8.2 1 16.9 2.8 25.8 5.9 2.2.7 4.5 1.7 6.7 2.6 2.2 1 4.5 2 6.7 3.2 4.5 2.3 8.9 5.2 13.2 8.4 4.3 3.3 8.3 7.1 12 11.3 3.6 4.3 6.9 9 9.7 14 2.7 5 5 10.3 6.6 15.7.9 2.7 1.5 5.4 2.2 8.2.6 2.7 1 5.5 1.4 8.2 1.5 11 1.2 22 0 32.6-1.2 10.6-3.4 21-6.2 31.1-.7 2.5-1.5 5-2.2 7.5-.8 2.5-1.6 5-2.5 7.4-.8 2.5-1.8 5-2.8 7.4l-1.5 3.7c-.5 1.2-1 2.3-1.5 3.5l-3.2 7.1c-1.2 2.5-2.4 5-3.7 7.4-2.6 4.8-5.6 9.5-8.9 14-6.6 8.9-14.5 16.7-23.1 23.2-10.53 7.88-22.24 14.06-34.7 18.3-2.4.9-4.9 1.7-7.3 2.3-4.9 1.4-9.8 2.6-14.8 3.6-9.9 1.9-19.7 3.2-29.6 3.9-19.6 1.3-39.3.3-57.3-4.4-18-4.6-34.3-12.8-47.4-23.6-6.6-5.26-12.45-11.38-17.4-18.2-4.8-6.8-8.7-14.5-10.2-22.9-.4-2.1-.7-4.2-.8-6.3-.1-2.4-.1-4.3.2-5.9.2-1.7.4-3.3.8-4.9.3-1.6.6-3.2 1.1-4.7 1.6-6 3.9-11.3 6.6-15.7 5.3-8.8 11.3-13.9 15.5-16.8 1-.8 2-1.4 2.9-1.9.8-.5 1.5-.9 2.1-1.2 1.2-.6 1.7-.9 1.7-.9l1.6-.8 1.6 1.5-.6 1.7z"/>
    <path d="M151.1 169.4c-7.5 38.1-14.9 76.2-22.4 114.3-2.4 12.5 23.6-1.9 25.2-10.5 7.5-38.1 14.9-76.2 22.4-114.3 2.4-12.4-23.6 2-25.2 10.5z"/>
  </g>
</svg>
