<svg height="1em" viewBox="0 0 256 256" width="1em" xmlns="http://www.w3.org/2000/svg"><path d="m128.003 199.216c39.335 0 71.221-31.888 71.221-71.223s-31.886-71.223-71.221-71.223-71.222 31.888-71.222 71.223 31.887 71.223 71.222 71.223z" fill="#fff"/><path d="m35.89 92.997c-5.313-9.203-11.558-18.862-18.736-28.977a127.98 127.98 0 0 0 110.857 191.981c11.78-16.523 19.78-28.437 23.996-35.74 8.099-14.028 18.573-34.112 31.423-60.251v-.015a63.993 63.993 0 0 1 -110.857.017c-17.453-32.548-29.68-54.887-36.683-67.015z" fill="#229342"/><path d="m128.008 255.996a127.972 127.972 0 0 0 127.992-127.999 127.983 127.983 0 0 0 -17.163-63.997c-24.248-2.39-42.143-3.585-53.686-3.585-13.088 0-32.139 1.195-57.152 3.585l-.014.01a63.993 63.993 0 0 1 55.444 31.987 63.993 63.993 0 0 1 -.001 64.01z" fill="#fbc116"/><path d="m128.003 178.677c27.984 0 50.669-22.685 50.669-50.67 0-27.986-22.685-50.67-50.67-50.67-27.983 0-50.669 22.686-50.669 50.67s22.686 50.67 50.67 50.67z" fill="#1a73e8"/><path d="m128.003 64.004h110.837a127.973 127.973 0 0 0 -221.685.015l55.419 95.99.015.008a63.993 63.993 0 0 1 55.415-96.014l-.002.001z" fill="#e33b2e"/></svg>