<svg height="1em" viewBox="0 0 256 256" width="1em" xmlns="http://www.w3.org/2000/svg" xmlns:xlink="http://www.w3.org/1999/xlink"><radialGradient id="a" cx="161.83" cy="788.401" gradientTransform="matrix(.9999 0 0 .9498 -4.622 -570.387)" gradientUnits="userSpaceOnUse" r="95.38"><stop offset=".72" stop-opacity="0"/><stop offset=".95" stop-opacity=".53"/><stop offset="1"/></radialGradient><radialGradient id="b" cx="-773.636" cy="746.715" gradientTransform="matrix(.15 -.9898 .8 .12 -410.718 -656.341)" gradientUnits="userSpaceOnUse" r="143.24"><stop offset=".76" stop-opacity="0"/><stop offset=".95" stop-opacity=".5"/><stop offset="1"/></radialGradient><radialGradient id="c" cx="230.593" cy="-106.038" gradientTransform="matrix(-.04 .9998 -2.1299 -.07998 -190.775 -191.635)" gradientUnits="userSpaceOnUse" r="202.43"><stop offset="0" stop-color="#35c1f1"/><stop offset=".11" stop-color="#34c1ed"/><stop offset=".23" stop-color="#2fc2df"/><stop offset=".31" stop-color="#2bc3d2"/><stop offset=".67" stop-color="#36c752"/></radialGradient><radialGradient id="d" cx="536.357" cy="-117.703" gradientTransform="matrix(.28 .9598 -.78 .23 -1.928 -410.318)" gradientUnits="userSpaceOnUse" r="97.34"><stop offset="0" stop-color="#66eb6e"/><stop offset="1" stop-color="#66eb6e" stop-opacity="0"/></radialGradient><linearGradient id="e" gradientUnits="userSpaceOnUse" x1="58.704" x2="236.987" y1="177.02" y2="177.02"><stop offset="0" stop-color="#0c59a4"/><stop offset="1" stop-color="#114a8b"/></linearGradient><linearGradient id="f" gradientUnits="userSpaceOnUse" x1="152.771" x2="41.398" y1="99.746" y2="221.058"><stop offset="0" stop-color="#1b9de2"/><stop offset=".16" stop-color="#1595df"/><stop offset=".67" stop-color="#0680d7"/><stop offset="1" stop-color="#0078d4"/></linearGradient><path d="m231 190.5c-3.4 1.8-6.9 3.4-10.5 4.7-11.5 4.3-23.6 6.5-35.9 6.5-47.3 0-88.5-32.5-88.5-74.3.1-11.4 6.4-21.9 16.4-27.3-42.8 1.8-53.8 46.4-53.8 72.5 0 73.9 68.1 81.4 82.8 81.4 7.9 0 19.8-2.3 27-4.6l1.3-.4c27.6-9.5 51-28.1 66.6-52.8 1.2-1.9.6-4.3-1.2-5.5-1.3-.8-2.9-.9-4.2-.2z" fill="url(#e)"/><path d="m231 190.5c-3.4 1.8-6.9 3.4-10.5 4.7-11.5 4.3-23.6 6.5-35.9 6.5-47.3 0-88.5-32.5-88.5-74.3.1-11.4 6.4-21.9 16.4-27.3-42.8 1.8-53.8 46.4-53.8 72.5 0 73.9 68.1 81.4 82.8 81.4 7.9 0 19.8-2.3 27-4.6l1.3-.4c27.6-9.5 51-28.1 66.6-52.8 1.2-1.9.6-4.3-1.2-5.5-1.3-.8-2.9-.9-4.2-.2z" fill="url(#a)" opacity=".35"/><path d="m105.7 241.4c-8.9-5.5-16.6-12.8-22.7-21.3-26.3-36-18.4-86.5 17.6-112.8 3.8-2.7 7.7-5.2 11.9-7.2 3.1-1.5 8.4-4.1 15.5-4 10.1.1 19.6 4.9 25.7 13 4 5.4 6.3 11.9 6.4 18.7 0-.2 24.5-79.6-80-79.6-43.9 0-80 41.7-80 78.2-.2 19.3 4 38.5 12.1 56 27.6 58.8 94.8 87.6 156.4 67.1-21.1 6.6-44.1 3.7-62.9-8.1z" fill="url(#f)"/><path d="m105.7 241.4c-8.9-5.5-16.6-12.8-22.7-21.3-26.3-36-18.4-86.5 17.6-112.8 3.8-2.7 7.7-5.2 11.9-7.2 3.1-1.5 8.4-4.1 15.5-4 10.1.1 19.6 4.9 25.7 13 4 5.4 6.3 11.9 6.4 18.7 0-.2 24.5-79.6-80-79.6-43.9 0-80 41.7-80 78.2-.2 19.3 4 38.5 12.1 56 27.6 58.8 94.8 87.6 156.4 67.1-21.1 6.6-44.1 3.7-62.9-8.1z" fill="url(#b)" opacity=".41"/><path d="m152.3 148.9c-.8 1-3.3 2.5-3.3 5.7 0 2.6 1.7 5.1 4.7 7.2 14.4 10 41.5 8.7 41.6 8.7 10.7 0 21.1-2.9 30.3-8.3 18.8-11 30.4-31.1 30.4-52.9.3-22.4-8-37.3-11.3-43.9-21.2-41.5-67-65.4-116.7-65.4-70 0-127 56.2-128 126.2.5-36.5 36.8-66 80-66 3.5 0 23.5.3 42 10.1 16.3 8.6 24.9 18.9 30.8 29.2 6.2 10.7 7.3 24.1 7.3 29.5 0 5.3-2.7 13.3-7.8 19.9z" fill="url(#c)"/><path d="m152.3 148.9c-.8 1-3.3 2.5-3.3 5.7 0 2.6 1.7 5.1 4.7 7.2 14.4 10 41.5 8.7 41.6 8.7 10.7 0 21.1-2.9 30.3-8.3 18.8-11 30.4-31.1 30.4-52.9.3-22.4-8-37.3-11.3-43.9-21.2-41.5-67-65.4-116.7-65.4-70 0-127 56.2-128 126.2.5-36.5 36.8-66 80-66 3.5 0 23.5.3 42 10.1 16.3 8.6 24.9 18.9 30.8 29.2 6.2 10.7 7.3 24.1 7.3 29.5 0 5.3-2.7 13.3-7.8 19.9z" fill="url(#d)"/></svg>