<svg height="1em" viewBox="0 0 256 256" width="1em" xmlns="http://www.w3.org/2000/svg"><g fill="none"><rect fill="#2b2e3a" height="256" rx="60" width="256"/><g fill="#9feaf9"><path d="m100.768 70.772c-26.005-4.736-46.567.221-54.762 14.415-6.115 10.592-4.367 24.635 4.24 39.646a2.669 2.669 0 0 0 4.462.342 2.674 2.674 0 0 0 .519-2.002 2.668 2.668 0 0 0 -.355-.993c-7.752-13.522-9.261-25.641-4.247-34.326 6.808-11.791 25.148-16.213 49.187-11.835a2.667 2.667 0 0 0 .956-5.247zm-36.999 72.307c10.515 11.555 24.176 22.394 39.756 31.388 37.723 21.78 77.883 27.601 97.675 14.106a2.662 2.662 0 0 0 1.152-1.711 2.661 2.661 0 0 0 -1.165-2.756 2.665 2.665 0 0 0 -2.992.061c-17.714 12.078-55.862 6.548-92.003-14.318-15.114-8.726-28.343-19.222-38.478-30.36a2.672 2.672 0 0 0 -1.849-.876 2.664 2.664 0 0 0 -2.795 2.543 2.666 2.666 0 0 0 .699 1.923z"/><path d="m194.886 139.835c17.028-20.116 22.973-40.348 14.795-54.512-6.017-10.423-18.738-15.926-35.645-16.146a2.666 2.666 0 0 0 -1.92 4.514 2.67 2.67 0 0 0 1.851.819c15.205.198 26.165 4.939 31.096 13.48 6.792 11.765 1.49 29.807-14.248 48.399a2.656 2.656 0 0 0 -.643 1.952c.027.352.124.694.285 1.008a2.654 2.654 0 0 0 1.568 1.328c.337.107.691.146 1.042.114a2.648 2.648 0 0 0 1.005-.296c.313-.164.589-.388.814-.66zm-43.761-68.175c-15.396 3.299-31.784 9.749-47.522 18.835-38.942 22.483-64.345 55.636-60.817 79.675a2.658 2.658 0 0 0 1.038 1.775 2.659 2.659 0 0 0 2.98.155 2.662 2.662 0 0 0 1.217-1.657 2.68 2.68 0 0 0 .042-1.048c-3.133-21.344 20.947-52.769 58.207-74.281 15.267-8.815 31.135-15.06 45.972-18.239a2.669 2.669 0 0 0 1.674-4.14 2.677 2.677 0 0 0 -1.74-1.106 2.669 2.669 0 0 0 -1.051.031z"/><path d="m88.036 186.835c8.904 24.86 23.469 40.167 39.847 40.167 11.945 0 22.996-8.143 31.614-22.478a2.674 2.674 0 0 0 .327-2.033 2.66 2.66 0 0 0 -3.256-1.957 2.677 2.677 0 0 0 -1.642 1.242c-7.745 12.883-17.258 19.892-27.043 19.892-13.605 0-26.596-13.652-34.825-36.63a2.663 2.663 0 0 0 -1.364-1.552 2.663 2.663 0 0 0 -2.966.432 2.678 2.678 0 0 0 -.864 1.877c-.012.355.047.709.173 1.04zm81.322-4.863c4.61-14.728 7.085-31.718 7.085-49.423 0-44.179-15.463-82.263-37.487-92.042a2.667 2.667 0 0 0 -2.164 4.874c19.643 8.723 34.317 44.866 34.317 87.168 0 17.177-2.397 33.63-6.84 47.83a2.671 2.671 0 0 0 .816 2.874 2.675 2.675 0 0 0 2.971.313 2.67 2.67 0 0 0 1.303-1.594zm50.224-2.612c0-7.049-5.714-12.763-12.763-12.763s-12.763 5.714-12.763 12.763 5.714 12.763 12.763 12.763 12.763-5.714 12.763-12.763zm-5.333 0c0 .976-.192 1.942-.566 2.843a7.418 7.418 0 0 1 -4.021 4.022 7.432 7.432 0 0 1 -10.273-6.865 7.432 7.432 0 0 1 12.684-5.254 7.434 7.434 0 0 1 2.176 5.254zm-165.486 12.763c7.05 0 12.764-5.714 12.764-12.763s-5.715-12.763-12.764-12.763c-7.048 0-12.763 5.714-12.763 12.763s5.715 12.763 12.763 12.763zm0-5.333a7.431 7.431 0 0 1 -5.254-12.684 7.431 7.431 0 0 1 12.684 5.254 7.429 7.429 0 0 1 -7.43 7.43z"/><path d="m127.883 53.526c7.049 0 12.763-5.714 12.763-12.763s-5.714-12.763-12.763-12.763-12.763 5.714-12.763 12.763 5.714 12.763 12.763 12.763zm0-5.333a7.43 7.43 0 1 1 0-14.861 7.43 7.43 0 0 1 0 14.861zm1.949 93.382c-4.985 1.077-9.896-2.091-10.975-7.076a9.233 9.233 0 0 1 7.076-10.976c4.985-1.077 9.896 2.091 10.976 7.076 1.077 4.985-2.091 9.897-7.077 10.976z"/></g></g></svg>