<svg xmlns="http://www.w3.org/2000/svg" width="552" height="277" viewBox="0 0 552 277">
  <g fill="none">
    <path fill="#949494" d="M115.8 46.5v116.25l20.07-11.25V57.75"/>
    <path fill="#FFF" d="M95.75 151.5v-140L214.85 79v23.75L115.8 46.5v116.25"/>
    <path fill="#949494" d="M336.46 11.5v140l-80.24 45-20.06-12.5 80.24-45V45.25l-101.55 57.5V79"/>
    <path fill="#D6D6D6" d="M316.4.25L216.1 56.5 115.8.25 95.76 11.5 214.86 79l121.6-67.5"/>
    <path fill="#FFF" d="M296.34 56.5v71.25L316.4 139V45.25"/>
    <path fill="#D6D6D6" d="M196.05 184l100.3-56.25L316.4 139l-80.24 45 79 45 80.22-45 20.06 11.25-100.3 56.25"/>
    <path fill="#FFF" d="M196.05 184v23.75l119.1 67.5V251.5m100.3-56.25v-70L395.37 114v70"/>
    <path fill="#949494" d="M315.15 251.5l100.3-56.25v-70L435.5 114v93.75l-120.35 67.5"/>
    <path fill="#D6D6D6" d="M435.5 114l-20.06 11.25L395.38 114l20.06-11.25"/>
    <path fill="#949494" d="M415.44 102.75V79l20.06-11.25V91.5"/>
    <path fill="#FFF" d="M415.44 79v23.75L395.38 91.5V67.75"/>
    <path fill="#D6D6D6" d="M435.5 67.75L415.44 79l-20.06-11.25 20.06-11.25"/>
    <path fill="#000" d="M316.4 45.25v15l-8.78-10m-11.28 77.5v-65L316.4 74v36.25L305.12 104v28.75L285.06 134m120.35 25v-22.5l-10-12.5v30" opacity=".3"/>
  </g>
</svg>
