<svg xmlns="http://www.w3.org/2000/svg" width="512" height="512" viewBox="0 0 512 512">
  <g fill="none" fill-rule="evenodd">
    <path fill="#1C2541" d="M0 0h512v512H0z"/>
    <path fill="#FFF" fill-rule="nonzero" d="M256 128C120.7 128 51.2 256 51.2 256S103.6 384 256 384c138 0 204.8-127.5 204.8-127.5S393.5 128 256 128zm-12 208.4c-46.5 0-80-35-80-80.2 0-45 33.5-80 80-80s80 35 80 80-33.5 80.2-80 80.2zm0-128.3c-26.6.3-48 22.6-48 48.3 0 25.8 21.4 48 48 48s48-22.3 48-48c0-25.8-21.4-48-48-48z"/>
  </g>
</svg>
