<svg height="1000" viewBox="0 0 1000 1000" width="1000" xmlns="http://www.w3.org/2000/svg" xmlns:xlink="http://www.w3.org/1999/xlink"><linearGradient id="a" x1="80.120249%" x2="35.628671%" y1="36.83168%" y2="66.908509%"><stop offset="0" stop-color="#804fce"/><stop offset="1" stop-color="#2d3383"/></linearGradient><radialGradient id="b" cx="65.287843%" cy="50%" r="69.141026%"><stop offset="0" stop-color="#311476"/><stop offset="1" stop-color="#2b214f"/></radialGradient><radialGradient id="c" cx="27.060335%" cy="33.217922%" gradientTransform="matrix(.65519484 .75534966 -.75520313 .65532197 .344168 -.089905)" r="78.740829%"><stop offset="0" stop-color="#1b357a"/><stop offset="1" stop-color="#512bcd"/></radialGradient><radialGradient id="d" cx="27.334456%" cy="24.818815%" gradientTransform="matrix(.50144076 .8598419 -.8444834 .51056039 .345869 -.11356)" r="87.436056%"><stop offset="0" stop-color="#493ca8"/><stop offset="1" stop-color="#512bcc"/></radialGradient><g fill="none" fill-rule="evenodd"><g transform="translate(199 204.921348)"><path d="m0 188.023979c93.2535669-125.3493194 193.794111-188.023979 301.621631-188.023979s207.910572 62.6746596 300.249156 188.023979c-92.338584 126.088883-192.421636 189.133324-300.249156 189.133324s-208.3680641-63.044441-301.621631-189.133324z" fill="url(#a)"/><path d="m303.094274 345.539326c87.053788 0 157.624827-70.526471 157.624827-157.525281s-70.571039-157.525281-157.624827-157.525281-157.624827 70.526471-157.624827 157.525281c0 24.35457-4.993296 133.196636 8.158929 104.715334s14.91407-35.740159 23.2215-25.778406c28.913811 34.671639 77.55101 78.588353 126.244398 78.588353z" fill="#fff"/><circle cx="303.19382" cy="188.014045" fill="url(#b)" r="107.839888"/><path d="m303.590703 295.827517c59.637876.005491 107.979475-48.326722 107.973984-107.95302-41.975696 103.893135-163.108792 79.691002-186.154047 25.373315-23.045255-54.317688 15.54717-132.801592 78.160178-133.3462197-59.637876-.005491-107.979475 48.3267227-107.973984 107.9530197.005491 59.626298 48.355993 107.967414 107.993869 107.972905z" fill="url(#c)" transform="matrix(.92718385 -.37460659 .37460659 .92718385 -48.26972 127.402927)"/><path d="m306.356698 281.187737c49.495248.509886 103.2115-43.691004 103.206009-103.317045-41.975371 103.892687-131.433518 79.756667-154.478594 25.439213-23.045076-54.317453 21.446217-112.7873401 58.29441-119.8829244-59.637414-.0054911-105.1831 41.3148414-105.177609 100.9408824s48.660536 96.309989 98.155784 96.819874z" fill="url(#d)" transform="matrix(.92718385 -.37460659 .37460659 .92718385 -45.802774 128.984241)"/></g><g fill="#222" fill-rule="nonzero" transform="translate(184 748)"><path d="m82.28 1.42c2.5200126 0 4.5899919.8099919 6.21 2.43s2.43 3.7499868 2.43 6.39v78.12c0 2.400012-.8099919 4.4399916-2.43 6.12s-3.6899874 2.52-6.21 2.52-4.5599922-.8099919-6.12-2.43-2.34-3.6899874-2.34-6.21v-4.68c-3.1200156 4.200021-7.379973 7.7699853-12.78 10.71s-11.2199688 4.41-17.46 4.41c-8.1600408 0-15.5699667-2.099979-22.23-6.3s-11.8799811-10.0499625-15.66-17.55c-3.7800189-7.5000375-5.67-15.9299532-5.67-25.29s1.8899811-17.7899625 5.67-25.29 8.969967-13.349979 15.57-17.55 13.8599604-6.3 21.78-6.3c6.3600318 0 12.2699727 1.3199868 17.73 3.96s9.8099838 5.9999796 13.05 10.08v-4.32c0-2.5200126.7799922-4.6199916 2.34-6.3s3.5999874-2.52 6.12-2.52zm-36.72 81.54c5.6400282 0 10.6499781-1.4399856 15.03-4.32s7.7999877-6.8399748 10.26-11.88 3.69-10.7399682 3.69-17.1c0-6.2400312-1.2299877-11.8799748-3.69-16.92s-5.8799781-9.0299853-10.26-11.97-9.3899718-4.41-15.03-4.41-10.6499781 1.4399856-15.03 4.32-7.7999877 6.8399748-10.26 11.88-3.69 10.7399682-3.69 17.1 1.2299877 12.0599748 3.69 17.1 5.8799781 8.9999856 10.26 11.88 9.3899718 4.32 15.03 4.32zm117.72-82.44c3.120016 0 5.819989.8099919 8.1 2.43s3.42 3.629988 3.42 6.03c0 2.8800144-.749993 5.0699925-2.25 6.57-1.500008 1.5000075-3.329989 2.25-5.49 2.25-1.080005 0-2.699989-.3599964-4.86-1.08-2.520013-.8400042-4.499993-1.26-5.94-1.26-3.720019 0-7.349982 1.2899871-10.89 3.87s-6.419989 6.1199775-8.64 10.62-3.33 9.5099724-3.33 15.03v43.38c0 2.400012-.809992 4.4399916-2.43 6.12s-3.689987 2.52-6.21 2.52-4.559992-.8099919-6.12-2.43-2.34-3.6899874-2.34-6.21v-77.04c0-2.400012.809992-4.4399916 2.43-6.12 1.620008-1.68 3.629988-2.52 6.03-2.52 2.520013 0 4.589992.84 6.21 2.52 1.620008 1.6800084 2.43 3.719988 2.43 6.12v9.18c2.640013-5.8800294 6.599974-10.6499817 11.88-14.31s11.279966-5.5499994 18-5.67zm103.5.9c2.520013 0 4.589992.8099919 6.21 2.43s2.43 3.7499868 2.43 6.39v79.2c0 9.7200486-2.069979 17.849967-6.21 24.39s-9.749965 11.369984-16.83 14.49-15.059956 4.68-23.94 4.68c-4.800024 0-10.409968-.839992-16.83-2.52s-10.529991-3.419991-12.33-5.22c-3.720019-1.92001-5.58-4.319986-5.58-7.2 0-.720004.239998-1.679994.72-2.88 1.320007-3.000015 3.539984-4.5 6.66-4.5 1.560008 0 3.239991.359996 5.04 1.08 9.600048 3.720019 17.099973 5.58 22.5 5.58 9.600048 0 16.949974-2.309977 22.05-6.93 5.100025-4.620023 7.65-10.9499598 7.65-18.99v-9.72c-2.520013 4.6800234-6.74997 8.6999832-12.69 12.06s-12.209967 5.04-18.81 5.04c-8.280041 0-15.839966-2.099979-22.68-6.3s-12.209981-10.0499625-16.11-17.55c-3.90002-7.5000375-5.85-15.9299532-5.85-25.29s1.94998-17.7899625 5.85-25.29c3.900019-7.5000375 9.239966-13.349979 16.02-17.55s14.249959-6.3 22.41-6.3c6.600033 0 12.749971 1.499985 18.45 4.5 5.700028 3.000015 10.169984 6.6599784 13.41 10.98v-5.76c0-2.5200126.779992-4.6199916 2.34-6.3s3.599987-2.52 6.12-2.52zm-37.98 81.54c5.880029 0 11.099977-1.4099859 15.66-4.23s8.129987-6.7799745 10.71-11.88 3.87-10.8299682 3.87-17.19-1.289987-12.0599748-3.87-17.1-6.149977-8.9999856-10.71-11.88-9.779971-4.32-15.66-4.32c-5.760029 0-10.919977 1.4399856-15.48 4.32s-8.129987 6.8699745-10.71 11.97-3.87 10.7699688-3.87 17.01 1.289987 11.9099745 3.87 17.01 6.149977 9.0899856 10.71 11.97 9.719971 4.32 15.48 4.32zm157.68-33.12c0 9.3600468-2.099979 17.7599628-6.3 25.2s-9.929964 13.259979-17.19 17.46-15.269956 6.3-24.03 6.3-16.769964-2.099979-24.03-6.3-12.989979-10.0199628-17.19-17.46-6.3-15.8399532-6.3-25.2 2.099979-17.8199622 6.3-25.38 9.929964-13.439979 17.19-17.64 15.269956-6.3 24.03-6.3 16.769964 2.099979 24.03 6.3 12.989979 10.0799622 17.19 17.64 6.3 16.0199532 6.3 25.38zm-17.1 0c0-6.4800324-1.349986-12.2699745-4.05-17.37-2.700013-5.1000255-6.359977-9.0599859-10.98-11.88s-9.749972-4.23-15.39-4.23-10.769977 1.4099859-15.39 4.23-8.279986 6.7799745-10.98 11.88c-2.700013 5.1000255-4.05 10.8899676-4.05 17.37 0 6.3600318 1.349987 12.0599748 4.05 17.1 2.700014 5.0400252 6.359977 8.9699859 10.98 11.79s9.749972 4.23 15.39 4.23 10.769977-1.4099859 15.39-4.23 8.279987-6.7499748 10.98-11.79c2.700014-5.0400252 4.05-10.7399682 4.05-17.1zm31.5 32.4c-1.080005-1.6800084-1.62-3.2999922-1.62-4.86 0-2.400012 1.259987-4.4399916 3.78-6.12 1.200006-.8400042 2.579992-1.26 4.14-1.26 2.160011 0 4.139991.899991 5.94 2.7 3.600018 4.0800204 7.469979 7.1399898 11.61 9.18s9.089971 3.06 14.85 3.06c4.560023-.1200006 8.579983-1.1699901 12.06-3.15s5.22-5.1899778 5.22-9.63c0-4.0800204-1.769982-7.1999892-5.31-9.36s-8.729966-4.139991-15.57-5.94c-6.720034-1.800009-12.299978-3.6899901-16.74-5.67s-8.189985-4.8599811-11.25-8.64-4.59-8.7299694-4.59-14.85c0-5.400027 1.529985-10.1399796 4.59-14.22s7.139975-7.2599886 12.24-9.54c5.100026-2.2800114 10.64997-3.42 16.65-3.42 5.760029 0 11.489972 1.0799892 17.19 3.24s10.349982 5.4599778 13.95 9.9c1.440007 1.6800084 2.16 3.419991 2.16 5.22 0 1.9200096-.95999 3.779991-2.88 5.58-1.200006 1.0800054-2.699991 1.62-4.5 1.62-2.160011 0-3.899993-.7199928-5.22-2.16-2.520013-2.8800144-5.609982-5.0999922-9.27-6.66s-7.709978-2.34-12.15-2.34c-4.560023 0-8.429984.9299907-11.61 2.79s-4.77 5.0099778-4.77 9.45c.120001 4.200021 1.949982 7.3199898 5.49 9.36s8.969963 4.0199904 16.29 5.94c6.360032 1.6800084 11.639979 3.4799904 15.84 5.4s7.739986 4.7699811 10.62 8.55 4.32 8.7299694 4.32 14.85c0 5.6400282-1.619984 10.5299793-4.86 14.67s-7.469974 7.3199889-12.69 9.54-10.769971 3.33-16.65 3.33c-7.560038 0-14.549968-1.3199868-20.97-3.96s-11.849978-6.8399712-16.29-12.6z"/><path d="m565.465 98.89c-25.11 0-38.07-17.55-38.07-40.635v-17.01c0-23.085 12.96-40.635 38.07-40.635 21.33 0 34.83 14.58 36.45 31.995h-6.345c-1.89-14.31-12.015-26.46-30.24-26.46-20.79 0-31.32 14.85-31.32 34.965v17.28c0 20.115 10.53 34.965 31.32 34.965 18.225 0 28.35-12.15 30.24-26.46h6.345c-1.62 17.415-15.12 31.995-36.45 31.995zm59.67-1.89v-94.5h6.615v94.5z"/></g></g></svg>