<svg fill="none" height="193" viewBox="0 0 943 193" width="943" xmlns="http://www.w3.org/2000/svg" xmlns:xlink="http://www.w3.org/1999/xlink"><linearGradient id="a" gradientUnits="userSpaceOnUse" x1="119.733" x2="80.3992" y1="28.8624" y2="136.922"><stop offset="0" stop-color="#804fce"/><stop offset="1" stop-color="#2d3383"/></linearGradient><radialGradient id="b" cx="0" cy="0" gradientTransform="matrix(-32.46215847 34.31217206 -34.31217206 -32.46215847 146.481 95.3212)" gradientUnits="userSpaceOnUse" r="1"><stop offset="0" stop-color="#311476"/><stop offset="1" stop-color="#2b214f"/></radialGradient><radialGradient id="c" cx="0" cy="0" gradientTransform="matrix(35.29199427 40.67888322 -40.67994071 35.29291172 120.467 83.7958)" gradientUnits="userSpaceOnUse" r="1"><stop offset="0" stop-color="#1b357a"/><stop offset="1" stop-color="#512bcd"/></radialGradient><radialGradient id="d" cx="0" cy="0" gradientTransform="matrix(27.9642899 47.09498499 -47.50891273 28.21007393 123.382 77.7403)" gradientUnits="userSpaceOnUse" r="1"><stop offset="0" stop-color="#493ca8"/><stop offset="1" stop-color="#512bcc"/></radialGradient><mask id="e" fill="#000" height="145" maskUnits="userSpaceOnUse" width="485" x="265.02" y="44.52"><path d="m265.02 44.52h485v145h-485z" fill="#fff"/><path clip-rule="evenodd" d="m359.49 53.85c-1.62-1.62-3.69-2.43-6.21-2.43s-4.56.84-6.12 2.52-2.34 3.78-2.34 6.3v4.32c-3.24-4.08-7.59-7.44-13.05-10.08s-11.37-3.96-17.73-3.96c-7.92 0-15.18 2.1-21.78 6.3s-11.79 10.05-15.57 17.55-5.67 15.9299-5.67 25.29c0 9.36 1.89 17.79 5.67 25.29s9 13.35 15.66 17.55 14.07 6.3 22.23 6.3c6.24 0 12.06-1.47 17.46-4.41s9.66-6.51 12.78-10.71v4.68c0 2.52.78 4.59 2.34 6.21s3.6 2.43 6.12 2.43 4.59-.84 6.21-2.52 2.43-3.72 2.43-6.12v-78.12c0-2.64-.81-4.77-2.43-6.39zm-27.9 74.79c-4.38 2.88-9.39 4.32-15.03 4.32s-10.65-1.44-15.03-4.32-7.8-6.84-10.26-11.88-3.69-10.74-3.69-17.1 1.23-12.06 3.69-17.1 5.88-9 10.26-11.88 9.39-4.32 15.03-4.32 10.65 1.47 15.03 4.41 7.8 6.93 10.26 11.97 3.69 10.68 3.69 16.92c0 6.36-1.23 12.06-3.69 17.1s-5.88 9-10.26 11.88zm102.69-78.12c3.12 0 5.82.81 8.1 2.43s3.42 3.63 3.42 6.03c0 2.88-.75 5.07-2.25 6.57s-3.33 2.25-5.49 2.25c-1.08 0-2.7-.36-4.86-1.08-2.52-.84-4.5-1.26-5.94-1.26-3.72 0-7.35 1.29-10.89 3.87s-6.42 6.12-8.64 10.62-3.33 9.51-3.33 15.03v43.38c0 2.4-.81 4.44-2.43 6.12s-3.69 2.52-6.21 2.52-4.56-.81-6.12-2.43-2.34-3.69-2.34-6.21v-77.04c0-2.4.81-4.44 2.43-6.12s3.63-2.52 6.03-2.52c2.52 0 4.59.84 6.21 2.52s2.43 3.72 2.43 6.12v9.18c2.64-5.88 6.6-10.65 11.88-14.31s11.28-5.55 18-5.67zm109.71 3.33c-1.62-1.62-3.69-2.43-6.21-2.43s-4.56.84-6.12 2.52-2.34 3.78-2.34 6.3v5.76c-3.24-4.32-7.71-7.98-13.41-10.98s-11.85-4.5-18.45-4.5c-8.16 0-15.63 2.1-22.41 6.3s-12.12 10.05-16.02 17.55-5.85 15.9299-5.85 25.29c0 9.36 1.95 17.79 5.85 25.29s9.27 13.35 16.11 17.55 14.4 6.3 22.68 6.3c6.6 0 12.87-1.68 18.81-5.04s10.17-7.38 12.69-12.06v9.72c0 8.04-2.55 14.37-7.65 18.99s-12.45 6.93-22.05 6.93c-5.4 0-12.9-1.86-22.5-5.58-1.8-.72-3.48-1.08-5.04-1.08-3.12 0-5.34 1.5-6.66 4.5-.48 1.2-.72 2.16-.72 2.88 0 2.88 1.86 5.28 5.58 7.2 1.8 1.8 5.91 3.54 12.33 5.22s12.03 2.52 16.83 2.52c8.88 0 16.86-1.56 23.94-4.68s12.69-7.95 16.83-14.49 6.21-14.67 6.21-24.39v-79.2c0-2.64-.81-4.77-2.43-6.39zm-44.19 79.11c5.88 0 11.1-1.41 15.66-4.23s8.13-6.78 10.71-11.88 3.87-10.83 3.87-17.19-1.29-12.06-3.87-17.1-6.15-9-10.71-11.88-9.78-4.32-15.66-4.32c-5.76 0-10.92 1.44-15.48 4.32s-8.13 6.87-10.71 11.97-3.87 10.77-3.87 17.01 1.29 11.91 3.87 17.01 6.15 9.09 10.71 11.97 9.72 4.32 15.48 4.32zm151.38-7.92c4.2-7.44 6.3-15.84 6.3-25.2 0-9.3601-2.1-17.82-6.3-25.38s-9.93-13.44-17.19-17.64-15.27-6.3-24.03-6.3-16.77 2.1-24.03 6.3-12.99 10.08-17.19 17.64-6.3 16.0199-6.3 25.38c0 9.36 2.1 17.76 6.3 25.2s9.93 13.26 17.19 17.46 15.27 6.3 24.03 6.3 16.77-2.1 24.03-6.3 12.99-10.02 17.19-17.46zm-10.8-25.2c0-6.48-1.35-12.27-4.05-17.37s-6.36-9.06-10.98-11.88-9.75-4.23-15.39-4.23-10.77 1.41-15.39 4.23-8.28 6.78-10.98 11.88-4.05 10.89-4.05 17.37c0 6.36 1.35 12.06 4.05 17.1s6.36 8.97 10.98 11.79 9.75 4.23 15.39 4.23 10.77-1.41 15.39-4.23 8.28-6.75 10.98-11.79 4.05-10.74 4.05-17.1zm29.88 27.54c0 1.56.54 3.18 1.62 4.86 4.44 5.76 9.87 9.96 16.29 12.6s13.41 3.96 20.97 3.96c5.88 0 11.43-1.11 16.65-3.33s9.45-5.4 12.69-9.54 4.86-9.03 4.86-14.67c0-6.12-1.44-11.07-4.32-14.85s-6.42-6.63-10.62-8.55-9.48-3.72-15.84-5.4c-7.32-1.92-12.75-3.9-16.29-5.94s-5.37-5.16-5.49-9.36c0-4.44 1.59-7.59 4.77-9.45s7.05-2.79 11.61-2.79c4.44 0 8.49.78 12.15 2.34s6.75 3.78 9.27 6.66c1.32 1.44 3.06 2.16 5.22 2.16 1.8 0 3.3-.54 4.5-1.62 1.92-1.8 2.88-3.66 2.88-5.58 0-1.8-.72-3.54-2.16-5.22-3.6-4.44-8.25-7.74-13.95-9.9s-11.43-3.24-17.19-3.24c-6 0-11.55 1.14-16.65 3.42s-9.18 5.46-12.24 9.54-4.59 8.82-4.59 14.22c0 6.12 1.53 11.07 4.59 14.85s6.81 6.66 11.25 8.64 10.02 3.87 16.74 5.67c6.84 1.8 12.03 3.78 15.57 5.94s5.31 5.28 5.31 9.36c0 4.44-1.74 7.65-5.22 9.63s-7.5 3.03-12.06 3.15c-5.76 0-10.71-1.02-14.85-3.06s-8.01-5.1-11.61-9.18c-1.8-1.8-3.78-2.7-5.94-2.7-1.56 0-2.94.42-4.14 1.26-2.52 1.68-3.78 3.72-3.78 6.12z" fill="#000" fill-rule="evenodd"/></mask><mask id="f" fill="#000" height="111" maskUnits="userSpaceOnUse" width="117" x="792.395" y="44.61"><path d="m792.395 44.61h117v111h-117z" fill="#fff"/><path clip-rule="evenodd" d="m798.395 108.255c0 23.085 12.96 40.635 38.07 40.635 21.33 0 34.83-14.58 36.45-31.995h-6.345c-1.89 14.31-12.015 26.46-30.24 26.46-20.79 0-31.32-14.85-31.32-34.965v-17.28c0-20.115 10.53-34.965 31.32-34.965 18.225 0 28.35 12.15 30.24 26.46h6.345c-1.62-17.415-15.12-31.995-36.45-31.995-25.11 0-38.07 17.55-38.07 40.635zm97.74-55.755v94.5h6.615v-94.5z" fill="#000" fill-rule="evenodd"/></mask><path d="m40 95.3243-2.407-1.7907-1.3282 1.7855 1.3232 1.7891zm0 0c-2.407-1.7907-2.4063-1.7915-2.4055-1.7926l.0025-.0034.008-.0107.0282-.0376c.0242-.0322.059-.0785.1045-.1385.0909-.1199.2241-.2945.3984-.5202.3487-.4514.8622-1.107 1.5313-1.9378 1.3381-1.6614 3.2998-4.0246 5.8121-6.856 5.021-5.6587 12.2601-13.2081 21.1327-20.7653 17.6384-15.0234 42.2178-30.4944 68.9268-30.4944 26.712 0 51.183 15.474 68.716 30.5004 8.818 7.5585 16.003 15.109 20.984 20.7685 2.492 2.8318 4.437 5.1955 5.763 6.8572.663.831 1.172 1.4868 1.517 1.9383.173.2257.305.4005.395.5205.045.06.08.1063.104.1385l.028.0377.008.0108.002.0033c.001.0011.002.002-2.414 1.7813m-190.642 0c-2.412 1.7839-2.4114 1.7848-2.4105 1.7859l.0025.0033.008.0108.0281.0378c.0242.0324.059.0789.1045.1392.0908.1206.224.2963.3983.5232.3487.454.8621 1.1134 1.5311 1.949 1.3379 1.6705 3.2995 4.0485 5.8117 6.8955 5.0207 5.692 12.2595 13.286 21.1319 20.887 17.6366 15.111 42.2174 30.676 68.9334 30.676 26.718 0 51.192-15.568 68.722-30.682 8.819-7.602 16.003-15.197 20.984-20.89 2.492-2.848 4.436-5.226 5.762-6.8969.663-.8358 1.172-1.4954 1.518-1.9495.172-.227.304-.4027.394-.5234.045-.0603.08-.1069.104-.1393l.028-.0379.008-.0108.002-.0034c.001-.0011.002-.002-2.419-1.7745m0 0 2.416-1.7793 1.307 1.7741-1.302 1.7777z" fill="url(#a)"/><path d="m40 95.3243-2.407-1.7907-1.3282 1.7855 1.3232 1.7891zm0 0c-2.407-1.7907-2.4063-1.7915-2.4055-1.7926l.0025-.0034.008-.0107.0282-.0376c.0242-.0322.059-.0785.1045-.1385.0909-.1199.2241-.2945.3984-.5202.3487-.4514.8622-1.107 1.5313-1.9378 1.3381-1.6614 3.2998-4.0246 5.8121-6.856 5.021-5.6587 12.2601-13.2081 21.1327-20.7653 17.6384-15.0234 42.2178-30.4944 68.9268-30.4944 26.712 0 51.183 15.474 68.716 30.5004 8.818 7.5585 16.003 15.109 20.984 20.7685 2.492 2.8318 4.437 5.1955 5.763 6.8572.663.831 1.172 1.4868 1.517 1.9383.173.2257.305.4005.395.5205.045.06.08.1063.104.1385l.028.0377.008.0108.002.0033c.001.0011.002.002-2.414 1.7813m-190.642 0c-2.412 1.7839-2.4114 1.7848-2.4105 1.7859l.0025.0033.008.0108.0281.0378c.0242.0324.059.0789.1045.1392.0908.1206.224.2963.3983.5232.3487.454.8621 1.1134 1.5311 1.949 1.3379 1.6705 3.2995 4.0485 5.8117 6.8955 5.0207 5.692 12.2595 13.286 21.1319 20.887 17.6366 15.111 42.2174 30.676 68.9334 30.676 26.718 0 51.192-15.568 68.722-30.682 8.819-7.602 16.003-15.197 20.984-20.89 2.492-2.848 4.436-5.226 5.762-6.8969.663-.8358 1.172-1.4954 1.518-1.9495.172-.227.304-.4027.394-.5234.045-.0603.08-.1069.104-.1393l.028-.0379.008-.0108.002-.0034c.001-.0011.002-.002-2.419-1.7745m0 0 2.416-1.7793 1.307 1.7741-1.302 1.7777z" fill="#000" fill-opacity=".2"/><path d="m40 95.3243-2.407-1.7907-1.3282 1.7855 1.3232 1.7891zm0 0c-2.407-1.7907-2.4063-1.7915-2.4055-1.7926l.0025-.0034.008-.0107.0282-.0376c.0242-.0322.059-.0785.1045-.1385.0909-.1199.2241-.2945.3984-.5202.3487-.4514.8622-1.107 1.5313-1.9378 1.3381-1.6614 3.2998-4.0246 5.8121-6.856 5.021-5.6587 12.2601-13.2081 21.1327-20.7653 17.6384-15.0234 42.2178-30.4944 68.9268-30.4944 26.712 0 51.183 15.474 68.716 30.5004 8.818 7.5585 16.003 15.109 20.984 20.7685 2.492 2.8318 4.437 5.1955 5.763 6.8572.663.831 1.172 1.4868 1.517 1.9383.173.2257.305.4005.395.5205.045.06.08.1063.104.1385l.028.0377.008.0108.002.0033c.001.0011.002.002-2.414 1.7813m-190.642 0c-2.412 1.7839-2.4114 1.7848-2.4105 1.7859l.0025.0033.008.0108.0281.0378c.0242.0324.059.0789.1045.1392.0908.1206.224.2963.3983.5232.3487.454.8621 1.1134 1.5311 1.949 1.3379 1.6705 3.2995 4.0485 5.8117 6.8955 5.0207 5.692 12.2595 13.286 21.1319 20.887 17.6366 15.111 42.2174 30.676 68.9334 30.676 26.718 0 51.192-15.568 68.722-30.682 8.819-7.602 16.003-15.197 20.984-20.89 2.492-2.848 4.436-5.226 5.762-6.8969.663-.8358 1.172-1.4954 1.518-1.9495.172-.227.304-.4027.394-.5234.045-.0603.08-.1069.104-.1393l.028-.0379.008-.0108.002-.0034c.001-.0011.002-.002-2.419-1.7745m0 0 2.416-1.7793 1.307 1.7741-1.302 1.7777z" stroke="#fff" stroke-width="6"/><ellipse cx="135.858" cy="95.3212" fill="#fff" rx="50.0749" ry="49.8961"/><circle cx="136.036" cy="95.3212" fill="url(#b)" r="34.1582"/><ellipse cx="136.159" cy="95.2738" fill="url(#c)" rx="34.2039" ry="34.1972" transform="matrix(.92718385 -.37460659 .37460659 .92718385 -25.77562 57.94353)"/><ellipse cx="137.838" cy="93.5143" fill="url(#d)" rx="31.8906" ry="31.321" transform="matrix(.92718385 -.37460659 .37460659 .92718385 -24.994242 58.444374)"/><path clip-rule="evenodd" d="m359.49 53.85c-1.62-1.62-3.69-2.43-6.21-2.43s-4.56.84-6.12 2.52-2.34 3.78-2.34 6.3v4.32c-3.24-4.08-7.59-7.44-13.05-10.08s-11.37-3.96-17.73-3.96c-7.92 0-15.18 2.1-21.78 6.3s-11.79 10.05-15.57 17.55-5.67 15.9299-5.67 25.29c0 9.36 1.89 17.79 5.67 25.29s9 13.35 15.66 17.55 14.07 6.3 22.23 6.3c6.24 0 12.06-1.47 17.46-4.41s9.66-6.51 12.78-10.71v4.68c0 2.52.78 4.59 2.34 6.21s3.6 2.43 6.12 2.43 4.59-.84 6.21-2.52 2.43-3.72 2.43-6.12v-78.12c0-2.64-.81-4.77-2.43-6.39zm-27.9 74.79c-4.38 2.88-9.39 4.32-15.03 4.32s-10.65-1.44-15.03-4.32-7.8-6.84-10.26-11.88-3.69-10.74-3.69-17.1 1.23-12.06 3.69-17.1 5.88-9 10.26-11.88 9.39-4.32 15.03-4.32 10.65 1.47 15.03 4.41 7.8 6.93 10.26 11.97 3.69 10.68 3.69 16.92c0 6.36-1.23 12.06-3.69 17.1s-5.88 9-10.26 11.88zm102.69-78.12c3.12 0 5.82.81 8.1 2.43s3.42 3.63 3.42 6.03c0 2.88-.75 5.07-2.25 6.57s-3.33 2.25-5.49 2.25c-1.08 0-2.7-.36-4.86-1.08-2.52-.84-4.5-1.26-5.94-1.26-3.72 0-7.35 1.29-10.89 3.87s-6.42 6.12-8.64 10.62-3.33 9.51-3.33 15.03v43.38c0 2.4-.81 4.44-2.43 6.12s-3.69 2.52-6.21 2.52-4.56-.81-6.12-2.43-2.34-3.69-2.34-6.21v-77.04c0-2.4.81-4.44 2.43-6.12s3.63-2.52 6.03-2.52c2.52 0 4.59.84 6.21 2.52s2.43 3.72 2.43 6.12v9.18c2.64-5.88 6.6-10.65 11.88-14.31s11.28-5.55 18-5.67zm109.71 3.33c-1.62-1.62-3.69-2.43-6.21-2.43s-4.56.84-6.12 2.52-2.34 3.78-2.34 6.3v5.76c-3.24-4.32-7.71-7.98-13.41-10.98s-11.85-4.5-18.45-4.5c-8.16 0-15.63 2.1-22.41 6.3s-12.12 10.05-16.02 17.55-5.85 15.9299-5.85 25.29c0 9.36 1.95 17.79 5.85 25.29s9.27 13.35 16.11 17.55 14.4 6.3 22.68 6.3c6.6 0 12.87-1.68 18.81-5.04s10.17-7.38 12.69-12.06v9.72c0 8.04-2.55 14.37-7.65 18.99s-12.45 6.93-22.05 6.93c-5.4 0-12.9-1.86-22.5-5.58-1.8-.72-3.48-1.08-5.04-1.08-3.12 0-5.34 1.5-6.66 4.5-.48 1.2-.72 2.16-.72 2.88 0 2.88 1.86 5.28 5.58 7.2 1.8 1.8 5.91 3.54 12.33 5.22s12.03 2.52 16.83 2.52c8.88 0 16.86-1.56 23.94-4.68s12.69-7.95 16.83-14.49 6.21-14.67 6.21-24.39v-79.2c0-2.64-.81-4.77-2.43-6.39zm-44.19 79.11c5.88 0 11.1-1.41 15.66-4.23s8.13-6.78 10.71-11.88 3.87-10.83 3.87-17.19-1.29-12.06-3.87-17.1-6.15-9-10.71-11.88-9.78-4.32-15.66-4.32c-5.76 0-10.92 1.44-15.48 4.32s-8.13 6.87-10.71 11.97-3.87 10.77-3.87 17.01 1.29 11.91 3.87 17.01 6.15 9.09 10.71 11.97 9.72 4.32 15.48 4.32zm151.38-7.92c4.2-7.44 6.3-15.84 6.3-25.2 0-9.3601-2.1-17.82-6.3-25.38s-9.93-13.44-17.19-17.64-15.27-6.3-24.03-6.3-16.77 2.1-24.03 6.3-12.99 10.08-17.19 17.64-6.3 16.0199-6.3 25.38c0 9.36 2.1 17.76 6.3 25.2s9.93 13.26 17.19 17.46 15.27 6.3 24.03 6.3 16.77-2.1 24.03-6.3 12.99-10.02 17.19-17.46zm-10.8-25.2c0-6.48-1.35-12.27-4.05-17.37s-6.36-9.06-10.98-11.88-9.75-4.23-15.39-4.23-10.77 1.41-15.39 4.23-8.28 6.78-10.98 11.88-4.05 10.89-4.05 17.37c0 6.36 1.35 12.06 4.05 17.1s6.36 8.97 10.98 11.79 9.75 4.23 15.39 4.23 10.77-1.41 15.39-4.23 8.28-6.75 10.98-11.79 4.05-10.74 4.05-17.1zm29.88 27.54c0 1.56.54 3.18 1.62 4.86 4.44 5.76 9.87 9.96 16.29 12.6s13.41 3.96 20.97 3.96c5.88 0 11.43-1.11 16.65-3.33s9.45-5.4 12.69-9.54 4.86-9.03 4.86-14.67c0-6.12-1.44-11.07-4.32-14.85s-6.42-6.63-10.62-8.55-9.48-3.72-15.84-5.4c-7.32-1.92-12.75-3.9-16.29-5.94s-5.37-5.16-5.49-9.36c0-4.44 1.59-7.59 4.77-9.45s7.05-2.79 11.61-2.79c4.44 0 8.49.78 12.15 2.34s6.75 3.78 9.27 6.66c1.32 1.44 3.06 2.16 5.22 2.16 1.8 0 3.3-.54 4.5-1.62 1.92-1.8 2.88-3.66 2.88-5.58 0-1.8-.72-3.54-2.16-5.22-3.6-4.44-8.25-7.74-13.95-9.9s-11.43-3.24-17.19-3.24c-6 0-11.55 1.14-16.65 3.42s-9.18 5.46-12.24 9.54-4.59 8.82-4.59 14.22c0 6.12 1.53 11.07 4.59 14.85s6.81 6.66 11.25 8.64 10.02 3.87 16.74 5.67c6.84 1.8 12.03 3.78 15.57 5.94s5.31 5.28 5.31 9.36c0 4.44-1.74 7.65-5.22 9.63s-7.5 3.03-12.06 3.15c-5.76 0-10.71-1.02-14.85-3.06s-8.01-5.1-11.61-9.18c-1.8-1.8-3.78-2.7-5.94-2.7-1.56 0-2.94.42-4.14 1.26-2.52 1.68-3.78 3.72-3.78 6.12z" fill="#222" fill-rule="evenodd"/><path d="m359.49 53.85-4.243 4.2426zm-14.67 10.71-4.699 3.7313 10.699 13.4724v-17.2037zm-13.05-10.08-2.612 5.4017zm-39.42 88.02 3.201-5.075zm52.47-8.82h6v-18.139l-10.816 14.561zm-13.23-5.04-3.296-5.013zm-30.06 0 3.296-5.013zm-10.26-11.88-5.392 2.632zm0-34.2 5.392 2.6318zm10.26-11.88-3.296-5.0133zm30.06.09 3.344-4.9818zm10.26 11.97 5.392-2.6318zm0 34.02 5.392 2.632zm100.53-63.81 3.475-4.8911zm-8.1-2.43v-6h-.054l-.053.0009zm9.27 15.03 4.243 4.2426zm-10.35 1.17-1.897 5.6921zm-16.83 2.61 3.534 4.8489v-.0001zm-8.64 10.62-5.381-2.6546v.0001zm-18.09 64.62-4.322 4.162zm.09-89.37-4.319-4.1648zm12.24 0 4.319-4.1648zm2.43 15.3h-6l11.474 2.4575zm11.88-14.31 3.418 4.9311zm127.71-2.34-4.243 4.2426zm-12.33.09 4.397 4.0827zm-2.34 12.06-4.8 3.6 10.8 14.4v-18zm-13.41-10.98 2.794-5.3095zm-40.86 1.8-3.16-5.1006zm-16.02 17.55 5.323 2.7681zm0 50.58 5.323-2.768zm16.11 17.55-3.14 5.113zm54.18-10.8h6l-11.283-2.845zm-7.65 28.71-4.028-4.447zm-44.55 1.35-2.228 5.571.03.012.03.012zm-11.7 3.42-5.492-2.416-.041.093-.038.095zm4.86 10.08 4.243-4.243-.661-.66-.83-.429zm12.33 5.22-1.519 5.805zm40.77-2.16 2.42 5.491zm2.79-61.47-5.354-2.708zm0-34.29-5.341 2.734zm-52.56.09-5.354-2.7085v.0001zm0 34.02-5.354 2.708zm10.71 11.97 3.204-5.073zm166.86-3.6-5.225-2.95zm0-50.58-5.245 2.9138v.0001zm-17.19-17.64 3.005-5.1935zm-65.25 17.64-5.245-2.9139zm0 50.58-5.225 2.95zm65.25 17.46 3.005 5.194zm-8.64-71.91 3.126-5.1213zm-30.78 0-3.126-5.1213zm-10.98 46.35 5.289-2.833zm52.74 0-5.289-2.833zm35.55 15.3-5.047 3.244.138.216.157.203zm16.29 12.6 2.282-5.549zm50.85-38.43 4.773-3.636zm-10.62-8.55 2.495-5.4569zm-15.84-5.4 1.532-5.801-.01-.0027zm-16.29-5.94 2.996-5.1986zm-5.49-9.36h-6v.0857l.002.0857zm4.77-9.45-3.029-5.1791zm23.76-.45-2.353 5.5195zm9.27 6.66-4.515 3.951.045.0522.047.0511zm9.72.54 4.014 4.4598.045-.0409.045-.0417zm.72-10.8-4.661 3.7788.052.0637.053.0622zm-13.95-9.9-2.126 5.6106v.0001zm-33.84.18 2.449 5.4775zm-12.24 9.54 4.8 3.6zm0 29.07 4.664-3.7752h-.001zm11.25 8.64 2.444-5.4798zm16.74 5.67-1.552 5.796.012.003.013.003zm15.57 5.94 3.125-5.122zm-11.97 22.14v6h.079l.079-.002zm-26.46-12.24 4.499-3.97-.124-.14-.132-.133zm-10.08-1.44 3.328 4.992.057-.038.056-.039zm-320.76-63.84c1.103 0 1.59.2957 1.967.6726l8.486-8.4853c-2.863-2.863-6.516-4.1873-10.453-4.1873zm-1.723.6027c.305-.3288.687-.6027 1.723-.6027v-12c-4.004 0-7.702 1.406-10.517 4.4373zm-.737 2.2173c0-1.1688.313-1.7612.737-2.2173l-8.794-8.1654c-2.696 2.9039-3.943 6.5114-3.943 10.3827zm0 4.32v-4.32h-12v4.32zm-21.662-4.6783c4.781 2.3114 8.37 5.1433 10.963 8.4096l9.398-7.4626c-3.887-4.8938-8.998-8.7818-15.137-11.7504zm-15.118-3.3617c5.501 0 10.512 1.1347 15.118 3.3617l5.224-10.8034c-6.314-3.053-13.123-4.5583-20.342-4.5583zm-18.559 5.362c5.625-3.5794 11.765-5.362 18.559-5.362v-12c-9.046 0-17.426 2.4174-25.001 7.238zm-13.433 15.1884c3.331-6.6084 7.812-11.6115 13.433-15.1884l-6.442-10.124c-7.579 4.8231-13.478 11.5199-17.707 19.9116zm-5.028 22.5896c0-8.5308 1.716-16.0191 5.028-22.5896l-10.716-5.4008c-4.248 8.4295-6.312 17.8011-6.312 27.9904zm5.028 22.59c-3.312-6.571-5.028-14.059-5.028-22.59h-12c0 10.189 2.064 19.561 6.312 27.99zm13.503 15.175c-5.677-3.58-10.179-8.581-13.503-15.175l-10.716 5.4c4.236 8.406 10.174 15.105 17.818 19.925zm19.029 5.375c-7.071 0-13.364-1.802-19.029-5.375l-6.401 10.15c7.654 4.827 16.181 7.225 25.43 7.225zm14.591-3.68c-4.506 2.454-9.338 3.68-14.591 3.68v12c7.227 0 14.035-1.714 20.329-5.14zm10.833-9.018c-2.519 3.39-6.064 6.422-10.833 9.018l5.738 10.54c6.032-3.284 11.006-7.392 14.727-12.402zm10.816 8.258v-4.68h-12v4.68zm.662 2.048c-.35-.364-.662-.877-.662-2.048h-12c0 3.869 1.248 7.496 4.018 10.372zm1.798.592c-1.105 0-1.511-.293-1.798-.592l-8.644 8.324c2.833 2.941 6.507 4.268 10.442 4.268zm1.891-.685c-.393.407-.856.685-1.891.685v12c4.005 0 7.682-1.402 10.529-4.355zm.749-1.955c0 .895-.241 1.428-.749 1.955l8.638 8.33c2.732-2.833 4.111-6.38 4.111-10.285zm0-78.12v78.12h12v-78.12zm-.673-2.1474c.322.3218.673.836.673 2.1474h12c0-3.9686-1.269-7.7144-4.187-10.6327zm-38.687 80.8674c6.719 0 12.893-1.734 18.326-5.307l-6.592-10.026c-3.327 2.187-7.172 3.333-11.734 3.333zm-18.326-5.307c5.433 3.573 11.607 5.307 18.326 5.307v-12c-4.562 0-8.407-1.146-11.734-3.333zm-12.356-14.261c2.898 5.937 7.013 10.748 12.356 14.261l6.592-10.026c-3.417-2.247-6.142-5.356-8.164-9.499zm-4.298-19.732c0 7.149 1.387 13.768 4.298 19.732l10.784-5.264c-2.009-4.116-3.082-8.897-3.082-14.468zm4.298-19.7318c-2.911 5.9633-4.298 12.5825-4.298 19.7318h12c0-5.5708 1.073-10.3515 3.082-14.4682zm12.356-14.2615c-5.343 3.5129-9.458 8.3241-12.356 14.2615l10.784 5.2636c2.022-4.1427 4.747-7.2514 8.164-9.4985zm18.326-5.3067c-6.719 0-12.893 1.7337-18.326 5.3067l6.592 10.0266c3.327-2.187 7.172-3.3333 11.734-3.3333zm18.374 5.4282c-5.438-3.6504-11.629-5.4282-18.374-5.4282v12c4.536 0 8.364 1.1622 11.686 3.3918zm12.308 14.32c-2.893-5.9279-6.994-10.7533-12.308-14.32l-6.688 9.9636c3.447 2.3133 6.185 5.4678 8.212 9.62zm4.298 19.5518c0-7.0483-1.395-13.6037-4.298-19.5518l-10.784 5.2636c2.017 4.1319 3.082 8.8564 3.082 14.2882zm-4.298 19.732c2.911-5.964 4.298-12.583 4.298-19.732h-12c0 5.571-1.073 10.352-3.082 14.468zm-12.356 14.261c5.343-3.513 9.458-8.324 12.356-14.261l-10.784-5.264c-2.022 4.143-4.747 7.252-8.164 9.499zm110.969-85.5941c-3.411-2.4238-7.36-3.5389-11.575-3.5389v12c2.025 0 3.476.5048 4.625 1.3211zm5.945 10.9211c0-4.6841-2.381-8.389-5.945-10.9211l-6.95 9.7822c.572.4067.765.6934.821.7914.038.0668.074.1433.074.3475zm-4.007 10.8126c2.98-2.9801 4.007-6.9255 4.007-10.8126h-12c0 1.8729-.473 2.3074-.493 2.3274zm-9.733 4.0074c3.719 0 7.085-1.3593 9.733-4.0074l-8.486-8.4852c-.352.3519-.646.4926-1.247.4926zm-6.757-1.3879c2.248.7495 4.647 1.3879 6.757 1.3879v-12c.065 0-.139.0027-.723-.1271-.551-.1223-1.289-.3281-2.24-.645zm-4.043-.9521c.463 0 1.709.1744 4.043.9521l3.794-11.3842c-2.706-.9023-5.42-1.5679-7.837-1.5679zm-7.356 2.7188c2.701-1.9688 5.12-2.7188 7.356-2.7188v-12c-5.204 0-10.045 1.83-14.424 5.0211zm-6.793 8.4257c1.854-3.7575 4.144-6.4953 6.793-8.4256l-7.068-9.6978c-4.431 3.2297-7.901 7.5718-10.487 12.8143zm-2.711 12.3755c0-4.6929.938-8.781 2.711-12.3755l-10.762-5.309c-2.667 5.4055-3.949 11.3373-3.949 17.6845zm0 43.38v-43.38h-12v43.38zm-4.111 10.285c2.732-2.833 4.111-6.38 4.111-10.285h-12c0 .895-.241 1.428-.749 1.955zm-10.529 4.355c4.005 0 7.682-1.402 10.529-4.355l-8.638-8.33c-.393.407-.856.685-1.891.685zm-10.442-4.268c2.833 2.941 6.507 4.268 10.442 4.268v-12c-1.105 0-1.511-.293-1.798-.592zm-4.018-10.372c0 3.869 1.248 7.496 4.018 10.372l8.644-8.324c-.35-.364-.662-.877-.662-2.048zm0-77.04v77.04h12v-77.04zm4.111-10.2848c-2.732 2.8331-4.111 6.3802-4.111 10.2848h12c0-.8955.241-1.4283.749-1.9552zm10.349-4.3552c-3.977 0-7.563 1.4656-10.349 4.3552l8.638 8.3296c.454-.4704.888-.6848 1.711-.6848zm10.529 4.3552c-2.847-2.9527-6.524-4.3552-10.529-4.3552v12c1.035 0 1.498.2775 1.891.6848zm4.111 10.2848c0-3.9046-1.379-7.4517-4.111-10.2848l-8.638 8.3296c.508.5269.749 1.0597.749 1.9552zm0 9.18v-9.18h-12v9.18zm2.462-19.2411c-6.181 4.2842-10.85 9.9107-13.936 16.7835l10.948 4.9151c2.194-4.8872 5.445-8.8006 9.824-11.8364zm21.311-6.738c-7.847.1402-15.011 2.3706-21.311 6.738l6.836 9.8622c4.26-2.9527 9.096-4.5022 14.689-4.6021zm103.607 12.8991c1.103 0 1.59.2957 1.967.6726l8.486-8.4852c-2.863-2.8631-6.516-4.1874-10.453-4.1874zm-1.723.6027c.305-.3288.687-.6027 1.723-.6027v-12c-4.004 0-7.702 1.406-10.517 4.4373zm-.737 2.2173c0-1.1688.313-1.7611.737-2.2173l-8.794-8.1654c-2.696 2.9038-3.943 6.5114-3.943 10.3827zm0 5.76v-5.76h-12v5.76zm-22.204-5.6705c5.063 2.6647 8.791 5.786 11.404 9.2705l9.6-7.2c-3.867-5.1556-9.078-9.3542-15.416-12.6895zm-15.656-3.8095c5.651 0 10.839 1.2745 15.656 3.8095l5.588-10.619c-6.583-3.465-13.695-5.1905-21.244-5.1905zm-19.25 5.4006c5.808-3.5979 12.179-5.4006 19.25-5.4006v-12c-9.249 0-17.818 2.3973-25.57 7.1994zm-13.857 15.2175c3.433-6.6017 8.05-11.6205 13.857-15.2175l-6.32-10.2012c-7.753 4.8031-13.816 11.4841-18.183 19.8825zm-5.173 22.5219c0-8.5015 1.764-15.9654 5.173-22.5219l-10.646-5.5362c-4.391 8.4436-6.527 17.8394-6.527 28.0581zm5.173 22.522c-3.409-6.557-5.173-14.021-5.173-22.522h-12c0 10.219 2.136 19.615 6.527 28.058zm13.927 15.205c-5.863-3.6-10.501-8.617-13.927-15.205l-10.646 5.536c4.374 8.412 10.476 15.095 18.293 19.895zm19.54 5.413c-7.208 0-13.676-1.812-19.54-5.413l-6.28 10.226c7.816 4.799 16.468 7.187 25.82 7.187zm15.856-4.262c-5.071 2.868-10.327 4.262-15.856 4.262v12c7.671 0 14.955-1.966 21.764-5.818zm10.361-9.683c-1.851 3.437-5.13 6.724-10.361 9.683l5.908 10.444c6.649-3.761 11.83-8.514 15.019-14.437zm11.283 12.565v-9.72h-12v9.72zm-9.622 23.437c6.57-5.952 9.622-14.016 9.622-23.437h-12c0 6.659-2.048 11.255-5.678 14.543zm-26.078 8.483c10.5 0 19.505-2.528 26.078-8.483l-8.056-8.894c-3.627 3.285-9.322 5.377-18.022 5.377zm-24.668-5.985c9.781 3.79 18.127 5.985 24.668 5.985v-12c-4.259 0-10.913-1.525-20.332-5.175zm-2.872-.675c.636 0 1.554.148 2.812.651l4.456-11.142c-2.342-.937-4.784-1.509-7.268-1.509zm-1.168.916c.155-.353.293-.562.383-.675.084-.108.133-.14.139-.144.005-.003.026-.019.097-.039.079-.022.25-.058.549-.058v-12c-2.555 0-5.107.628-7.364 2.153-2.238 1.512-3.774 3.627-4.788 5.931zm-.212.464c0 .149-.012.241-.015.264-.004.024-.002.003.016-.069.038-.151.122-.427.29-.847l-11.142-4.456c-.574 1.436-1.149 3.242-1.149 5.108zm2.332 1.868c-1.36-.702-1.962-1.283-2.194-1.583-.163-.21-.138-.251-.138-.285h-12c0 6.077 4.131 10.107 8.828 12.532zm11.097 4.747c-3.051-.798-5.383-1.568-7.077-2.285-.842-.357-1.464-.674-1.906-.939-.217-.13-.374-.237-.48-.317-.108-.081-.148-.122-.143-.117l-8.486 8.486c1.711 1.711 4.024 2.958 6.336 3.937 2.416 1.023 5.349 1.963 8.718 2.845zm15.311 2.325c-4.134 0-9.213-.729-15.311-2.325l-3.038 11.61c6.742 1.764 12.883 2.715 18.349 2.715zm21.52-4.171c-6.213 2.738-13.351 4.171-21.52 4.171v12c9.591 0 18.413-1.687 26.36-5.189zm14.18-12.208c-3.503 5.534-8.19 9.569-14.18 12.208l4.84 10.982c8.17-3.601 14.703-9.226 19.48-16.772zm5.28-21.181c0 8.873-1.885 15.819-5.28 21.181l10.14 6.418c4.885-7.718 7.14-17.032 7.14-27.599zm0-79.2v79.2h12v-79.2zm-.673-2.1474c.322.3217.673.836.673 2.1474h12c0-3.9686-1.269-7.7144-4.187-10.6326zm-27.443 65.5344c-3.521 2.178-7.627 3.333-12.504 3.333v12c6.883 0 13.217-1.665 18.816-5.127zm8.512-9.485c-2.116 4.182-4.953 7.284-8.512 9.485l6.312 10.206c5.561-3.439 9.864-8.257 12.908-14.275zm3.224-14.482c0 5.527-1.115 10.312-3.224 14.482l10.708 5.416c3.051-6.03 4.516-12.705 4.516-19.898zm-3.211-14.366c2.096 4.0942 3.211 8.8381 3.211 14.366h12c0-7.1922-1.465-13.8482-4.529-19.834zm-8.573-9.5411c3.605 2.2768 6.458 5.4084 8.573 9.5411l10.682-5.468c-3.045-5.9474-7.332-10.7357-12.847-14.2189zm-12.456-3.3929c4.852 0 8.941 1.1729 12.456 3.3929l6.408-10.1458c-5.605-3.54-11.956-5.2471-18.864-5.2471zm-12.276 3.3929c3.535-2.2328 7.57-3.3929 12.276-3.3929v-12c-6.814 0-13.099 1.7198-18.684 5.2471zm-8.56 9.6055c2.121-4.1921 4.973-7.3398 8.56-9.6055l-6.408-10.1458c-5.533 3.4943-9.821 8.3266-12.86 14.3344zm-3.224 14.3016c0-5.387 1.107-10.1163 3.224-14.3016l-10.708-5.4168c-3.043 6.0148-4.516 12.6253-4.516 19.7184zm3.224 14.302c-2.117-4.186-3.224-8.915-3.224-14.302h-12c0 7.093 1.473 13.704 4.516 19.718zm8.56 9.605c-3.587-2.266-6.439-5.413-8.56-9.605l-10.708 5.416c3.039 6.008 7.327 10.841 12.86 14.335zm12.276 3.393c-4.706 0-8.741-1.16-12.276-3.393l-6.408 10.146c5.585 3.527 11.87 5.247 18.684 5.247zm151.68-27.12c0 8.428-1.881 15.795-5.525 22.25l10.45 5.9c4.756-8.425 7.075-17.858 7.075-28.15zm-5.545-22.4661c3.665 6.5961 5.545 14.0394 5.545 22.4661h12c0-10.2934-2.32-19.77-7.055-28.2939zm-14.949-15.3604c6.29 3.6392 11.259 8.7179 14.949 15.3603l10.49-5.8277c-4.71-8.4775-11.201-15.1588-19.43-19.9196zm-21.026-5.4935c7.754 0 14.72 1.8457 21.026 5.4935l6.009-10.387c-8.215-4.7523-17.269-7.1065-27.035-7.1065zm-21.025 5.4935c6.305-3.6478 13.271-5.4935 21.025-5.4935v-12c-9.766 0-18.82 2.3542-27.035 7.1065zm-14.95 15.3604c3.69-6.6426 8.659-11.7212 14.95-15.3604l-6.01-10.387c-8.229 4.7608-14.72 11.4421-19.43 19.9196zm-5.545 22.4661c0-8.4267 1.88-15.87 5.545-22.4662l-10.49-5.8277c-4.735 8.5239-7.055 18.0005-7.055 28.2939zm5.525 22.25c-3.644-6.455-5.525-13.822-5.525-22.25h-12c0 10.292 2.319 19.725 7.075 28.15zm14.97 15.216c-6.315-3.653-11.286-8.69-14.97-15.216l-10.45 5.9c4.716 8.354 11.205 14.957 19.41 19.704zm21.025 5.494c-7.754 0-14.72-1.846-21.025-5.494l-6.01 10.388c8.215 4.752 17.269 7.106 27.035 7.106zm21.026-5.494c-6.306 3.648-13.272 5.494-21.026 5.494v12c9.766 0 18.82-2.354 27.035-7.106zm14.969-15.216c-3.684 6.526-8.655 11.563-14.969 15.216l6.009 10.388c8.205-4.747 14.694-11.35 19.41-19.704zm-14.928-36.8127c2.189 4.1334 3.353 8.9393 3.353 14.5627h12c0-7.3367-1.535-14.1107-4.747-20.1773zm-8.803-9.566c3.638 2.2209 6.573 5.3534 8.803 9.566l10.606-5.6146c-3.17-5.9875-7.555-10.7749-13.157-14.194zm-12.264-3.3513c4.586 0 8.626 1.1307 12.264 3.3513l6.252-10.2426c-5.602-3.4195-11.822-5.1087-18.516-5.1087zm-12.264 3.3513c3.638-2.2206 7.678-3.3513 12.264-3.3513v-12c-6.694 0-12.914 1.6892-18.516 5.1087zm-8.803 9.566c2.23-4.2126 5.165-7.3451 8.803-9.566l-6.252-10.2426c-5.602 3.4191-9.987 8.2065-13.157 14.194zm-3.353 14.5627c0-5.6234 1.164-10.4293 3.353-14.5627l-10.606-5.6146c-3.211 6.0666-4.747 12.8406-4.747 20.1773zm3.339 14.267c-2.183-4.074-3.339-8.783-3.339-14.267h-12c0 7.236 1.544 13.927 4.761 19.933zm8.817 9.502c-3.656-2.232-6.592-5.349-8.817-9.502l-10.578 5.666c3.175 5.927 7.559 10.67 13.143 14.078zm12.264 3.351c-4.586 0-8.626-1.131-12.264-3.351l-6.252 10.242c5.602 3.42 11.822 5.109 18.516 5.109zm12.264-3.351c-3.638 2.22-7.678 3.351-12.264 3.351v12c6.694 0 12.914-1.689 18.516-5.109zm8.817-9.502c-2.225 4.153-5.161 7.27-8.817 9.502l6.252 10.242c5.584-3.408 9.968-8.151 13.143-14.078zm3.339-14.267c0 5.484-1.156 10.193-3.339 14.267l10.578 5.666c3.217-6.006 4.761-12.697 4.761-19.933zm42.547 29.155c-.63-.98-.667-1.488-.667-1.615h-12c0 2.993 1.043 5.725 2.573 8.104zm13.525 10.296c-5.398-2.22-9.991-5.747-13.82-10.714l-9.504 7.326c5.051 6.553 11.318 11.426 18.76 14.486zm18.688 3.509c-6.847 0-13.054-1.192-18.688-3.509l-4.564 11.098c7.206 2.963 14.979 4.411 23.252 4.411zm14.302-2.851c-4.45 1.892-9.199 2.851-14.302 2.851v12c6.657 0 13.008-1.261 18.998-3.809zm10.313-7.717c-2.566 3.279-5.951 5.861-10.313 7.717l4.696 11.042c6.078-2.584 11.153-6.362 15.067-11.363zm3.585-10.972c0 4.404-1.233 7.967-3.585 10.972l9.45 7.396c4.128-5.275 6.135-11.492 6.135-18.368zm-3.093-11.214c1.881 2.468 3.093 6.027 3.093 11.214h12c0-7.053-1.668-13.394-5.547-18.486zm-8.342-6.729c3.276 1.497 6.042 3.711 8.342 6.729l9.546-7.272c-3.46-4.5416-7.774-8.0283-12.898-10.3709zm-14.877-5.056c6.156 1.6262 11.087 3.323 14.877 5.056l4.99-10.9139c-4.611-2.1074-10.239-4.0103-16.803-5.7441zm-17.754-6.5424c4.24 2.4433 10.287 4.5839 17.764 6.5451l3.044-11.6074c-7.163-1.8788-11.976-3.6982-14.816-5.3349zm-8.492-14.3872c.178 6.2111 3.085 11.271 8.492 14.3872l5.992-10.3972c-1.673-.9638-2.426-2.1439-2.488-4.3328zm7.739-14.8005c-5.425 3.1728-7.741 8.572-7.741 14.6291h12c0-2.8229.864-3.7237 1.799-4.2709zm14.639-3.6109c-5.374 0-10.345 1.0993-14.639 3.6109l6.058 10.3582c2.066-1.2084 4.834-1.9691 8.581-1.9691zm14.503 2.8205c-4.486-1.9119-9.348-2.8205-14.503-2.8205v12c3.725 0 6.963.6514 9.797 1.8595zm11.432 8.2285c-3.137-3.586-6.977-6.3293-11.432-8.2286l-4.706 11.0391c2.865 1.2208 5.205 2.9174 7.108 5.0915zm.705.111c-.408 0-.587-.0661-.631-.0841-.029-.0122-.076-.0316-.166-.1303l-8.846 8.1087c2.584 2.8185 5.999 4.1057 9.643 4.1057zm.486-.0798c-.011.0101-.019.0161-.023.0191-.004.0031-.006.0043-.006.0045-.001.0002-.001.0004-.002.0009-.001.0006-.005.0023-.012.005-.02.0071-.147.0503-.443.0503v12c3.099 0 6.083-.9724 8.514-3.1602zm.894-1.1202c0-.0818.03-.0743-.052.0832-.097.1885-.348.5722-.932 1.1196l8.208 8.7544c2.666-2.4998 4.776-5.8355 4.776-9.9572zm-.716-1.3153c.73.8514.716 1.2551.716 1.3153h12c0-3.5399-1.454-6.6161-3.604-9.1248zm-11.52-8.194c4.776 1.81 8.528 4.5069 11.415 8.0681l9.322-7.5576c-4.313-5.3189-9.861-9.2219-16.485-11.7319zm-15.064-2.8507c4.992 0 10.003.9329 15.064 2.8506l4.252-11.2213c-6.339-2.4023-12.788-3.6293-19.316-3.6293zm-14.201 2.8975c4.274-1.9106 8.981-2.8975 14.201-2.8975v-12c-6.781 0-13.172 1.293-19.099 3.9424zm-9.889 7.6625c2.391-3.1885 5.628-5.7578 9.889-7.6625l-4.898-10.9551c-5.939 2.6554-10.862 6.446-14.591 11.4176zm-3.39 10.62c0-4.1833 1.156-7.6419 3.39-10.62l-9.6-7.2c-3.886 5.1819-5.79 11.2032-5.79 17.82zm3.253 11.0748c-1.991-2.4601-3.253-5.966-3.253-11.0748h-12c0 7.1312 1.798 13.5253 5.927 18.6252zm9.031 6.9354c-3.576-1.5946-6.565-3.8903-9.03-6.9354l-9.327 7.5504c3.655 4.5148 8.165 7.9788 13.469 10.3448zm15.848 5.3538c-6.533-1.7497-11.79-3.5441-15.848-5.3538l-4.888 10.9598c4.822 2.15 10.725 4.136 17.632 5.986zm17.143 6.614c-4.266-2.603-10.102-4.761-17.168-6.62l-3.054 11.604c6.614 1.741 11.158 3.543 13.972 5.26zm8.185 14.482c0-6.213-2.895-11.254-8.185-14.482l-6.25 10.244c1.79 1.092 2.435 2.291 2.435 4.238zm-8.253 14.845c5.59-3.181 8.253-8.533 8.253-14.845h-12c0 2.568-.817 3.636-2.187 4.415zm-14.869 3.933c5.408-.142 10.418-1.401 14.869-3.933l-5.934-10.43c-2.509 1.428-5.539 2.269-9.251 2.367zm-17.66-3.676c5.144 2.535 11.045 3.678 17.502 3.678v-12c-5.063 0-9.062-.897-12.198-2.442zm-13.457-10.592c4.027 4.563 8.501 8.15 13.457 10.592l5.304-10.764c-3.324-1.638-6.59-4.171-9.763-7.768zm-1.441-.67c.287 0 .806.052 1.697.943l8.486-8.486c-2.709-2.709-6.15-4.457-10.183-4.457zm-.699.175c.124-.087.285-.175.699-.175v-12c-2.706 0-5.305.752-7.581 2.345zm-1.221 1.205c0-.068.008-.093.008-.095.001-.001.007-.025.042-.082.074-.12.333-.467 1.058-.951l-6.656-9.984c-3.695 2.463-6.452 6.177-6.452 11.112z" fill="#fff" mask="url(#e)"/><path clip-rule="evenodd" d="m798.395 108.255c0 23.085 12.96 40.635 38.07 40.635 21.33 0 34.83-14.58 36.45-31.995h-6.345c-1.89 14.31-12.015 26.46-30.24 26.46-20.79 0-31.32-14.85-31.32-34.965v-17.28c0-20.115 10.53-34.965 31.32-34.965 18.225 0 28.35 12.15 30.24 26.46h6.345c-1.62-17.415-15.12-31.995-36.45-31.995-25.11 0-38.07 17.55-38.07 40.635zm97.74-55.755v94.5h6.615v-94.5z" fill="#222" fill-rule="evenodd"/><path d="m872.915 116.895 5.974.556.61-6.556h-6.584zm-6.345 0v-6h-5.26l-.688 5.214zm0-34.29-5.948.7856.688 5.2144h5.26zm6.345 0v6h6.584l-.61-6.5558zm23.22 64.395h-6v6h6zm0-94.5v-6h-6v6zm6.615 94.5v6h6v-6zm0-94.5h6v-6h-6zm-66.285 90.39c-11.058 0-18.844-3.806-23.94-9.617-5.193-5.921-8.13-14.547-8.13-25.018h-12c0 12.614 3.543 24.305 11.108 32.931 7.661 8.735 18.91 13.704 32.962 13.704zm30.476-26.551c-1.345 14.454-12.367 26.551-30.476 26.551v12c24.551 0 40.529-17.063 42.424-37.439zm-.371 6.556h6.345v-12h-6.345zm-30.24 26.46c10.532 0 19.143-3.55 25.393-9.528 6.182-5.913 9.701-13.858 10.795-22.146l-11.896-1.572c-.796 6.022-3.284 11.307-7.194 15.046-3.841 3.675-9.405 6.2-17.098 6.2zm-37.32-40.965c0 11.034 2.885 21.285 9.27 28.885 6.507 7.746 16.105 12.08 28.05 12.08v-12c-8.845 0-14.907-3.091-18.862-7.799-4.078-4.854-6.458-12.085-6.458-21.166zm0-17.28v17.28h12v-17.28zm37.32-40.965c-11.945 0-21.543 4.3343-28.05 12.0799-6.385 7.6-9.27 17.8511-9.27 28.8851h12c0-9.081 2.38-16.3124 6.458-21.1662 3.955-4.7081 10.017-7.7988 18.862-7.7988zm36.188 31.6744c-1.094-8.2888-4.613-16.2335-10.795-22.1465-6.25-5.978-14.861-9.5279-25.393-9.5279v12c7.693 0 13.257 2.525 17.098 6.1996 3.91 3.7394 6.398 9.0247 7.194 15.046zm.397-5.2144h-6.345v12h6.345zm-36.45-19.995c18.109 0 29.131 12.0969 30.476 26.5507l11.948-1.1115c-1.895-20.3761-17.873-37.4392-42.424-37.4392zm-32.07 34.635c0-10.4706 2.937-19.0972 8.13-25.0182 5.096-5.8104 12.882-9.6168 23.94-9.6168v-12c-14.052 0-25.301 4.9686-32.962 13.7044-7.565 8.6253-11.108 20.3162-11.108 32.9306zm0 17.01v-17.01h-12v17.01zm97.74 38.745v-94.5h-12v94.5zm.615-6h-6.615v12h6.615zm-6-88.5v94.5h12v-94.5zm-.615 6h6.615v-12h-6.615z" fill="#fff" mask="url(#f)"/></svg>