<svg height="900" viewBox="0 0 900 900" width="900" xmlns="http://www.w3.org/2000/svg" xmlns:xlink="http://www.w3.org/1999/xlink"><linearGradient id="a" x1="80.120249%" x2="35.628671%" y1="36.83168%" y2="66.908509%"><stop offset="0" stop-color="#804fce"/><stop offset="1" stop-color="#2d3383"/></linearGradient><radialGradient id="b" cx="65.287843%" cy="50%" r="69.141026%"><stop offset="0" stop-color="#311476"/><stop offset="1" stop-color="#2b214f"/></radialGradient><radialGradient id="c" cx="27.060335%" cy="33.217922%" gradientTransform="matrix(.65519484 .75534966 -.75520313 .65532197 .344168 -.089905)" r="78.740829%"><stop offset="0" stop-color="#1b357a"/><stop offset="1" stop-color="#512bcd"/></radialGradient><radialGradient id="d" cx="27.334456%" cy="24.818815%" gradientTransform="matrix(.50144076 .8598419 -.8444834 .51056039 .345869 -.11356)" r="87.436056%"><stop offset="0" stop-color="#493ca8"/><stop offset="1" stop-color="#512bcc"/></radialGradient><g fill="none" fill-rule="evenodd" transform="translate(0 168.539326)"><path d="m0 280.632804c139.184428-187.0885359 289.244941-280.632804 450.181539-280.632804 160.936597 0 310.314287 93.5442681 448.133068 280.632804-137.818781 188.192363-287.196471 282.288544-448.133068 282.288544-160.936598 0-310.997111-94.096181-450.181539-282.288544z" fill="url(#a)"/><path d="m452.379514 515.730337c129.931027 0 235.260935-105.263389 235.260935-235.112359 0-129.848971-105.329908-235.11236-235.260935-235.11236s-235.260936 105.263389-235.260936 235.11236c0 36.350104-7.452681 198.800949 12.177506 156.291543s22.259806-53.34352 34.658955-38.475233c43.154941 51.748715 115.747776 117.296049 188.424475 117.296049z" fill="#fff"/><circle cx="452.52809" cy="280.617978" fill="url(#b)" r="160.955056"/><path d="m453.120452 441.533607c89.011755.008196 161.163396-72.129436 161.155201-161.12391-62.650293 155.06438-243.445959 118.941794-277.841862 37.870619s23.204731-198.211331 116.656982-199.024208c-89.011755-.008196-161.163396 72.129436-161.1552 161.12391s72.173124 161.145394 161.184879 161.153589z" fill="url(#c)" transform="matrix(.92718385 -.37460659 .37460659 .92718385 -72.044358 190.153623)"/><path d="m457.248803 419.68319c73.873504.761023 154.047015-65.210454 154.038819-154.204546-62.649807 155.063713-196.169429 119.039803-230.565065 37.968976-34.395636-81.070826 32.00928-168.339314 87.006581-178.929739-89.011064-.008195-156.989701 61.663943-156.981505 150.658034.008195 88.994092 72.627666 143.746252 146.50117 144.507275z" fill="url(#d)" transform="matrix(.92718385 -.37460659 .37460659 .92718385 -68.362349 192.513792)"/></g></svg>